<svg xmlns="http://www.w3.org/2000/svg" width="33.472" height="39.445" viewBox="0 0 33.472 39.445"><defs><style>.a{fill:#fff;}</style></defs><path class="a" d="M156.812,186.236a.794.794,0,0,0,.424-.549c.267-4.564-3.5-10.647-4.859-12.679a8.484,8.484,0,0,0-3.137,2.212s-1.96,1.315-2.655,7.706A8.836,8.836,0,0,0,156.812,186.236Z" transform="translate(-139.2 -172.417)"/><path class="a" d="M130.334,174.846l-6.006-1.466a2.678,2.678,0,0,0-1.874-2.044c-1.241-.435-5.518-2.893-9.726-2.025,1.591,2.422,5.13,8.391,4.85,13.165a2.1,2.1,0,0,1-1.356,1.763,11.1,11.1,0,0,1-3.432.547,9.957,9.957,0,0,1-7.383-3.247c-.048.819-.076,1.7-.081,2.663-.028,4.943-6.307,9.63-6.307,9.63l-.836,1.733a22.689,22.689,0,0,0,7.7,9.147,14.663,14.663,0,0,1,1.428-5.6,12.124,12.124,0,0,1,4.049-4.725c.2-5.448,1.968-7.041,3.444-7.4a1.55,1.55,0,0,1,1.307.267,1.886,1.886,0,0,1,.731,1.412,4.54,4.54,0,0,0,1.352,2.9,13.309,13.309,0,0,1,1.9.312l.055-.514.457-4.439a1.775,1.775,0,0,1,1.5-1.488c2.83-.412,9.137-2.089,9.547-8.9A1.763,1.763,0,0,0,130.334,174.846Zm-9.357,1.583a.767.767,0,1,1,.767-.767A.767.767,0,0,1,120.977,176.429Z" transform="translate(-98.183 -169.127)"/><path class="a" d="M173.743,303.6c-.227-1.932-2.954-3.523-6.477-3.749a5.663,5.663,0,0,1-2-3.921c-.021-.376-.3-.749-.666-.659-.941.232-2.54,1.44-2.62,6.96,0,0-5.12,2.583-5.49,10.031a22.386,22.386,0,0,0,11.19,3.2l-.046-1.067a1,1,0,0,1,.607-.92l4.361-1.636a3.3,3.3,0,0,0,2.9-1.421,10.457,10.457,0,0,1,1.125-1.663.7.7,0,0,0-.033-.959C175.7,306.928,173.913,305.039,173.743,303.6Zm-2.587,1.87a.767.767,0,1,1,.768-.766A.765.765,0,0,1,171.156,305.465Z" transform="translate(-147.597 -276.008)"/></svg>