<svg xmlns="http://www.w3.org/2000/svg" width="29.333" height="29.333" viewBox="0 0 29.333 29.333"><defs><style>.a{fill:#fff;}</style></defs><g transform="translate(5.214)"><path class="a" d="M92.719.859v.859H91V.859a.859.859,0,1,1,1.719,0Z" transform="translate(-91)"/></g><g transform="translate(13.807)"><path class="a" d="M242.719.859v.859H241V.859a.859.859,0,0,1,1.719,0Z" transform="translate(-241)"/></g><g transform="translate(22.401)"><path class="a" d="M392.719.859v.859H391V.859a.859.859,0,0,1,1.719,0Z" transform="translate(-391)"/></g><g transform="translate(0 8.708)"><circle class="a" cx="0.963" cy="0.963" r="0.963" transform="translate(10.063 3.282)"/><path class="a" d="M186.806,303.09a1.589,1.589,0,0,0-3.018,0,5.877,5.877,0,0,1-2.1,2.694,1.7,1.7,0,0,0-.683,1.371,1.72,1.72,0,0,0,1.719,1.719,1.7,1.7,0,0,0,1.059-.365,2.49,2.49,0,0,1,3.038,0,1.7,1.7,0,0,0,1.059.365,1.72,1.72,0,0,0,1.719-1.719,1.7,1.7,0,0,0-.683-1.371A5.874,5.874,0,0,1,186.806,303.09Z" transform="translate(-170.63 -293.406)"/><ellipse class="a" cx="0.642" cy="0.963" rx="0.642" ry="0.963" transform="translate(6.209 7.778)"/><circle class="a" cx="0.963" cy="0.963" r="0.963" transform="translate(21.625 7.778)"/><path class="a" d="M0,152v19.766a.859.859,0,0,0,.859.859H28.474a.859.859,0,0,0,.859-.859V152Zm18.1,1.719a2.578,2.578,0,1,1-2.578,2.578A2.581,2.581,0,0,1,18.1,153.719Zm-6.875,0A2.578,2.578,0,1,1,8.651,156.3,2.581,2.581,0,0,1,11.229,153.719Zm-6.875,6.875a2.578,2.578,0,1,1,2.578,2.578A2.581,2.581,0,0,1,4.354,160.594Zm12.891,8.594a3.453,3.453,0,0,1-2.12-.731.76.76,0,0,0-.916,0,3.438,3.438,0,0,1-5.557-2.706,3.411,3.411,0,0,1,1.365-2.743,4.2,4.2,0,0,0,1.521-1.892,3.174,3.174,0,0,1,3.13-2.24,3.174,3.174,0,0,1,3.13,2.239,4.2,4.2,0,0,0,1.521,1.893,3.438,3.438,0,0,1-2.073,6.18Zm5.156-6.016a2.578,2.578,0,1,1,2.578-2.578A2.581,2.581,0,0,1,22.4,163.172Z" transform="translate(0 -152)"/><circle class="a" cx="0.963" cy="0.963" r="0.963" transform="translate(17.129 3.282)"/></g><path class="a" d="M29.333,30.859v4.411H0V30.859A.851.851,0,0,1,.859,30H5.214v2.578a.859.859,0,1,0,1.719,0V30h6.875v2.578a.859.859,0,1,0,1.719,0V30H22.4v2.578a.859.859,0,1,0,1.719,0V30h4.354A.851.851,0,0,1,29.333,30.859Z" transform="translate(0 -28.281)"/></svg>