<svg xmlns="http://www.w3.org/2000/svg" width="39.111" height="36.667" viewBox="0 0 39.111 36.667"><defs><style>.a{fill:#fff;}</style></defs><path class="a" d="M310.021,16a8.021,8.021,0,1,0,8.021,8.021A8.03,8.03,0,0,0,310.021,16Zm3.437,9.167h-6.875V22.875h6.875Z" transform="translate(-278.931 -16)"/><path class="a" d="M10.465,98.917H31.976l2.54-9.8a10.2,10.2,0,0,1-2.506.537l-.024.093H26.606l.085-1.023a10.282,10.282,0,0,1-2.181-1.416l-.2,2.439H19.54l-.382-4.583h3.366a10.288,10.288,0,0,1-1.112-2.292H10.62L9.092,76H0v2.292H7.255l4.073,18.333h-.863a3.437,3.437,0,0,0,0,6.875h1.357a3.4,3.4,0,0,0-.211,1.146,3.437,3.437,0,1,0,6.875,0,3.4,3.4,0,0,0-.211-1.146H23.28a3.4,3.4,0,0,0-.211,1.146,3.437,3.437,0,1,0,6.875,0,3.4,3.4,0,0,0-.211-1.146h2.5v-2.292H10.465a1.146,1.146,0,1,1,0-2.292Zm15.95-6.875h4.977L30.2,96.625H26.033Zm-2.3,0-.382,4.583H20.113l-.382-4.583Zm-6.3,4.583H13.676l-1.019-4.583h4.775ZM11.13,85.167h5.73l.382,4.583H12.148Zm5.065,19.479a1.146,1.146,0,1,1-1.146-1.146A1.147,1.147,0,0,1,16.194,104.646Zm11.458,0a1.146,1.146,0,1,1-1.146-1.146A1.147,1.147,0,0,1,27.653,104.646Z" transform="translate(0 -71.417)"/></svg>