<svg xmlns="http://www.w3.org/2000/svg" width="35.747" height="27.967" viewBox="0 0 35.747 27.967"><defs><style>.a{fill:#fff;}</style></defs><path class="a" d="M34.089,50.279l-.066-.066A15.961,15.961,0,0,0,28.962,47c-.369-.155-.745-.3-1.121-.421v-.022a3,3,0,0,0-2.966-2.966l-7.968-.118a3.911,3.911,0,0,0-2.818,1.144L.8,57.914a2.747,2.747,0,0,0,0,3.881L9.64,70.633a2.747,2.747,0,0,0,3.881,0l13.3-13.3A3.951,3.951,0,0,0,27.693,56a13.9,13.9,0,0,0,3.777.568c2.833-.015,3.77-1.254,4.08-1.992S36.074,52.3,34.089,50.279ZM17.63,57.826c-.31.17-.627.354-.944.516s-.406.118-.516-.207a3.97,3.97,0,0,0-1.107-1.66,1.5,1.5,0,0,0-.443-.3.74.74,0,0,0-1.062.8,3.483,3.483,0,0,0,.266.937,15.328,15.328,0,0,1,.6,1.594,2.782,2.782,0,0,1-2.353,3.622,2.988,2.988,0,0,1-1.793-.391.428.428,0,0,0-.612.081c-.184.2-.391.384-.583.575a.333.333,0,0,1-.524.007c-.214-.2-.421-.413-.627-.62a.355.355,0,0,1,.015-.553c.14-.14.28-.288.421-.428.31-.317.31-.339.059-.686a5.32,5.32,0,0,1-.789-1.431c-.14-.406-.1-.509.266-.716.273-.155.546-.31.826-.457.325-.17.421-.133.531.214a5.1,5.1,0,0,0,.863,1.6,2.138,2.138,0,0,0,.915.7.889.889,0,0,0,1.254-.952,2.545,2.545,0,0,0-.192-.73,14.362,14.362,0,0,1-.693-1.83,2.526,2.526,0,0,1,.693-2.715,2.663,2.663,0,0,1,3.113-.369c.457.214.457.221.812-.133.118-.118.236-.236.361-.354.273-.258.361-.258.634,0l.243.243c.561.561.561.561,0,1.129-.4.4-.4.4-.066.856a4.832,4.832,0,0,1,.612,1.136A.368.368,0,0,1,17.63,57.826Zm15.78-4.131c-.251.6-2.929,1.121-6.994-.575a15.622,15.622,0,0,1-3.209-1.778c-.03.037-.066.074-.1.111a2.274,2.274,0,1,1,.642-1.276,15.773,15.773,0,0,0,3.032,1.653c.4.162.775.31,1.144.435l-.044-3.2c.066.03.125.052.192.081a13.767,13.767,0,0,1,4.316,2.722l.044.044C33.4,52.875,33.492,53.5,33.411,53.694Z" transform="translate(0 -43.469)"/></svg>