<svg xmlns="http://www.w3.org/2000/svg" width="31.052" height="32.96" viewBox="0 0 31.052 32.96"><defs><style>.a{fill:#dcf4fe;}</style></defs><g transform="translate(-3.063 20.451) rotate(-65)"><path class="a" d="M696.257,273.955c7.668,3.155,12.163-2.843,11.89-7.5s-4.819-6.7-4.819-6.7-6.926-3.925-11.219,3.422C692.109,263.176,687.527,270.361,696.257,273.955Z" transform="translate(-690.908 -245.237)"/><path class="a" d="M691.643,253.309a2.107,2.107,0,0,1,3.049-.328,3.372,3.372,0,0,1,.954,2.077,5.21,5.21,0,0,1-.464,3.652,1.438,1.438,0,0,1-.88.626c-.781.182-2.309.087-3.15-2.973A3.2,3.2,0,0,1,691.643,253.309Z" transform="translate(-690.896 -246.598)"/><path class="a" d="M713.212,264.138a1.976,1.976,0,0,0-.736-1.943,2.809,2.809,0,0,0-3.044,0c-2.921,1.385-2.926,3-2.926,3s.188,2.853,4.346,1.463A3.176,3.176,0,0,0,713.212,264.138Z" transform="translate(-687.503 -244.57)"/><path class="a" d="M700.579,247.655s3.149-.29,3.523,3.5-1.2,7.858-3.98,7.464c0,0-4.126.195-3.1-6.7C697.021,251.919,697.576,247.509,700.579,247.655Z" transform="translate(-689.609 -247.65)"/><path class="a" d="M712.9,253.956s-1.516-2.776-4.873-.972-5.854,5.379-3.979,7.463c0,0,2.137,3.535,7.294-1.16C711.343,259.287,714.7,256.368,712.9,253.956Z" transform="translate(-688.18 -246.619)"/></g></svg>