<svg xmlns="http://www.w3.org/2000/svg" width="39.625" height="41.545" viewBox="0 0 39.625 41.545"><defs><style>.a{fill:#dcf4fe;}</style></defs><path class="a" d="M606.24,95.974c-9.865-6.668-17.93.463-18.9,7.09s4.829,10.826,4.829,10.826,8.6,7.531,16.77-1.553C608.941,112.337,617.474,103.564,606.24,95.974Z" transform="translate(-572.419 -93.304)"/><path class="a" d="M597.49,113.725a2.621,2.621,0,0,1-2.246.206c-1.04-.41-2.334-1.486-2.176-4.3a8.925,8.925,0,0,1,1.122-4.24,2.632,2.632,0,0,1,3.49-1.031c.956.537,1.9,1.822,2.085,4.738A4.553,4.553,0,0,1,597.49,113.725Z" transform="translate(-564.287 -78.297)"/><path class="a" d="M582.176,99.225a2.662,2.662,0,0,0,.218,2.325c.6.937,1.9,1.977,4.6,1.318a9.136,9.136,0,0,0,3.854-1.783,2.706,2.706,0,0,0-.271-4.355,6.756,6.756,0,0,0-4.283-.546A4.555,4.555,0,0,0,582.176,99.225Z" transform="translate(-579.717 -89.41)"/><path class="a" d="M590.708,119.622s-4.513-.508-3.936-5.951,3.976-10.7,7.763-9.34c0,0,5.862.923,2.416,10.328C596.952,114.658,594.888,120.7,590.708,119.622Z" transform="translate(-573.132 -78.206)"/><path class="a" d="M581.419,109.971s1.325,4.345,6.572,2.785,9.793-5.865,7.763-9.34c0,0-1.977-5.594-10.594-.489C585.16,102.927,579.595,106.06,581.419,109.971Z" transform="translate(-581.052 -82.864)"/></svg>