<svg xmlns="http://www.w3.org/2000/svg" width="536" height="333.5" viewBox="0 0 536 333.5"><defs><style>.a{fill:#51555c;opacity:0.36;}.b{fill:#b88d8c;}.c{fill:#ecdccf;}.aj,.ar,.d,.k,.z{mix-blend-mode:multiply;isolation:isolate;}.e{fill:#3a3d3d;}.f{fill:#cb9a9a;}.g{fill:#dca6a5;}.h{fill:#9f6664;}.i{fill:#fef8fb;}.j{fill:#161c1d;}.aj,.ar,.k,.z{fill:none;stroke:#475353;stroke-linecap:round;stroke-linejoin:round;}.k{stroke-width:0.648px;}.l{fill:#b5a99a;}.m{fill:#13000a;}.n{fill:#da6577;}.o{fill:#a23349;}.p{fill:#202627;}.q{fill:#384242;}.r{fill:#627070;}.s{fill:#798989;}.t{fill:#697878;}.u{fill:#a5b1b0;}.v{fill:#758585;}.w{fill:#5b6665;}.x{fill:#7f9090;}.y{fill:#414c4c;}.z{stroke-width:0.602px;}.aa{fill:#be5872;}.ab{fill:#475353;}.ac{fill:#282a2a;}.ad{fill:#b9afa6;}.ae{fill:#2c2f2e;}.af{fill:#202222;}.ag{fill:#303332;}.ah{fill:#2d302f;}.ai{fill:#121414;}.aj{stroke-width:0.516px;}.ak{fill:#b57a3a;}.al{fill:#da9c46;}.am{fill:#9b6932;}.an{fill:#cb8841;}.ao{fill:#ceb095;}.ap{fill:#b9863c;}.aq{fill:#715324;}.ar{stroke-width:0.644px;}</style></defs><g transform="translate(-139 -2043.5)"><path class="a" d="M751.855,1849.705s-40.5,16.377-47.441-36.028-9.257-49.13-33.556-80.791-35.87-69.873-11.571-102.627,15.042-30.57,54.384-65.506,137.7-17.468,175.88-6.551,72.9,12.01,118.025,6.551,109.925,18.56,115.711,41.487,84.469,74.241,49.755,110.269-50.913,89.525-49.755,114.636-24.3,12.01-100.668,34.937-138.852,6.551-163.152-6.551S751.855,1849.705,751.855,1849.705Z" transform="translate(-506.851 499.451)"/><g transform="translate(-605.915 1993.206)"><g transform="translate(860.518 154.761)"><g transform="translate(28.522 180.461)"><rect class="b" width="16.414" height="28.867" transform="translate(0.877)"/><path class="c" d="M883.668,280h11.184c3.594-2.327,3.639-7.216,2.167-9.769-1.291-2.235-4.44-2.353-5.134-.172a2.622,2.622,0,0,0-3.044-2.17c-2.815.166-2.881,2.394-2.885,2.29-.068-2.034-4.483-2.3-5.435-.15C878.114,275.466,881.925,280,883.668,280Z" transform="translate(-879.746 -244.8)"/><g class="d" transform="translate(4.512 25.378)"><path class="e" d="M884.486,269.429a16.469,16.469,0,0,0-.786,4.966,12.415,12.415,0,0,0,1.138,4.855,6.313,6.313,0,0,1-1.505-2.189,7.3,7.3,0,0,1-.544-2.651A7.668,7.668,0,0,1,884.486,269.429Z" transform="translate(-882.788 -269.429)"/></g><g class="d" transform="translate(11.789 25.251)"><path class="e" d="M888.046,269.343a7.835,7.835,0,0,1,1.7,5.045,7.457,7.457,0,0,1-.543,2.679,6.4,6.4,0,0,1-1.509,2.225,12.741,12.741,0,0,0,1.133-4.919A17.02,17.02,0,0,0,888.046,269.343Z" transform="translate(-887.694 -269.343)"/></g></g><g transform="translate(47.34 180.461)"><rect class="b" width="16.419" height="28.867" transform="translate(0.877)"/><path class="c" d="M896.355,280h11.183c3.6-2.327,3.634-7.216,2.164-9.769-1.285-2.235-4.437-2.353-5.131-.172a2.631,2.631,0,0,0-3.048-2.17c-2.811.166-2.88,2.394-2.88,2.29-.064-2.034-4.48-2.3-5.432-.15C890.8,275.466,894.615,280,896.355,280Z" transform="translate(-892.433 -244.8)"/><g class="d" transform="translate(4.512 25.378)"><path class="e" d="M897.172,269.429a16.417,16.417,0,0,0-.782,4.966,12.384,12.384,0,0,0,1.135,4.855,6.348,6.348,0,0,1-1.5-2.189,7.312,7.312,0,0,1-.546-2.651A7.686,7.686,0,0,1,897.172,269.429Z" transform="translate(-895.475 -269.429)"/></g><g class="d" transform="translate(11.784 25.251)"><path class="e" d="M900.734,269.343a7.822,7.822,0,0,1,1.7,5.046,7.421,7.421,0,0,1-.544,2.679,6.445,6.445,0,0,1-1.512,2.223,12.714,12.714,0,0,0,1.138-4.919A16.871,16.871,0,0,0,900.734,269.343Z" transform="translate(-900.377 -269.343)"/></g></g><g transform="translate(0 137.732)"><path class="b" d="M890.319,223.744c-1.511-.136-11.757-2.486-21.335,11.442-7.823,11.374-10.6,15.631-6.742,18.294s9.326,6.092,12.464.141,8.108-21.765,16.437-26.663C893.706,225.454,891.832,223.879,890.319,223.744Z" transform="translate(-860.518 -223.513)"/><path class="c" d="M873.224,244.016c-1.326-.546-3.011.365-3.762,2.026-.016.037,1.154-2.814-1.191-3.7s-3.683,1.741-3.644,1.657c.749-1.667.277-3.462-1.056-4.009a2.622,2.622,0,0,0-2.67.6c-.776,2.308-.383,3.814,1.341,5,3.817,2.63,9.185,6,12.346.352A2.35,2.35,0,0,0,873.224,244.016Z" transform="translate(-860.517 -215.624)"/><g transform="translate(62.16)"><path class="b" d="M904.513,223.744c1.512-.136,11.757-2.486,21.333,11.442,7.822,11.374,10.6,15.631,6.743,18.294s-9.323,6.092-12.463.141-8.108-21.765-16.44-26.663C901.129,225.454,903,223.879,904.513,223.744Z" transform="translate(-902.424 -223.513)"/><path class="c" d="M915.8,244.016c1.326-.546,3.014.365,3.76,2.026.021.037-1.149-2.814,1.194-3.7s3.68,1.741,3.64,1.657c-.749-1.667-.276-3.462,1.061-4.009a2.626,2.626,0,0,1,2.671.6c.773,2.308.38,3.814-1.345,5-3.818,2.63-9.188,6-12.346.352A2.354,2.354,0,0,1,915.8,244.016Z" transform="translate(-896.617 -215.624)"/></g></g><path class="f" d="M932.264,255.181c0,15.974-13.522,28.92-30.2,28.92s-30.2-12.946-30.2-28.92,9.572-42.944,30.2-42.944S932.264,239.21,932.264,255.181Z" transform="translate(-855.036 -91.232)"/><path class="c" d="M915.5,253.568c0,11.134-7.862,20.16-17.557,20.16s-17.555-9.026-17.555-20.16,5.562-29.945,17.555-29.945S915.5,242.433,915.5,253.568Z" transform="translate(-850.916 -85.729)"/><g transform="translate(2.215)"><path class="g" d="M937.2,212.284c2.9-16.234,13.175-77.17-1.639-81.449s-19.742,71.5-19.742,71.5c-1.587-.492-5.8-.709-10.214-.716s-8.62.224-10.211.716c0,0-4.925-75.783-19.737-71.5s-4.543,65.216-1.638,81.449c0,0-17.52,15.384-10.241,38.927,5.806,18.806,25.408,18.585,41.827,18.564,16.423.021,36.022.242,41.839-18.564C954.715,227.668,937.2,212.284,937.2,212.284Z" transform="translate(-862.012 -130.66)"/><g transform="translate(8.976 7.552)"><g transform="translate(47.526)"><path class="h" d="M916.374,135.776c-11.223-1.414-14.292,58.051-16.271,64.91,9.929,2.694,15.462,6.5,15.462,6.5C918.486,193.884,927.6,137.187,916.374,135.776Z" transform="translate(-900.103 -135.751)"/></g><g transform="translate(0 0)"><path class="h" d="M873.516,135.776c-11.224,1.411-2.112,58.108.807,71.406,0,0,5.539-3.8,15.458-6.5C887.809,193.827,884.739,134.362,873.516,135.776Z" transform="translate(-868.063 -135.751)"/></g></g></g><g transform="translate(16.662 105.228)"><path class="i" d="M881.528,207.825a4.239,4.239,0,1,1-4.232-4.051A4.147,4.147,0,0,1,881.528,207.825Z" transform="translate(-871.119 -200.55)"/><path class="j" d="M876.617,205.412a2.147,2.147,0,0,0-2.3,2.207,2.306,2.306,0,1,0,2.3-2.207Zm-1.173,3.113a.411.411,0,1,1,0-.82.41.41,0,1,1,0,.82Zm.4-1a.808.808,0,1,1,.847-.808A.829.829,0,0,1,875.842,207.524Z" transform="translate(-870.512 -199.759)"/><path class="k" d="M871.751,204.547c.393-2.215,2.7-3.575,5.4-2.655" transform="translate(-871.751 -201.601)"/><g transform="translate(47.9)"><path class="i" d="M904.043,207.825a4.237,4.237,0,1,0,4.23-4.051A4.143,4.143,0,0,0,904.043,207.825Z" transform="translate(-904.043 -200.55)"/><path class="j" d="M905.387,207.619a2.309,2.309,0,0,0,4.613,0,2.146,2.146,0,0,0-2.3-2.207A2.26,2.26,0,0,0,905.387,207.619Zm3.054.5a.431.431,0,0,1,.862,0,.432.432,0,0,1-.862,0Zm-.817-1.4a.845.845,0,1,1,.844.808A.825.825,0,0,1,907.624,206.716Z" transform="translate(-903.393 -199.759)"/><path class="k" d="M912.818,204.547c-.395-2.215-2.7-3.575-5.4-2.655" transform="translate(-902.413 -201.601)"/></g></g><g transform="translate(31.443 120.527)"><path class="l" d="M892.5,219.482a12.691,12.691,0,0,1-3.372.936,4.1,4.1,0,0,0,6.868.013A12.779,12.779,0,0,1,892.5,219.482Z" transform="translate(-878.133 -208.258)"/><path class="c" d="M903.23,211.992c-3.5.34-4.623,3.842-7.056,3.842-2.5,0-3.2-3.422-7.23-3.842-4.916-.518-7.228,2.781-7.228,6.089s3.219,5.987,7.228,6.08h0a15.276,15.276,0,0,0,7.141-1.032,15.3,15.3,0,0,0,7.145,1.032h0c4.014-.093,7.23-2.774,7.23-6.08S908.156,211.511,903.23,211.992Z" transform="translate(-881.716 -211.904)"/><g transform="translate(10.03)"><g transform="translate(3.969 5.021)"><path class="m" d="M891.523,221.5a13.206,13.206,0,0,1,0-6.2,13.211,13.211,0,0,1,0,6.2Z" transform="translate(-891.154 -215.3)"/></g><path class="n" d="M897.743,213.538c0,1.535-2.646,3.946-4.852,3.946s-4.413-2.41-4.413-3.946h0c0-1.538,1.3-1.623,2.9-1.623h3.456c1.6,0,2.906.085,2.906,1.623Z" transform="translate(-888.478 -211.915)"/></g><g transform="translate(3.069 2.824)"><path class="m" d="M885.135,214.319a.373.373,0,0,1-.38.365h0a.374.374,0,0,1-.38-.365h0a.374.374,0,0,1,.38-.362h0a.373.373,0,0,1,.38.362Z" transform="translate(-883.499 -213.752)"/><path class="m" d="M886.925,214.182a.368.368,0,0,1-.377.362h0a.372.372,0,0,1-.383-.362h0a.371.371,0,0,1,.383-.363h0a.367.367,0,0,1,.377.363Z" transform="translate(-882.634 -213.819)"/><path class="m" d="M886.083,215.437a.37.37,0,0,1-.377.363h0a.373.373,0,0,1-.383-.363h0a.374.374,0,0,1,.383-.366h0a.37.37,0,0,1,.377.366Z" transform="translate(-883.041 -213.214)"/><path class="m" d="M885.571,216.769a.372.372,0,0,1-.38.365h0a.377.377,0,0,1-.38-.365h0a.377.377,0,0,1,.38-.363h0a.373.373,0,0,1,.38.363Z" transform="translate(-883.288 -212.569)"/><path class="m" d="M887.7,216.581a.369.369,0,0,1-.372.362h0a.378.378,0,0,1-.39-.362h0a.381.381,0,0,1,.39-.368h0a.372.372,0,0,1,.372.368Z" transform="translate(-882.259 -212.662)"/><path class="m" d="M884.549,215.925a.378.378,0,0,1-.381.368h0a.378.378,0,0,1-.383-.368h0a.376.376,0,0,1,.383-.362h0a.375.375,0,0,1,.381.362Z" transform="translate(-883.785 -212.976)"/><path class="m" d="M887.909,215.235a.372.372,0,0,1-.381.36h0a.37.37,0,0,1-.378-.36h0a.371.371,0,0,1,.378-.366h0a.373.373,0,0,1,.381.366Z" transform="translate(-882.159 -213.312)"/></g><g transform="translate(19.836 2.824)"><path class="m" d="M897.861,214.319a.369.369,0,0,0,.381.365h0a.37.37,0,0,0,.377-.365h0a.371.371,0,0,0-.377-.362h0a.37.37,0,0,0-.381.362Z" transform="translate(-893.749 -213.752)"/><path class="m" d="M896.07,214.182a.37.37,0,0,0,.38.362h0a.368.368,0,0,0,.378-.362h0a.367.367,0,0,0-.378-.363h0a.37.37,0,0,0-.38.363Z" transform="translate(-894.615 -213.819)"/><path class="m" d="M896.909,215.437a.375.375,0,0,0,.381.363h0a.372.372,0,0,0,.38-.363h0a.372.372,0,0,0-.38-.366h0a.375.375,0,0,0-.381.366Z" transform="translate(-894.209 -213.214)"/><path class="m" d="M897.422,216.769a.374.374,0,0,0,.383.365h0a.376.376,0,0,0,.383-.365h0a.377.377,0,0,0-.383-.363h0a.375.375,0,0,0-.383.363Z" transform="translate(-893.961 -212.569)"/><path class="m" d="M895.291,216.581a.375.375,0,0,0,.383.362h0a.372.372,0,0,0,.378-.362h0a.375.375,0,0,0-.378-.368h0a.378.378,0,0,0-.383.368Z" transform="translate(-894.991 -212.662)"/><path class="m" d="M898.449,215.925a.376.376,0,0,0,.383.368h0a.375.375,0,0,0,.377-.368h0a.372.372,0,0,0-.377-.362h0a.374.374,0,0,0-.383.362Z" transform="translate(-893.465 -212.976)"/><path class="m" d="M895.089,215.235a.37.37,0,0,0,.378.36h0a.371.371,0,0,0,.38-.36h0a.372.372,0,0,0-.38-.366h0a.371.371,0,0,0-.378.366Z" transform="translate(-895.089 -213.312)"/></g><path class="o" d="M892.152,219.482a11.474,11.474,0,0,1-2.3.74,2.947,2.947,0,0,0,4.717.025A12.214,12.214,0,0,1,892.152,219.482Z" transform="translate(-877.783 -208.258)"/></g></g><g transform="translate(878.092 80.794)"><g transform="translate(145.251 185.4)"><path class="p" d="M981.353,219.06l-.51-1.068s2.222,1.813,7.055,1.633,6.286,1.822,6.286,1.822.271-4.465-2.766-7.412a4.389,4.389,0,0,1,1.663.553,10.536,10.536,0,0,0-5.082-6.5,3.748,3.748,0,0,1,2.329.365s-6.8-5.134-11.933,1.19C978.394,209.645,974.577,216.215,981.353,219.06Z" transform="translate(-966.888 -205.442)"/><path class="q" d="M985.192,212.719a2.055,2.055,0,0,1-2.6-1.173.543.543,0,0,0-.411-.332,4.66,4.66,0,0,0-3.532.973,4.756,4.756,0,0,1-4.2.676c-2.662-.856-3.846-3.909-4.057-4.514a1.918,1.918,0,0,1,1.287-2.467,2.061,2.061,0,0,1,2.565,1.221h0a3.93,3.93,0,0,0,1.507,2.077c.171.053.449-.11.613-.214a8.631,8.631,0,0,1,7.083-1.458,4.513,4.513,0,0,1,2.962,2.719A1.923,1.923,0,0,1,985.192,212.719Z" transform="translate(-970.288 -205.783)"/></g><g transform="translate(45.051 120.407)"><path class="r" d="M947.088,162.312c-2.253-.206-17.5-3.7-31.752,17.024C903.7,196.26,899.558,202.6,905.3,206.557s13.876,9.06,18.549.214S935.916,174.379,948.3,167.1C952.12,164.85,949.331,162.514,947.088,162.312Z" transform="translate(-902.737 -161.967)"/><path class="s" d="M921.648,192.473c-1.982-.811-4.489.538-5.6,3.022-.025.053,1.706-4.187-1.768-5.506s-5.479,2.587-5.429,2.465c1.117-2.486.4-5.152-1.569-5.97a3.923,3.923,0,0,0-3.974.9c-1.158,3.432-.564,5.677,1.991,7.439,5.68,3.912,13.673,8.93,18.372.525A3.519,3.519,0,0,0,921.648,192.473Z" transform="translate(-902.735 -150.229)"/><g transform="translate(92.49)"><path class="r" d="M968.2,162.312c2.244-.206,17.493-3.7,31.745,17.024,11.64,16.923,15.777,23.261,10.033,27.22s-13.88,9.06-18.543.214-12.073-32.391-24.457-39.673C963.16,164.85,965.95,162.514,968.2,162.312Z" transform="translate(-965.09 -161.967)"/><path class="s" d="M984.992,192.473c1.98-.811,4.483.538,5.6,3.022.019.053-1.71-4.187,1.776-5.506s5.475,2.587,5.417,2.465c-1.108-2.486-.409-5.152,1.568-5.97a3.932,3.932,0,0,1,3.981.9c1.153,3.432.567,5.677-2,7.439-5.675,3.912-13.672,8.93-18.364.525A3.473,3.473,0,0,1,984.992,192.473Z" transform="translate(-956.448 -150.229)"/></g></g><g transform="translate(89.313 183.987)"><path class="s" d="M937.114,237.017h15.215c2.977,0,5.024-2.31,4.677-7.587a4.1,4.1,0,0,0-3.476-1.994c-2.416.074-4.3,2.591-4.192,5.614,0,.062-.35-5.037-4.535-4.788s-4.285,5.117-4.293,4.971c-.1-3.032-2.137-5.423-4.548-5.352a4.1,4.1,0,0,0-3.386,2.29v3.364C932.577,236.24,934.516,237.017,937.114,237.017Z" transform="translate(-932.577 -193.906)"/><path class="r" d="M932.577,204.831V241.1a4.1,4.1,0,0,1,3.386-2.29c2.332-.071,4.3,2.166,4.517,5.046l.062.021c.113-1.01.742-4.481,4.262-4.686,4.185-.249,4.539,4.85,4.535,4.788-.107-3.023,1.775-5.54,4.192-5.614a4.1,4.1,0,0,1,3.476,1.994V204.831Z" transform="translate(-932.577 -204.831)"/><path class="s" d="M955.975,237.017H971.2c2.971,0,5.029-2.31,4.683-7.587a4.13,4.13,0,0,0-3.483-1.994c-2.416.074-4.293,2.591-4.2,5.614.007.062-.34-5.037-4.521-4.788s-4.3,5.117-4.3,4.971c-.092-3.032-2.134-5.423-4.548-5.352a4.084,4.084,0,0,0-3.382,2.29v3.364C951.445,236.24,953.379,237.017,955.975,237.017Z" transform="translate(-923.458 -193.906)"/><path class="r" d="M951.445,204.831V241.1a4.084,4.084,0,0,1,3.382-2.29c2.332-.071,4.3,2.166,4.521,5.046l.059.021c.122-1.01.745-4.481,4.271-4.686,4.181-.249,4.529,4.85,4.521,4.788-.1-3.023,1.78-5.54,4.2-5.614a4.13,4.13,0,0,1,3.483,1.994V204.831Z" transform="translate(-923.458 -204.831)"/></g><path class="t" d="M1009.847,209.088c0,23.766-20.121,43.031-44.939,43.031s-44.948-19.265-44.948-43.031,14.24-63.9,44.948-63.9S1009.847,185.325,1009.847,209.088Z" transform="translate(-849.362 -49.671)"/><path class="u" d="M991.806,206.69c0,16.564-14.034,30-31.332,30s-31.337-13.433-31.337-30,9.925-44.556,31.337-44.556S991.806,190.114,991.806,206.69Z" transform="translate(-844.927 -41.48)"/><path class="v" d="M1027.231,83.078C997.652,74.4,978.8,92.315,966.763,105.46c23.939,10.127,30.889,35.6,30.889,58.476a31.308,31.308,0,0,1-6.356,19.027C1047.539,208.329,1088.02,100.9,1027.231,83.078Z" transform="translate(-826.741 -80.794)"/><path class="w" d="M1015.9,92.144c-16.536-4.359-31.838,4.085-42.923,13.627,16.545,12.119,21.667,33.633,21.667,53.248a31.1,31.1,0,0,1-5.156,17.291C1036.172,195.34,1066.765,105.565,1015.9,92.144Z" transform="translate(-823.736 -75.878)"/><path class="v" d="M902.642,83.078c29.582-8.677,48.439,9.237,60.469,22.382-23.934,10.127-30.887,35.6-30.887,58.476a31.333,31.333,0,0,0,6.352,19.027C882.331,208.329,841.862,100.9,902.642,83.078Z" transform="translate(-872.366 -80.794)"/><path class="w" d="M906.961,92.144c16.541-4.359,31.837,4.085,42.929,13.627-16.552,12.119-21.668,33.633-21.668,53.248a31.122,31.122,0,0,0,5.153,17.291C886.7,195.34,856.1,105.565,906.961,92.144Z" transform="translate(-868.363 -75.878)"/><path class="x" d="M1050.555,201.333c.54-1.881,1.307-6.374-1.109-7.675-2.827-1.529-3.471,1.012-4.891,1.28-7.227,1.377-14.936-7.417-25-17.549a17.315,17.315,0,0,0,1.292-2.329,49.785,49.785,0,0,0,4.2-10.382c7.522-27.048,8.359-70.933-55.5-70.933s-64.072,43.088-55.513,70.933c6.9,22.44,26.893,35.331,43.614,39.648,2.007,3.455,6.193,7.669,14.583,6.967,8.2-.681,11.632-4.781,13.075-8.029a64.392,64.392,0,0,0,11.46-5.3,37.486,37.486,0,0,1,7.54-1.365c20.838-1.658,18.866,17.122,41.05,7.865,0,0,.883,3.474,3.456,2.207C1051.868,205.155,1050.007,203.215,1050.555,201.333Z" transform="translate(-854.133 -74.534)"/><g transform="translate(75.22 75.889)"><path class="y" d="M951.775,167.336a42.642,42.642,0,0,1-6.541-1.156c.782,2.068,3.164,6.245,9.576,5.706,4.813-.4,6.93-2.725,7.869-4.667A42.67,42.67,0,0,1,951.775,167.336Z" transform="translate(-912.366 -115.413)"/><path class="i" d="M934.667,139.335a5.025,5.025,0,1,1-5.021-4.8A4.919,4.919,0,0,1,934.667,139.335Z" transform="translate(-922.327 -130.708)"/><path class="j" d="M928.849,136.475a2.546,2.546,0,0,0-2.737,2.615,2.733,2.733,0,1,0,2.737-2.615Zm-1.4,3.689a.488.488,0,1,1,0-.975.488.488,0,1,1,0,.975Zm.482-1.188a.96.96,0,1,1,1-.952A.976.976,0,0,1,927.927,138.976Z" transform="translate(-921.609 -129.771)"/><path class="z" d="M923.076,135.45c.467-2.624,3.2-4.241,6.406-3.149" transform="translate(-923.076 -131.955)"/><g transform="translate(72.573)"><path class="i" d="M972,139.335a5.023,5.023,0,1,0,5.018-4.8A4.922,4.922,0,0,0,972,139.335Z" transform="translate(-972.002 -130.708)"/><path class="j" d="M973.6,139.09a2.731,2.731,0,0,0,5.457,0,2.544,2.544,0,0,0-2.729-2.615A2.673,2.673,0,0,0,973.6,139.09Zm3.616.589a.511.511,0,1,1,.51.485A.5.5,0,0,1,977.217,139.679Zm-.97-1.655a1,1,0,1,1,1,.952A.985.985,0,0,1,976.247,138.024Z" transform="translate(-971.229 -129.771)"/><path class="z" d="M982.406,135.45c-.463-2.624-3.2-4.241-6.4-3.149" transform="translate(-970.068 -131.955)"/></g><path class="aa" d="M953.252,168.448a5.892,5.892,0,0,0-6.148.949,9.224,9.224,0,0,0,6.8,1.8,10.8,10.8,0,0,0,5.245-1.673C956,165.943,953.252,168.448,953.252,168.448Z" transform="translate(-911.463 -114.728)"/><g transform="translate(44.568 10.439)"><path class="ab" d="M953.122,142.455a24.286,24.286,0,0,1,9.806-3.324,20.134,20.134,0,0,1,5.25.067,13.245,13.245,0,0,1,4.919,1.725,27.6,27.6,0,0,0-10.02-.494A71.284,71.284,0,0,0,953.122,142.455Z" transform="translate(-953.122 -138.992)"/></g><g transform="translate(41.766 7.103)"><path class="ab" d="M951.233,137.409a29.051,29.051,0,0,1,9.14-.525,19.509,19.509,0,0,1,4.54.966c1.428.518,3.02,1.353,3.625,2.836a7.255,7.255,0,0,0-3.911-1.856,38.258,38.258,0,0,0-4.388-.644C957.276,137.877,954.281,137.75,951.233,137.409Z" transform="translate(-951.233 -136.744)"/></g><g transform="translate(14.093 12.107)"><path class="ab" d="M932.577,164.742a25.037,25.037,0,0,0,9.435,9.891,34.794,34.794,0,0,0,12.918,4.569,60.933,60.933,0,0,0,13.756.507,46.923,46.923,0,0,0,13.283-3.432,39.829,39.829,0,0,1,13.73-2.769,24.775,24.775,0,0,1,7.034.869,24.364,24.364,0,0,1,6.454,2.935c3.959,2.489,7.446,5.733,11.9,6.445,4.4.755,8.947-.583,13.142-2.295l.666-.271.2.7c.24.862.81,1.819,1.473,1.971a1.572,1.572,0,0,0,1.105-.175,3.382,3.382,0,0,0,1.1-.8c.544-.581.347-1.483.215-2.652a4.457,4.457,0,0,1,.2-1.8,15.379,15.379,0,0,0,.309-1.51,10.012,10.012,0,0,0,.053-3.023,2.761,2.761,0,0,0-1.347-2.182,1.979,1.979,0,0,0-2.394.07,14.753,14.753,0,0,1-1.319,1.043,2.433,2.433,0,0,1-.978.306,5.968,5.968,0,0,1-.851.079,12.253,12.253,0,0,1-6.418-1.9,36.923,36.923,0,0,1-5.313-3.821c-3.312-2.808-6.347-5.868-9.434-8.86-6.153-5.938-12.435-12.01-20.2-15.673a23.887,23.887,0,0,0-12.407-2.4,41.467,41.467,0,0,0-6.291,1.295,29.934,29.934,0,0,0-6.043,2.209,30.018,30.018,0,0,1,6-2.358,41.224,41.224,0,0,1,6.3-1.454,24.347,24.347,0,0,1,12.684,2.157,49.9,49.9,0,0,1,10.95,6.929c3.379,2.7,6.536,5.647,9.658,8.608s6.2,5.966,9.486,8.694a36.1,36.1,0,0,0,5.162,3.685,11.191,11.191,0,0,0,5.792,1.724,4.639,4.639,0,0,0,.754-.074,1.134,1.134,0,0,0,.553-.162c.349-.2.722-.6,1.2-.969a3.015,3.015,0,0,1,1.832-.684,3.973,3.973,0,0,1,1.811.489,3.523,3.523,0,0,1,1.4,1.322,5.468,5.468,0,0,1,.59,1.721,11.131,11.131,0,0,1-.037,3.4,16.21,16.21,0,0,1-.331,1.651,3.078,3.078,0,0,0-.153,1.378c.042.491.16,1.029.16,1.66a2.867,2.867,0,0,1-.642,1.887,4.537,4.537,0,0,1-1.477,1.114,2.824,2.824,0,0,1-2.013.283,2.924,2.924,0,0,1-1.6-1.21,5.568,5.568,0,0,1-.774-1.663l.86.429c-4.281,1.765-9.023,3.238-13.86,2.385a18.035,18.035,0,0,1-6.589-2.76c-1.986-1.273-3.806-2.7-5.733-3.913a22.4,22.4,0,0,0-12.831-3.682,39.7,39.7,0,0,0-13.381,2.615c-2.176.759-4.374,1.566-6.644,2.146a38.635,38.635,0,0,1-6.926,1.144,61.811,61.811,0,0,1-13.937-.712,35.113,35.113,0,0,1-12.99-4.941A25.221,25.221,0,0,1,932.577,164.742Z" transform="translate(-932.577 -140.117)"/></g></g></g><g transform="translate(967.364 237.71)"><g transform="translate(23.353 100.597)"><rect class="ac" width="13.44" height="23.638" transform="translate(0.719)"/><path class="ad" d="M951.506,277.065h9.161c2.939-1.908,2.974-5.908,1.768-8-1.052-1.832-3.636-1.924-4.2-.142a2.156,2.156,0,0,0-2.5-1.776c-2.3.135-2.351,1.958-2.354,1.878-.055-1.669-3.67-1.884-4.452-.129C946.955,273.351,950.079,277.065,951.506,277.065Z" transform="translate(-948.293 -248.241)"/><g class="d" transform="translate(3.697 20.786)"><path class="e" d="M952.176,268.413a13.216,13.216,0,0,0-.642,4.064,9.349,9.349,0,0,0,.249,2,13.123,13.123,0,0,0,.685,1.974,5.552,5.552,0,0,1-1.682-3.961,6.494,6.494,0,0,1,.344-2.176A5.6,5.6,0,0,1,952.176,268.413Z" transform="translate(-950.786 -268.413)"/></g><g class="d" transform="translate(9.652 20.675)"><path class="e" d="M955.091,268.338a5.717,5.717,0,0,1,1.044,1.931,6.683,6.683,0,0,1,.346,2.2,5.68,5.68,0,0,1-1.681,4.018,13.655,13.655,0,0,0,.681-2,9.7,9.7,0,0,0,.248-2.028A13.76,13.76,0,0,0,955.091,268.338Z" transform="translate(-954.8 -268.338)"/></g></g><g transform="translate(38.762 100.597)"><rect class="ac" width="13.441" height="23.638" transform="translate(0.718)"/><path class="ad" d="M961.891,277.065h9.156c2.946-1.908,2.982-5.908,1.777-8-1.056-1.832-3.637-1.924-4.2-.142a2.15,2.15,0,0,0-2.493-1.776c-2.308.135-2.358,1.958-2.361,1.878-.055-1.669-3.668-1.884-4.449-.129C957.343,273.351,960.465,277.065,961.891,277.065Z" transform="translate(-958.681 -248.241)"/><g class="d" transform="translate(3.695 20.786)"><path class="e" d="M962.562,268.413a13.255,13.255,0,0,0-.641,4.064,9.353,9.353,0,0,0,.249,2,13.124,13.124,0,0,0,.682,1.974,5.554,5.554,0,0,1-1.681-3.961,6.523,6.523,0,0,1,.346-2.176A5.6,5.6,0,0,1,962.562,268.413Z" transform="translate(-961.172 -268.413)"/></g><g class="d" transform="translate(9.65 20.675)"><path class="e" d="M965.476,268.338a5.74,5.74,0,0,1,1.046,1.93,6.689,6.689,0,0,1,.346,2.2,5.675,5.675,0,0,1-1.681,4.018,13.237,13.237,0,0,0,.681-2,9.673,9.673,0,0,0,.248-2.026A13.747,13.747,0,0,0,965.476,268.338Z" transform="translate(-965.187 -268.338)"/></g></g><g transform="translate(0 65.615)"><path class="ae" d="M956.952,231.006c-1.237-.113-9.627-2.037-17.469,9.369-6.4,9.312-8.683,12.8-5.522,14.977s7.636,4.985,10.2.116,6.642-17.818,13.464-21.83C959.72,232.4,958.19,231.114,956.952,231.006Z" transform="translate(-932.549 -230.816)"/><path class="ad" d="M942.952,247.605a2.57,2.57,0,0,0-3.082,1.66c-.012.028.943-2.307-.972-3.029s-3.016,1.423-2.982,1.351c.608-1.363.226-2.83-.865-3.281a2.158,2.158,0,0,0-2.188.489c-.635,1.9-.31,3.124,1.095,4.1,3.122,2.151,7.526,4.91,10.107.289A1.907,1.907,0,0,0,942.952,247.605Z" transform="translate(-932.547 -224.358)"/><g transform="translate(50.895)"><path class="ae" d="M968.574,231.006c1.233-.113,9.624-2.037,17.468,9.369,6.4,9.312,8.68,12.8,5.521,14.977s-7.638,4.985-10.2.116-6.642-17.818-13.461-21.83C965.8,232.4,967.336,231.114,968.574,231.006Z" transform="translate(-966.861 -230.816)"/><path class="ad" d="M977.814,247.605a2.565,2.565,0,0,1,3.078,1.66c.015.028-.942-2.307.974-3.029s3.017,1.423,2.986,1.351c-.611-1.363-.225-2.83.866-3.281a2.16,2.16,0,0,1,2.188.489c.635,1.9.307,3.124-1.1,4.1-3.122,2.151-7.528,4.91-10.109.289A1.917,1.917,0,0,1,977.814,247.605Z" transform="translate(-962.106 -224.358)"/></g></g><g transform="translate(45.358 41.557)"><path class="af" d="M1022.946,216.788a3.449,3.449,0,0,1-.03,3.723,3.533,3.533,0,0,1-4.751,1.074c-1.077-.225-4.83.875-7.4,4.1-3.053,3.818-.983,8.124.18,14.4,8.875,47.821-42.5,35.871-42.5,35.871a3.564,3.564,0,0,1-4.836-1.323,3.443,3.443,0,0,1,1.273-4.754c.693-.392,47.076,8.244,38.342-27.906-2.427-10.053-2.707-16.643,3.892-22.71,4.106-3.79,10.75-6.165,14.738-3.584A3.577,3.577,0,0,1,1022.946,216.788Z" transform="translate(-963.128 -214.597)"/></g><path class="ag" d="M991.3,256.749c0,13.073-11.072,23.675-24.732,23.675s-24.73-10.6-24.73-23.675c0-10.569,5.116-27.014,15.987-32.943a18.009,18.009,0,0,1,8.743-2.224C983.461,221.582,991.3,243.67,991.3,256.749Z" transform="translate(-928.061 -169.664)"/><path class="c" d="M977.568,255.424c0,9.118-6.436,16.508-14.376,16.508s-14.376-7.39-14.376-16.508,4.555-24.518,14.376-24.518S977.568,246.3,977.568,255.424Z" transform="translate(-924.688 -165.158)"/><path class="e" d="M1005.819,227.348c-3.271,10.95-12.044,23.414-35.466,23.414s-33.2-11.881-35.463-23.414-3.182-35.991,35.463-35.991S1009.084,216.4,1005.819,227.348Z" transform="translate(-931.849 -184.273)"/><g transform="translate(27.146 49.9)"><path class="l" d="M959.161,227.354a8.614,8.614,0,0,1-2.6.838,2.927,2.927,0,0,0,5.294.015A8.679,8.679,0,0,1,959.161,227.354Z" transform="translate(-948.09 -216.775)"/><path class="c" d="M967.423,220.59h-11c-3.817,0-5.57,2.508-5.57,5.487a5.6,5.6,0,0,0,5.57,5.475v0a16.687,16.687,0,0,1,11,0v0a5.6,5.6,0,0,0,5.565-5.475C972.989,223.1,971.244,220.59,967.423,220.59Z" transform="translate(-950.85 -220.044)"/><g transform="translate(7.73)"><g transform="translate(3.033 3.606)"><path class="m" d="M958.415,229.626a18.958,18.958,0,0,1-.309-3.487,18.686,18.686,0,0,1,.309-3.486,18.588,18.588,0,0,1,.308,3.486A18.841,18.841,0,0,1,958.415,229.626Z" transform="translate(-958.106 -222.653)"/></g><path class="n" d="M963.2,221.472c0,1.185-2.038,3.042-3.74,3.042a3.8,3.8,0,0,1-3.4-3.042h0c0-1.181,1-1.25,2.237-1.25h2.663c1.233,0,2.235.07,2.235,1.25Z" transform="translate(-956.061 -220.222)"/></g><g transform="translate(2.369 3.56)"><path class="m" d="M953.487,223.008a.287.287,0,0,1-.292.282h0a.286.286,0,0,1-.294-.282h0a.285.285,0,0,1,.294-.279h0a.285.285,0,0,1,.292.279Z" transform="translate(-952.228 -222.57)"/><path class="m" d="M954.864,222.9a.284.284,0,0,1-.289.277h0a.29.29,0,0,1-.3-.277h0a.292.292,0,0,1,.3-.282h0a.287.287,0,0,1,.289.282Z" transform="translate(-951.563 -222.622)"/><path class="m" d="M954.218,223.868a.285.285,0,0,1-.3.277h0a.283.283,0,0,1-.288-.277h0a.285.285,0,0,1,.288-.28h0a.286.286,0,0,1,.3.28Z" transform="translate(-951.873 -222.155)"/><path class="m" d="M953.827,224.895a.293.293,0,0,1-.3.285h0a.292.292,0,0,1-.294-.285h0a.286.286,0,0,1,.294-.279h0a.287.287,0,0,1,.3.279Z" transform="translate(-952.065 -221.658)"/><path class="m" d="M955.465,224.751a.287.287,0,0,1-.292.277h0a.289.289,0,0,1-.3-.277h0a.292.292,0,0,1,.3-.285h0a.29.29,0,0,1,.292.285Z" transform="translate(-951.272 -221.731)"/><path class="m" d="M953.033,224.249a.286.286,0,0,1-.292.277h0a.286.286,0,0,1-.294-.277h0a.289.289,0,0,1,.294-.285h0a.288.288,0,0,1,.292.285Z" transform="translate(-952.447 -221.973)"/><path class="m" d="M955.621,223.713a.282.282,0,0,1-.291.277h0a.283.283,0,0,1-.294-.277h0a.285.285,0,0,1,.294-.282h0a.284.284,0,0,1,.291.282Z" transform="translate(-951.195 -222.231)"/></g><g transform="translate(15.28 3.56)"><path class="m" d="M963.288,223.008a.29.29,0,0,0,.3.282h0a.289.289,0,0,0,.292-.282h0a.287.287,0,0,0-.292-.279h0a.289.289,0,0,0-.3.279Z" transform="translate(-960.118 -222.57)"/><path class="m" d="M961.908,222.9a.287.287,0,0,0,.291.277h0a.285.285,0,0,0,.3-.277h0a.288.288,0,0,0-.3-.282h0a.289.289,0,0,0-.291.282Z" transform="translate(-960.785 -222.622)"/><path class="m" d="M962.554,223.868a.287.287,0,0,0,.3.277h0a.286.286,0,0,0,.3-.277h0a.288.288,0,0,0-.3-.28h0a.288.288,0,0,0-.3.28Z" transform="translate(-960.473 -222.155)"/><path class="m" d="M962.953,224.895a.287.287,0,0,0,.286.285h0a.293.293,0,0,0,.3-.285h0a.287.287,0,0,0-.3-.279h0a.281.281,0,0,0-.286.279Z" transform="translate(-960.28 -221.658)"/><path class="m" d="M961.31,224.751a.285.285,0,0,0,.292.277h0a.285.285,0,0,0,.292-.277h0a.288.288,0,0,0-.292-.285h0a.288.288,0,0,0-.292.285Z" transform="translate(-961.074 -221.731)"/><path class="m" d="M963.739,224.249a.287.287,0,0,0,.3.277h0a.284.284,0,0,0,.292-.277h0a.287.287,0,0,0-.292-.285h0a.289.289,0,0,0-.3.285Z" transform="translate(-959.9 -221.973)"/><path class="m" d="M961.151,223.713a.285.285,0,0,0,.294.277h0a.287.287,0,0,0,.3-.277h0a.289.289,0,0,0-.3-.282h0a.286.286,0,0,0-.294.282Z" transform="translate(-961.151 -222.231)"/></g><path class="o" d="M958.892,227.354a8.477,8.477,0,0,1-1.773.669,2.084,2.084,0,0,0,3.631.019A8.4,8.4,0,0,1,958.892,227.354Z" transform="translate(-947.82 -216.775)"/></g><g transform="translate(1.848 0)"><g transform="translate(55.986)"><path class="ah" d="M984.035,207.577c9.96-8.213,2.56-21,2.56-21a4.714,4.714,0,0,1-3.321,2.955c-3.191.929-9.883,3.072-11.735,9.075A41.5,41.5,0,0,1,984.035,207.577Z" transform="translate(-971.539 -186.581)"/><path class="ai" d="M982.073,204.11c3.846-2.421,4.354-11.972,2.258-12.877-3.84-1.657-11.2,4.425-11.543,6.178A41.593,41.593,0,0,1,982.073,204.11Z" transform="translate(-970.936 -184.469)"/></g><path class="ah" d="M939,207.577c-9.961-8.213-2.562-21-2.562-21a4.718,4.718,0,0,0,3.324,2.955c3.188.929,9.884,3.072,11.732,9.075A41.55,41.55,0,0,0,939,207.577Z" transform="translate(-933.795 -186.581)"/><path class="ai" d="M939.354,204.11c-3.842-2.421-4.358-11.972-2.26-12.877,3.842-1.657,11.2,4.425,11.548,6.178A41.568,41.568,0,0,0,939.354,204.11Z" transform="translate(-932.79 -184.469)"/></g><g transform="translate(14.296 39.208)"><path class="i" d="M949.97,217.974a3.373,3.373,0,1,1-3.372-3.229A3.305,3.305,0,0,1,949.97,217.974Z" transform="translate(-941.683 -212.176)"/><path class="j" d="M946.065,216.05a1.712,1.712,0,0,0-1.838,1.758,1.837,1.837,0,1,0,1.838-1.758Zm-.943,2.48a.327.327,0,1,1,.343-.328A.333.333,0,0,1,945.121,218.53Zm.326-.8a.646.646,0,1,1,.669-.645A.658.658,0,0,1,945.448,217.732Z" transform="translate(-941.201 -211.546)"/><path class="aj" d="M942.187,215.361c.314-1.762,2.152-2.849,4.3-2.115" transform="translate(-942.187 -213.013)"/><g transform="translate(38.147)"><path class="i" d="M967.9,217.974a3.375,3.375,0,1,0,3.373-3.229A3.306,3.306,0,0,0,967.9,217.974Z" transform="translate(-967.904 -212.176)"/><path class="j" d="M968.975,217.808a1.838,1.838,0,0,0,3.673,0,1.71,1.71,0,0,0-1.835-1.758A1.8,1.8,0,0,0,968.975,217.808Zm2.433.395a.335.335,0,0,1,.347-.326.327.327,0,1,1,0,.654A.336.336,0,0,1,971.408,218.2Zm-.648-1.115a.672.672,0,1,1,.67.645A.657.657,0,0,1,970.759,217.087Z" transform="translate(-967.386 -211.546)"/><path class="aj" d="M974.9,215.361c-.316-1.762-2.152-2.849-4.3-2.115" transform="translate(-966.605 -213.013)"/></g></g></g><g transform="translate(1052.62 172.925)"><g transform="translate(35.219 148.684)"><rect class="ak" width="20.27" height="35.649" transform="translate(1.084)"/><path class="al" d="M1018.609,277.324h13.816c4.435-2.878,4.493-8.915,2.675-12.065-1.589-2.766-5.485-2.9-6.338-.209-.018.049-.286-2.887-3.76-2.683s-3.557,2.955-3.561,2.83c-.082-2.514-5.534-2.841-6.712-.188C1011.751,271.725,1016.465,277.324,1018.609,277.324Z" transform="translate(-1013.769 -233.856)"/><g class="d" transform="translate(5.575 31.341)"><path class="al" d="M1019.622,264.271a25.292,25.292,0,0,0-.728,3.081,16.6,16.6,0,0,0-.239,3.051,15.34,15.34,0,0,0,1.4,6,7.815,7.815,0,0,1-1.86-2.7,9.017,9.017,0,0,1-.672-3.272A9.477,9.477,0,0,1,1019.622,264.271Z" transform="translate(-1017.528 -264.271)"/></g><g class="d" transform="translate(14.557 31.182)"><path class="al" d="M1024.018,264.164a9.678,9.678,0,0,1,2.1,6.228,9.138,9.138,0,0,1-.671,3.309,7.944,7.944,0,0,1-1.865,2.749,15.694,15.694,0,0,0,1.4-6.076,17.305,17.305,0,0,0-.239-3.091A25.834,25.834,0,0,0,1024.018,264.164Z" transform="translate(-1023.583 -264.164)"/></g></g><g transform="translate(58.456 148.684)"><rect class="ak" width="20.274" height="35.649" transform="translate(1.084)"/><path class="al" d="M1034.278,277.324h13.805c4.441-2.878,4.5-8.915,2.679-12.065-1.589-2.766-5.475-2.9-6.335-.209-.013.049-.286-2.887-3.762-2.683s-3.554,2.955-3.564,2.83c-.077-2.514-5.53-2.841-6.708-.188C1027.417,271.725,1032.126,277.324,1034.278,277.324Z" transform="translate(-1029.435 -233.856)"/><g class="d" transform="translate(5.571 31.341)"><path class="al" d="M1035.285,264.271a25.245,25.245,0,0,0-.728,3.081,16.68,16.68,0,0,0-.239,3.051,15.346,15.346,0,0,0,1.406,6,7.837,7.837,0,0,1-1.86-2.7,8.978,8.978,0,0,1-.673-3.272A9.468,9.468,0,0,1,1035.285,264.271Z" transform="translate(-1033.191 -264.271)"/></g><g class="d" transform="translate(14.551 31.182)"><path class="al" d="M1039.685,264.164a9.668,9.668,0,0,1,2.1,6.23,9.218,9.218,0,0,1-.672,3.309,7.945,7.945,0,0,1-1.866,2.747,15.7,15.7,0,0,0,1.4-6.076,17.153,17.153,0,0,0-.237-3.09A25.783,25.783,0,0,0,1039.685,264.164Z" transform="translate(-1039.245 -264.164)"/></g></g><g transform="translate(36.303 159.321)"><path class="m" d="M1044.6,256.591l-2.383.605,2.383,1.431Z" transform="translate(-1001.103 -247.279)"/><path class="m" d="M1046.245,258.522l-7.43.679,7.43,1.483Z" transform="translate(-1002.748 -246.346)"/><path class="m" d="M1045.538,250.353l-5.26,2.813,5.26-.723Z" transform="translate(-1002.041 -250.294)"/><path class="m" d="M1045.1,253.679l-3.905,2.268,3.905.779Z" transform="translate(-1001.599 -248.686)"/><path class="m" d="M1045.1,263.914v-2.749l-3.906.534S1045.12,264.268,1045.1,263.914Z" transform="translate(-1001.599 -245.068)"/><path class="m" d="M1030.055,258.279l-5.812.957,5.812.96Z" transform="translate(-1009.79 -246.463)"/><path class="m" d="M1029.889,253.667l-5.3,1.745,5.3.6Z" transform="translate(-1009.624 -248.692)"/><path class="m" d="M1029.889,261l-5.3.415s3.225,1.19,5.3,1.854Z" transform="translate(-1009.623 -245.149)"/><path class="m" d="M1014.5,256.57v2.137l2.507-1.5Z" transform="translate(-1014.5 -247.289)"/><path class="m" d="M1014.5,253.634v3.139l4.025-.8Z" transform="translate(-1014.5 -248.708)"/><path class="m" d="M1014.5,260.714l7.553-1.508-7.553-.692Z" transform="translate(-1014.5 -246.35)"/><path class="m" d="M1014.5,250.313v2.131l5.379.742Z" transform="translate(-1014.5 -250.313)"/><path class="m" d="M1014.5,263.357l7.024-1.244-7.024-.959Z" transform="translate(-1014.5 -245.073)"/><path class="m" d="M1030.166,254.623v2.822l3.307-1.987Z" transform="translate(-1006.928 -248.23)"/><path class="m" d="M1030.166,260.094l5.051-2.441-5.051-.464Z" transform="translate(-1006.928 -246.989)"/><path class="m" d="M1030.166,263.588l7.021-2.437-7.021-.474Z" transform="translate(-1006.928 -245.304)"/></g><g transform="translate(0 95.918)"><path class="ak" d="M1026.829,207.854c-1.869-.166-14.522-3.072-26.353,14.132-9.658,14.046-13.086,19.3-8.32,22.59s11.514,7.522,15.387.175,10.021-26.875,20.3-32.924C1031.007,209.961,1028.69,208.024,1026.829,207.854Z" transform="translate(-990.026 -207.569)"/><path class="al" d="M1005.716,232.89c-1.642-.675-3.722.448-4.641,2.5-.022.045,1.412-3.477-1.476-4.569s-4.546,2.146-4.5,2.044c.924-2.06.341-4.275-1.3-4.947a3.231,3.231,0,0,0-3.3.736c-.964,2.854-.472,4.715,1.657,6.177,4.708,3.247,11.343,7.408,15.243.43A2.894,2.894,0,0,0,1005.716,232.89Z" transform="translate(-990.026 -197.827)"/><g transform="translate(76.758)"><path class="ak" d="M1044.348,207.854c1.867-.166,14.523-3.072,26.354,14.132,9.651,14.046,13.089,19.3,8.325,22.59s-11.52,7.522-15.393.175-10.012-26.875-20.3-32.924C1040.174,209.961,1042.488,208.024,1044.348,207.854Z" transform="translate(-1041.773 -207.569)"/><path class="al" d="M1058.29,232.89c1.639-.675,3.723.448,4.647,2.5.019.045-1.414-3.477,1.469-4.569s4.545,2.146,4.5,2.044c-.92-2.06-.338-4.275,1.308-4.947a3.231,3.231,0,0,1,3.3.736c.96,2.854.467,4.715-1.657,6.177-4.712,3.247-11.347,7.408-15.244.43A2.886,2.886,0,0,1,1058.29,232.89Z" transform="translate(-1034.602 -197.827)"/></g></g><g transform="translate(2.008 98.656)"><path class="m" d="M999.922,224.935l-3.71-5.42c-.721,1.053-1.4,2.056-2.031,3Z" transform="translate(-990.026 -204.533)"/><path class="m" d="M1002.446,211.959c-.734.645-1.48,1.35-2.223,2.124l6.538,1.295Z" transform="translate(-987.106 -208.185)"/><path class="m" d="M1008.239,212.322l-2.16-2.907c-.724.386-1.463.823-2.215,1.326Z" transform="translate(-985.346 -209.415)"/><path class="m" d="M998.762,216.164c-.4.537-.8,1.084-1.2,1.667-.516.758-1.013,1.482-1.5,2.185l8.01,1.124Z" transform="translate(-989.117 -206.153)"/><path class="m" d="M993.142,224.037c-.673,1.09-1.264,2.094-1.762,3.017l11.4.977Z" transform="translate(-991.38 -202.348)"/></g><g transform="translate(91.294 98.679)"><path class="m" d="M1066.033,222.519q-.939-1.406-2.013-2.974l-3.683,5.376Z" transform="translate(-1047.337 -204.543)"/><path class="m" d="M1053.722,209.431l-2.149,2.884,4.336-1.569C1055.164,210.247,1054.437,209.817,1053.722,209.431Z" transform="translate(-1051.573 -209.431)"/><path class="m" d="M1068.909,224.05l-9.585,3.975,11.335-.975C1070.167,226.131,1069.583,225.137,1068.909,224.05Z" transform="translate(-1047.827 -202.365)"/><path class="m" d="M1063.379,217.821c-.389-.564-.785-1.108-1.175-1.635l-5.279,4.944,7.956-1.117C1064.4,219.307,1063.9,218.579,1063.379,217.821Z" transform="translate(-1048.986 -206.166)"/><path class="m" d="M1058.038,211.978l-4.275,3.391,6.48-1.283C1059.5,213.32,1058.769,212.617,1058.038,211.978Z" transform="translate(-1050.515 -208.2)"/></g><g transform="translate(70.562 104.083)"><path class="am" d="M1147.653,231.248a6.59,6.59,0,0,1-5.361,4.2,6.1,6.1,0,0,1-6.944-5.015c-.9-1.67-6.745-5.346-14.292-5.058-8.943.341-15.995,6.088-20.411,16.618-12.5,29.91-44.059,28.032-58.99,22.861a5.863,5.863,0,0,1-3.606-7.842,6.643,6.643,0,0,1,8.256-3.741c1.356.463,31.684,10.4,42.543-15.548,7.138-17.052,21.066-26.19,37.255-24.439,10.091,1.09,21.047,7.1,21.889,15.269A5.808,5.808,0,0,1,1147.653,231.248Z" transform="translate(-1037.596 -213.074)"/><g transform="translate(25.792 0.116)"><path class="m" d="M1060.38,248.271a27.636,27.636,0,0,0-.472-4.569c-.139-.731-.461-1.566-.706-2.407a37.735,37.735,0,0,1-4.219.5l5.387,6.9C1060.371,248.559,1060.383,248.416,1060.38,248.271Z" transform="translate(-1054.984 -199.55)"/><path class="m" d="M1067.967,244.733c-.574-.886-1.163-1.765-1.752-2.645.65,2.284,1.27,4.575,1.933,6.847.693-.359,1.381-.749,2.069-1.157C1069.45,246.747,1068.628,245.746,1067.967,244.733Z" transform="translate(-1049.556 -199.167)"/><path class="m" d="M1070.952,236.191c1.82,2.5,3.613,5.008,5.435,7.51.49-.528.97-1.087,1.439-1.655C1075.587,240.048,1073.235,238.149,1070.952,236.191Z" transform="translate(-1047.266 -202.017)"/><path class="m" d="M1071.2,232.289c-.35.593-.713,1.172-1.083,1.724a1.084,1.084,0,0,1,.291.174c1.651,1.516,3.355,2.958,5.067,4.4C1074.276,236.654,1072.923,233.774,1071.2,232.289Z" transform="translate(-1047.671 -203.903)"/><path class="m" d="M1075.8,229.648a25.058,25.058,0,0,1,2.089,2.93c1.064,1.289,2.109,2.59,3.152,3.888.4-.8.786-1.623,1.141-2.48.047-.1.087-.187.132-.279A36.267,36.267,0,0,1,1075.8,229.648Z" transform="translate(-1044.923 -205.179)"/><path class="m" d="M1078.876,230.681c-1.261-1.973-2.588-3.885-3.659-5.939-.5.788-.979,1.6-1.439,2.439,1.793,1.084,3.465,2.375,5.172,3.613C1078.929,230.754,1078.9,230.723,1078.876,230.681Z" transform="translate(-1045.9 -207.55)"/><path class="m" d="M1080.182,227.318c1.079,1.118,2.539,2.24,3.713,3.478a29.857,29.857,0,0,1,2.133-2.968,54.68,54.68,0,0,1-6.166-2.1c-.6-.268-1.182-.562-1.767-.86C1078.771,225.7,1079.425,226.556,1080.182,227.318Z" transform="translate(-1043.814 -207.491)"/><path class="m" d="M1078.091,221.034a.031.031,0,0,1-.007-.022c-.564.63-1.107,1.288-1.637,1.965a64.513,64.513,0,0,0,6,2.9l.016.006C1081.009,224.262,1079.464,222.718,1078.091,221.034Z" transform="translate(-1044.611 -209.353)"/><path class="m" d="M1085.92,222.077c.27.233.556.442.849.653a28.1,28.1,0,0,0-3.98-5.862c-.524.344-1.038.708-1.55,1.081C1082.876,219.246,1084.321,220.731,1085.92,222.077Z" transform="translate(-1042.294 -211.356)"/><path class="m" d="M1094.249,213.152c-1.047.073-2.084.177-3.109.34.322.656.57,1.31.756,1.724.7,1.55,1.335,3.128,2,4.695A33.987,33.987,0,0,0,1094.249,213.152Z" transform="translate(-1037.509 -213.152)"/><path class="m" d="M1096.641,219.033a24.8,24.8,0,0,0,4.968-5.169c-1.007-.23-2.022-.429-3.035-.565a37.055,37.055,0,0,1-2.172,6.013A.943.943,0,0,1,1096.641,219.033Z" transform="translate(-1034.966 -213.081)"/><path class="m" d="M1089.044,221.586c-.816-.982-1.613-1.976-2.424-2.955,1.043,1.983,1.882,4.049,2.861,6.065a19.215,19.215,0,0,1,1.94-.825C1090.5,222.964,1089.481,222.1,1089.044,221.586Z" transform="translate(-1039.694 -210.504)"/><path class="m" d="M1061.021,244.868c.258,2.132.033,4.287.375,6.409,1.166-.286,2.324-.608,3.468-1-1.359-1.916-2.691-3.879-3.995-5.858A1.206,1.206,0,0,1,1061.021,244.868Z" transform="translate(-1052.139 -198.037)"/></g><g transform="translate(94.421 1.445)"><path class="m" d="M1101.39,223.491c.016,1.3-.041,2.582-.139,3.869a8.726,8.726,0,0,1,3.332,2.606,6.1,6.1,0,0,0,6.943,5.015,6.59,6.59,0,0,0,5.361-4.2,5.8,5.8,0,0,0,.341-2.692c-.67-6.534-7.818-11.684-15.821-14.037A29.143,29.143,0,0,1,1101.39,223.491Z" transform="translate(-1101.251 -214.048)"/></g></g><path class="an" d="M1078.629,246.677c0,19.721-16.7,35.711-37.3,35.711s-37.3-15.99-37.3-35.711,11.821-53.033,37.3-53.033S1078.629,226.952,1078.629,246.677Z" transform="translate(-983.258 -118.382)"/><path class="ao" d="M1057.915,244.682c0,13.75-9.705,24.9-21.677,24.9s-21.679-11.147-21.679-24.9,6.869-36.973,21.679-36.973S1057.915,230.932,1057.915,244.682Z" transform="translate(-978.169 -111.584)"/><g transform="translate(76.912 101.986)"><path class="m" d="M1057.7,230.183c0-.771-.025-1.575-.064-2.391l-1.516-.022-8.784,1.176L1057.481,234A34.675,34.675,0,0,0,1057.7,230.183Z" transform="translate(-1039.239 -203.874)"/><path class="m" d="M1041.877,246.664l1.6,4.253c.516-.331,1.035-.67,1.541-1.024Z" transform="translate(-1041.877 -194.742)"/><path class="m" d="M1057.209,220.022l-12.2,2.146L1058,224.243C1057.783,222.86,1057.519,221.446,1057.209,220.022Z" transform="translate(-1040.364 -207.618)"/><path class="m" d="M1053.592,211.66l-9.021,2.793,10.373.8Q1054.321,213.441,1053.592,211.66Z" transform="translate(-1040.575 -211.66)"/><path class="m" d="M1056.521,236.663c.283-1.035.518-2.091.7-3.161l-9.975-.387Z" transform="translate(-1039.281 -201.29)"/><path class="m" d="M1049.6,245.557l-4.118-1.506,1.924,3.76C1048.165,247.092,1048.9,246.338,1049.6,245.557Z" transform="translate(-1040.136 -196.005)"/><path class="m" d="M1044.63,239.652l8.517,4.57a36.2,36.2,0,0,0,3.125-5.776Z" transform="translate(-1040.546 -198.714)"/></g><g transform="translate(20.793 98.401)"><path class="m" d="M1006.1,239.114a35.172,35.172,0,0,0,1.73,3.323l9.624-3.775Z" transform="translate(-1003.052 -195.024)"/><path class="m" d="M1004.158,226.875c-.061.831-.1,1.635-.114,2.43l7.446-1.2Z" transform="translate(-1004.044 -200.721)"/><path class="m" d="M1005.5,219.641c-.375,1.672-.684,3.321-.937,4.936l8.523-2.655Z" transform="translate(-1003.794 -204.217)"/><path class="m" d="M1013.654,248.62l4.18-2.283-5.993.728C1012.43,247.6,1013.025,248.124,1013.654,248.62Z" transform="translate(-1000.275 -191.315)"/><path class="m" d="M1013.1,215.393l-3.963-6.15c-.421.878-.816,1.774-1.194,2.673Z" transform="translate(-1002.158 -209.243)"/><path class="m" d="M1006.073,217.182l3.527.538-2.658-3.275Q1006.477,215.813,1006.073,217.182Z" transform="translate(-1003.063 -206.729)"/><path class="m" d="M1004.056,230.593a35.154,35.154,0,0,0,.665,5.144l8.087-2.795Z" transform="translate(-1004.038 -198.924)"/></g><g transform="translate(7.865)"><g transform="translate(2.232)"><path class="ap" d="M1007.188,172.687a74.267,74.267,0,0,1,22.182-15.974c.3-5-.868-15.521-16.5-12.967C993.537,146.9,991.733,168.184,1007.188,172.687Z" transform="translate(-996.833 -142.689)"/><path class="ap" d="M1061.492,172.205c15.364-4.551,13.526-25.761-5.764-28.907-15.6-2.544-16.8,7.9-16.5,12.924A74.1,74.1,0,0,1,1061.492,172.205Z" transform="translate(-976.361 -142.905)"/><path class="aq" d="M1057.985,166.724c6.856-4.312,4.831-15.427-6.236-17.233-7.4-1.21-9.7,2.175-10.312,5.3A73.892,73.892,0,0,1,1057.985,166.724Z" transform="translate(-975.274 -139.844)"/><path class="aq" d="M1006.746,167.223a74.159,74.159,0,0,1,16.495-11.939c-.61-3.142-2.894-6.559-10.333-5.343C1001.806,151.754,999.8,162.942,1006.746,167.223Z" transform="translate(-993.99 -139.626)"/></g><path class="al" d="M1095.731,201.939c0,12.537-17.042,36.818-50.2,36.818s-50.2-24.537-50.2-36.818,10.349-51.575,50.2-51.575S1095.731,189.4,1095.731,201.939Z" transform="translate(-995.328 -139.3)"/><g transform="translate(23.552 65.627)"><path class="c" d="M1031.26,203.465a20.821,20.821,0,0,1-6.28,2.031,7.066,7.066,0,0,0,12.773.034A21.234,21.234,0,0,1,1031.26,203.465Z" transform="translate(-1004.549 -179.262)"/><path class="c" d="M1051.2,187.148H1024.64c-9.208,0-13.434,6.048-13.434,13.23s5.981,13.018,13.434,13.21v.016s7.093.985,13.277-2.253c6.188,3.238,13.28,2.253,13.28,2.253v-.016c7.452-.193,13.44-6.025,13.44-13.21S1060.411,187.148,1051.2,187.148Z" transform="translate(-1011.206 -187.148)"/><g transform="translate(25.969 7.383)"><path class="m" d="M1029.456,208.946a42.45,42.45,0,0,1-.743-8.41,42.014,42.014,0,0,1,.743-8.41,42.194,42.194,0,0,1,.743,8.41A42.643,42.643,0,0,1,1029.456,208.946Z" transform="translate(-1028.713 -192.125)"/></g><g transform="translate(5.715 7.27)"><path class="m" d="M1017.558,192.982a.687.687,0,0,1-.7.672h0a.683.683,0,0,1-.7-.672h0a.689.689,0,0,1,.7-.678h0a.693.693,0,0,1,.7.678Z" transform="translate(-1014.53 -191.926)"/><path class="m" d="M1020.891,192.727a.689.689,0,0,1-.706.672h0a.691.691,0,0,1-.709-.672h0a.7.7,0,0,1,.709-.678h0a.694.694,0,0,1,.706.678Z" transform="translate(-1012.924 -192.049)"/><path class="m" d="M1019.331,195.057a.694.694,0,0,1-.706.676h0a.7.7,0,0,1-.711-.676h0a.692.692,0,0,1,.711-.676h0a.69.69,0,0,1,.706.676Z" transform="translate(-1013.679 -190.922)"/><path class="m" d="M1018.373,197.535a.685.685,0,0,1-.7.673h0a.686.686,0,0,1-.706-.673h0a.689.689,0,0,1,.706-.676h0a.688.688,0,0,1,.7.676Z" transform="translate(-1014.138 -189.724)"/><path class="m" d="M1022.332,197.179a.69.69,0,0,1-.7.675h0a.69.69,0,0,1-.7-.675h0a.69.69,0,0,1,.7-.675h0a.691.691,0,0,1,.7.675Z" transform="translate(-1012.223 -189.896)"/><path class="m" d="M1016.468,195.965a.7.7,0,0,1-.71.681h0a.688.688,0,0,1-.7-.681h0a.684.684,0,0,1,.7-.672h0a.692.692,0,0,1,.71.672Z" transform="translate(-1015.059 -190.481)"/><path class="m" d="M1022.718,194.675a.7.7,0,0,1-.71.678h0a.69.69,0,0,1-.7-.678h0a.686.686,0,0,1,.7-.672h0a.691.691,0,0,1,.71.672Z" transform="translate(-1012.041 -191.105)"/></g><g transform="translate(36.865 7.27)"><path class="m" d="M1041.214,192.982a.688.688,0,0,0,.708.672h0a.69.69,0,0,0,.711-.672h0a.7.7,0,0,0-.711-.678h0a.694.694,0,0,0-.708.678Z" transform="translate(-1033.567 -191.926)"/><path class="m" d="M1037.886,192.727a.686.686,0,0,0,.706.672h0a.694.694,0,0,0,.707-.672h0a.7.7,0,0,0-.707-.678h0a.691.691,0,0,0-.706.678Z" transform="translate(-1035.176 -192.049)"/><path class="m" d="M1039.451,195.057a.693.693,0,0,0,.7.676h0a.691.691,0,0,0,.7-.676h0a.686.686,0,0,0-.7-.676h0a.688.688,0,0,0-.7.676Z" transform="translate(-1034.419 -190.922)"/><path class="m" d="M1040.4,197.535a.69.69,0,0,0,.7.673h0a.688.688,0,0,0,.706-.673h0a.69.69,0,0,0-.706-.676h0a.692.692,0,0,0-.7.676Z" transform="translate(-1033.96 -189.724)"/><path class="m" d="M1036.438,197.179a.7.7,0,0,0,.706.675h0a.694.694,0,0,0,.709-.675h0a.694.694,0,0,0-.709-.675h0a.7.7,0,0,0-.706.675Z" transform="translate(-1035.876 -189.896)"/><path class="m" d="M1042.309,195.965a.693.693,0,0,0,.7.681h0a.691.691,0,0,0,.706-.681h0a.687.687,0,0,0-.706-.672h0a.689.689,0,0,0-.7.672Z" transform="translate(-1033.038 -190.481)"/><path class="m" d="M1036.059,194.675a.7.7,0,0,0,.706.678h0a.691.691,0,0,0,.7-.678h0a.687.687,0,0,0-.7-.672h0a.691.691,0,0,0-.706.672Z" transform="translate(-1036.059 -191.105)"/></g><path class="o" d="M1030.608,203.465a19.92,19.92,0,0,1-4.28,1.615,5.034,5.034,0,0,0,8.768.053A20.386,20.386,0,0,1,1030.608,203.465Z" transform="translate(-1003.897 -179.262)"/></g><g transform="translate(0.028 28.523)"><path class="m" d="M995.549,182.727c-.107.963-.178,1.847-.2,2.646l7.56-1.175Z" transform="translate(-995.347 -152.181)"/><path class="m" d="M996.726,191.085l8.2-3.814h-9.355A22.82,22.82,0,0,0,996.726,191.085Z" transform="translate(-995.241 -149.985)"/><path class="m" d="M999.8,169.812c-.578,1.222-1.117,2.443-1.592,3.65l10.682-1.185Z" transform="translate(-993.966 -158.423)"/><path class="m" d="M1002.171,165.868l12.4,3.742-9.662-7.476C1003.932,163.358,1003.008,164.6,1002.171,165.868Z" transform="translate(-992.049 -162.134)"/><path class="m" d="M996.884,177.349c-.469,1.765-.832,3.437-1.1,5l14.277-3.406Z" transform="translate(-995.138 -154.78)"/></g><g transform="translate(82.811 29.708)"><path class="m" d="M1067.423,185.012c-.068-.982-.182-2.062-.35-3.234l-13.329-.42Z" transform="translate(-1049.905 -154.027)"/><path class="m" d="M1064.258,172.956c-.436-1.087-.933-2.18-1.446-3.274l-11.547,1.1Z" transform="translate(-1051.104 -159.671)"/><path class="m" d="M1051.156,167.31l7.768-1.421q-.972-1.5-2.062-2.956Z" transform="translate(-1051.156 -162.933)"/><path class="m" d="M1064.356,180.41c-.191-.924-.4-1.875-.659-2.863l-5.528.666Z" transform="translate(-1047.766 -155.87)"/><path class="m" d="M1066.632,187.22l-11.564-.96,10.572,4.653A21.774,21.774,0,0,0,1066.632,187.22Z" transform="translate(-1049.265 -151.658)"/></g><g transform="translate(21.263 48.146)"><path class="i" d="M1019.364,181.548a4.206,4.206,0,1,1-4.2-4.026A4.113,4.113,0,0,1,1019.364,181.548Z" transform="translate(-1009.036 -174.32)"/><path class="j" d="M1014.492,179.149a2.133,2.133,0,0,0-2.286,2.192,2.289,2.289,0,1,0,2.286-2.192Zm-1.17,3.091a.409.409,0,1,1,.433-.409A.421.421,0,0,1,1013.321,182.24Zm.406-.992a.8.8,0,1,1,.837-.8A.823.823,0,0,1,1013.728,181.248Z" transform="translate(-1008.434 -173.533)"/><path class="ar" d="M1009.663,178.292c.39-2.2,2.683-3.551,5.362-2.643" transform="translate(-1009.663 -175.363)"/><g transform="translate(47.549)"><path class="i" d="M1041.719,181.548a4.207,4.207,0,1,0,4.2-4.026A4.116,4.116,0,0,0,1041.719,181.548Z" transform="translate(-1041.719 -174.32)"/><path class="j" d="M1043.059,181.341a2.29,2.29,0,0,0,4.575,0,2.136,2.136,0,0,0-2.289-2.192A2.24,2.24,0,0,0,1043.059,181.341Zm3.026.49a.431.431,0,1,1,.433.409A.419.419,0,0,1,1046.085,181.831Zm-.812-1.387a.839.839,0,1,1,.838.8A.819.819,0,0,1,1045.273,180.444Z" transform="translate(-1041.071 -173.533)"/><path class="ar" d="M1050.435,178.292c-.389-2.2-2.679-3.551-5.367-2.643" transform="translate(-1040.1 -175.363)"/></g></g><path class="ap" d="M1024.03,160.673c9.869,6.444,6.745,15.906,4.281,25.506s-4.852,21.286-4.852,21.286l14.231-.663h0l14.225.663s-2.381-11.684-4.843-21.286-5.592-19.062,4.269-25.506a19.019,19.019,0,0,1,12.562-3.033c-6.84-4.407-15.441-7.276-26.213-7.276-10.733,0-19.308,2.863-26.135,7.267A18.96,18.96,0,0,1,1024.03,160.673Z" transform="translate(-987.485 -139.3)"/><path class="m" d="M1048.167,191.275c0,4.75-8.188,12.2-15.013,12.2s-13.641-7.451-13.641-12.2h0c0-4.758,4.033-5.015,8.995-5.015h10.664c4.971,0,9,.257,9,5.015Z" transform="translate(-983.638 -121.951)"/><g transform="translate(28.438 11.174)"><path class="m" d="M1030.276,162.067l-1.937-11.629c-1.667.1-3.26.3-4.813.537Z" transform="translate(-1010.137 -150.438)"/><path class="m" d="M1036.286,159.138l-.071-8.166c-1.209-.188-2.449-.341-3.734-.452Z" transform="translate(-1005.809 -150.398)"/><path class="m" d="M1023.382,158.125l-5.582-5.509c-1.138.445-2.241.924-3.3,1.442Z" transform="translate(-1014.5 -149.385)"/><path class="m" d="M1042.524,152.347l-4.812,5.908,8.7-4.281C1045.169,153.384,1043.868,152.839,1042.524,152.347Z" transform="translate(-1003.281 -149.515)"/><path class="m" d="M1022.231,157.1l-.474-5.829c-.73.174-1.451.343-2.151.54Z" transform="translate(-1012.032 -150.033)"/></g></g></g></g></g></svg>