<svg xmlns="http://www.w3.org/2000/svg" width="70.925" height="69.753" viewBox="0 0 70.925 69.753"><defs><style>.a{fill:#148aff;}</style></defs><g transform="translate(-306.022 -427.878)"><g transform="translate(306.022 427.878)"><g transform="translate(1.664 38.848)"><path class="a" d="M158.9,179.152a9.206,9.206,0,0,0,3.581.6,8.44,8.44,0,0,0,3.493-.816c.271-.137.079-.545-.2-.479a16.05,16.05,0,0,1-3.356.554,13.048,13.048,0,0,1-3.385-.346.253.253,0,0,0-.133.487Z" transform="translate(-158.723 -178.449)"/></g><g transform="translate(4.016 46.947)"><path class="a" d="M159.509,183.024a9.039,9.039,0,0,0,6.474-2.269c.171-.162-.05-.458-.25-.329a14.093,14.093,0,0,1-2.944,1.549,10.011,10.011,0,0,1-3.281.587.231.231,0,0,0,0,.462Z" transform="translate(-159.288 -180.394)"/></g><g transform="translate(7.4 53.736)"><path class="a" d="M160.42,185.834a18.2,18.2,0,0,0,3.689-1.316,13.427,13.427,0,0,0,1.661-.958,9.429,9.429,0,0,0,1.57-1.207.2.2,0,0,0-.237-.3c-.562.3-1.078.679-1.636.991-.537.308-1.1.591-1.645.87a23.035,23.035,0,0,1-3.539,1.428.257.257,0,0,0,.137.5Z" transform="translate(-160.1 -182.025)"/></g><g transform="translate(14.246 59.478)"><path class="a" d="M161.929,185.877a8.506,8.506,0,0,0,4.522.15,6.729,6.729,0,0,0,3.83-2.257c.146-.2-.137-.458-.333-.333-.575.366-1.1.779-1.707,1.1a9.18,9.18,0,0,1-1.986.787,8.492,8.492,0,0,1-4.188.046.261.261,0,0,0-.137.5Z" transform="translate(-161.745 -183.404)"/></g><g transform="translate(58.374 10.967)"><path class="a" d="M174.69,172.066a7.94,7.94,0,0,1-.437,3.539,8.846,8.846,0,0,1-.77,1.57c-.325.525-.75.962-1.1,1.47a.3.3,0,0,0,.4.4,4.85,4.85,0,0,0,1.274-1.407,7.762,7.762,0,0,0,.862-1.736,8.34,8.34,0,0,0,.416-3.835c-.05-.412-.7-.425-.654,0Z" transform="translate(-172.344 -171.753)"/></g><g transform="translate(62.914 17.823)"><path class="a" d="M175.882,173.673a18.453,18.453,0,0,1-.787,4,23.336,23.336,0,0,1-1.632,3.726c-.133.25.216.562.408.316a12.436,12.436,0,0,0,2.577-8.044.283.283,0,0,0-.566,0Z" transform="translate(-173.434 -173.399)"/></g><g transform="translate(63.63 25.768)"><path class="a" d="M176.429,175.589a8.091,8.091,0,0,1-.883,3,9.824,9.824,0,0,1-.812,1.287c-.325.437-.729.8-1.062,1.22a.272.272,0,0,0,.329.425,4.606,4.606,0,0,0,1.237-1.141,7.558,7.558,0,0,0,.945-1.47,8.3,8.3,0,0,0,.833-3.323c.012-.379-.554-.371-.587,0Z" transform="translate(-173.606 -175.307)"/></g><g transform="translate(65.249 33.096)"><path class="a" d="M176.307,177.406a6.042,6.042,0,0,1-.683,2.348,5.687,5.687,0,0,1-.654,1c-.279.333-.6.62-.891.941a.313.313,0,0,0,.379.487,4.814,4.814,0,0,0,1.849-2.069,6.117,6.117,0,0,0,.7-2.71c.008-.458-.67-.445-.7,0Z" transform="translate(-173.995 -177.068)"/></g><g transform="translate(0 0)"><path class="a" d="M174.973,175.832c-12.49,6.033-18.34,21.854-16.225,34.994,2.311,14.343,14.66,24.977,28.637,27.471a35.116,35.116,0,0,0,20.992-2.59,37.1,37.1,0,0,0,16.492-15.313,35.312,35.312,0,0,0-6.574-42.589c-10.913-10.13-28.932-11.525-41.456-3.531a21.47,21.47,0,0,0-4.164,3.547c-.587.633.2,1.811.966,1.253,5.637-4.084,11.908-6.974,18.915-7.515a32.854,32.854,0,0,1,19.968,4.717c12.532,7.882,17.712,24.69,12.624,38.425-4.959,13.386-18.411,22.662-32.7,22.075-13.24-.545-26.513-8.827-30.872-21.679-4.172-12.3-.187-27.071,9.713-35.519a43.053,43.053,0,0,1,4.059-3.1.373.373,0,0,0-.375-.645Z" transform="translate(-158.323 -169.119)"/><g transform="translate(1.099 31.69)"><path class="a" d="M159.574,178.441c.291-1.116,9.834,2.823,10.746,3.31a28.677,28.677,0,0,1,8.768,7.17,26.149,26.149,0,0,1,5.179,10.692c.912,4.005.5,7.877.125,11.912a.857.857,0,0,0,1.586.429c2.927-6.641.766-15.318-2.873-21.267A30.6,30.6,0,0,0,166,177.8a17.091,17.091,0,0,0-5.8-1.058c-.978.067-2.178.9-1.324,1.878a.418.418,0,0,0,.7-.183Z" transform="translate(-158.587 -176.73)"/></g><g transform="translate(46.183 5.413)"><path class="a" d="M174.822,170.528c-5.608,4.484-5.887,13.373-5.059,19.889a38.425,38.425,0,0,0,8.743,20.305c2.5,2.9,6.291,6.5,10.45,4.992a.96.96,0,0,0-.512-1.849c-4.388,1.116-8.385-4.151-10.55-7.257a36.3,36.3,0,0,1-5.267-11.512c-2.111-7.994-2.211-17.137,2.973-23.965.371-.487-.379-.924-.779-.6Z" transform="translate(-169.415 -170.419)"/></g></g></g></g></svg>