<svg xmlns="http://www.w3.org/2000/svg" width="38.081" height="44.09" viewBox="0 0 38.081 44.09"><defs><style>.a{fill:#dcf4fe;}</style></defs><g transform="matrix(0.616, 0.788, -0.788, 0.616, 21.746, -6.087)"><path class="a" d="M684.532,315.72c7.412-7.425,2.587-15.593-2.986-17.534s-10.172,2.373-10.172,2.373-7.95,6.186-1.452,14.77C669.922,315.329,676.092,324.174,684.532,315.72Z" transform="translate(-653.382 -282.592)"/><path class="a" d="M660.455,305.757a1.834,1.834,0,0,1,.088-1.2c.394-.872,1.483-2.278,4.305-1.571,2.84.713,3.856,1.939,4.2,2.579a1.52,1.52,0,0,1,.17.863c-.085.939-.754,2.983-5.03,2.443A4.014,4.014,0,0,1,660.455,305.757Z" transform="translate(-657.811 -279.346)"/><path class="a" d="M678.482,291.358a1.9,1.9,0,0,0-1.279-.155c-.937.229-2.477,1.042-2.338,3.9a9.04,9.04,0,0,0,.6,3.007,2.588,2.588,0,0,0,4.771.038,8.169,8.169,0,0,0,.531-2.538A4.015,4.015,0,0,0,678.482,291.358Z" transform="translate(-648.625 -286.739)"/><path class="a" d="M659.147,297.225s1.192-3.82,5.806-2.413,8.6,5.224,6.786,8.276c0,0-1.776,4.917-9.338.366C662.4,303.454,657.517,300.662,659.147,297.225Z" transform="translate(-658.814 -284.613)"/><path class="a" d="M669.72,288.562s-3.98.422-3.5,5.221,3.44,9.451,6.786,8.275c0,0,5.17-.78,2.188-9.085C675.19,292.973,673.409,287.636,669.72,288.562Z" transform="translate(-654.138 -288.454)"/></g></svg>