<svg xmlns="http://www.w3.org/2000/svg" width="175.075" height="173.236" viewBox="0 0 175.075 173.236"><defs><style>.a{fill:#fa9f19;}</style></defs><g transform="translate(-479.578 -891.902)"><g transform="translate(252 561)"><g transform="translate(266.433 385.914)"><path class="a" d="M243.109,353.048c.025.138.05.273.085.41s.065.253.1.378.073.248.12.37a2,2,0,0,0,.168.39.125.125,0,0,0,.23-.063,1.832,1.832,0,0,0-.075-.418c-.03-.133-.068-.26-.11-.388s-.083-.258-.13-.385-.1-.263-.16-.393a.125.125,0,0,0-.158-.052.132.132,0,0,0-.073.15Z" transform="translate(-243.107 -352.888)"/></g><g transform="translate(269.408 386.286)"><path class="a" d="M244.3,353.227a3.2,3.2,0,0,0,.09.988,2.682,2.682,0,0,0,.168.475.991.991,0,0,0,.313.39.128.128,0,0,0,.19-.11,1.865,1.865,0,0,0-.135-.445,3.565,3.565,0,0,1-.148-.415,2.844,2.844,0,0,1-.1-.883.192.192,0,0,0-.19-.19.2.2,0,0,0-.19.19Z" transform="translate(-244.296 -353.037)"/></g><g transform="translate(272.673 385.653)"><path class="a" d="M245.6,352.957l.088,1a5.937,5.937,0,0,0,.138,1.006.165.165,0,0,0,.323-.043,5.624,5.624,0,0,0-.078-.983l-.128-.983a.171.171,0,1,0-.343,0Z" transform="translate(-245.601 -352.784)"/></g><g transform="translate(274.625 385.857)"><path class="a" d="M246.416,353.049l-.03,1.246c-.005.205-.008.408,0,.613a1.589,1.589,0,0,0,.075.625.166.166,0,0,0,.285,0,1.57,1.57,0,0,0,.075-.6c.01-.21.008-.423,0-.636l-.03-1.246a.19.19,0,0,0-.38,0Z" transform="translate(-246.381 -352.865)"/></g><g transform="translate(277.411 386.703)"><path class="a" d="M247.723,353.347a9.213,9.213,0,0,0-.218,1.611,3.406,3.406,0,0,0,.18,1.571.123.123,0,0,0,.223-.03,7.8,7.8,0,0,0,.055-1.511,12.127,12.127,0,0,1,.14-1.536c.04-.245-.325-.358-.38-.105Z" transform="translate(-247.494 -353.204)"/></g><g transform="translate(279.812 386.489)"><path class="a" d="M248.546,353.326a10.141,10.141,0,0,0-.088,1.629c.01.268.03.53.065.8a1.3,1.3,0,0,0,.225.751.146.146,0,0,0,.228-.03,1.544,1.544,0,0,0,.018-.778c-.02-.255-.04-.513-.05-.768a14.215,14.215,0,0,1,.015-1.6.206.206,0,1,0-.413,0Z" transform="translate(-248.454 -353.118)"/></g><g transform="translate(282.091 386.52)"><path class="a" d="M249.63,353.262c-.093.605-.178,1.213-.223,1.824-.02.3-.04.6-.043.893a1.614,1.614,0,0,0,.158.883.124.124,0,0,0,.213,0,1.678,1.678,0,0,0,.148-.816c.01-.308,0-.618.012-.926.015-.606.04-1.209.1-1.809.02-.205-.33-.255-.363-.05Z" transform="translate(-249.365 -353.131)"/></g><g transform="translate(285.061 386.737)"><path class="a" d="M250.657,353.347a6.11,6.11,0,0,0-.093,1.614,6.632,6.632,0,0,0,.09.8q.034.2.083.405a1.419,1.419,0,0,0,.16.363c.07.143.28.065.285-.078a2.02,2.02,0,0,0,0-.408c-.015-.118-.03-.233-.043-.348-.028-.255-.053-.51-.078-.766-.048-.513-.02-1.026-.053-1.536-.012-.193-.3-.255-.35-.047Z" transform="translate(-250.552 -353.217)"/></g><g transform="translate(287.698 386.292)"><path class="a" d="M251.606,353.226c.012.743.038,1.484.065,2.227.012.37.028.741.047,1.113a3.339,3.339,0,0,0,.173,1.066.152.152,0,0,0,.29,0,3.311,3.311,0,0,0,.06-1.066c-.02-.373-.045-.743-.073-1.113-.053-.743-.108-1.484-.175-2.227-.02-.245-.393-.253-.388,0Z" transform="translate(-251.606 -353.039)"/></g><g transform="translate(290.97 386.916)"><path class="a" d="M252.944,353.5c-.01.606-.017,1.209-.028,1.814-.005.3-.005.593.005.891a1.982,1.982,0,0,0,.128.856.136.136,0,0,0,.235,0,1.9,1.9,0,0,0,.128-.821c.01-.308.012-.616.007-.926-.01-.605-.02-1.208-.03-1.814a.223.223,0,0,0-.445,0Z" transform="translate(-252.914 -353.289)"/></g><g transform="translate(292.947 386.937)"><path class="a" d="M253.7,353.494q.053,1.077.108,2.154c.018.35.035.7.055,1.056.01.175.03.353.048.528a1.248,1.248,0,0,0,.1.5.191.191,0,0,0,.343-.045,1.372,1.372,0,0,0,.025-.535c-.005-.163-.01-.325-.023-.488-.025-.353-.053-.706-.078-1.058l-.165-2.112c-.023-.26-.423-.265-.41,0Z" transform="translate(-253.704 -353.297)"/></g><g transform="translate(295.266 387.787)"><path class="a" d="M254.769,353.8a6.092,6.092,0,0,0-.108,1.869,5.631,5.631,0,0,0,.17.931,3.546,3.546,0,0,0,.145.415,2.116,2.116,0,0,0,.255.42.147.147,0,0,0,.268-.113c-.023-.148-.03-.29-.06-.435s-.07-.285-.1-.428a7.659,7.659,0,0,1-.145-.823,6.912,6.912,0,0,1,.005-1.716.233.233,0,0,0-.155-.275.227.227,0,0,0-.275.155Z" transform="translate(-254.631 -353.637)"/></g><g transform="translate(297.912 387.582)"><path class="a" d="M255.811,353.707a10.42,10.42,0,0,0-.1,2.3,7.048,7.048,0,0,0,.155,1.123c.045.185.093.37.153.553a1.819,1.819,0,0,0,.27.51.125.125,0,0,0,.23-.062,2.75,2.75,0,0,0-.033-.536c-.035-.188-.075-.375-.108-.563-.058-.355-.12-.708-.16-1.066a10.326,10.326,0,0,1,.005-2.207c.028-.235-.38-.293-.415-.055Z" transform="translate(-255.688 -353.555)"/></g><g transform="translate(300.614 387.814)"><path class="a" d="M256.768,353.838q0,.965.057,1.929c.018.315.035.631.073.943.017.155.043.308.065.46a1.043,1.043,0,0,0,.12.465.188.188,0,0,0,.338-.043,1.122,1.122,0,0,0,0-.483c-.013-.145-.023-.29-.037-.435-.03-.315-.068-.628-.1-.943-.06-.63-.1-1.261-.12-1.894a.2.2,0,0,0-.4,0Z" transform="translate(-256.768 -353.648)"/></g><g transform="translate(303.203 389.097)"><path class="a" d="M257.8,354.377a6.638,6.638,0,0,0,.175,1.571,4.8,4.8,0,0,0,.228.726c.1.23.2.543.45.651a.142.142,0,0,0,.208-.083,1.3,1.3,0,0,0-.16-.706c-.085-.23-.163-.463-.23-.7a5.884,5.884,0,0,1-.22-1.461.225.225,0,0,0-.45,0Z" transform="translate(-257.803 -354.16)"/></g><g transform="translate(305.963 388.219)"><path class="a" d="M258.907,354.016c.065.661.148,1.316.233,1.974.04.318.075.636.135.948.033.168.065.338.1.505a.66.66,0,0,0,.17.418.167.167,0,0,0,.26-.033.648.648,0,0,0,.045-.45c-.015-.17-.033-.34-.05-.51-.033-.318-.085-.633-.138-.948-.1-.656-.208-1.309-.333-1.959-.045-.233-.44-.183-.418.055Z" transform="translate(-258.906 -353.81)"/></g><g transform="translate(308.663 388.03)"><path class="a" d="M260.03,353.926c-.015.558-.033,1.113-.037,1.669,0,.278-.015.558,0,.836a3.073,3.073,0,0,0,.075.816.173.173,0,0,0,.33,0,3.162,3.162,0,0,0,.075-.816c.015-.278,0-.558,0-.836-.005-.555-.023-1.111-.038-1.669a.2.2,0,0,0-.4,0Z" transform="translate(-259.985 -353.734)"/></g><g transform="translate(309.547 388.876)"><path class="a" d="M260.345,354.292l-.005,1.113c0,.183,0,.365.005.545a1.811,1.811,0,0,0,.063.57.173.173,0,0,0,.33,0,1.808,1.808,0,0,0,.063-.57c.01-.18.008-.363,0-.545l0-1.113a.228.228,0,0,0-.455,0Z" transform="translate(-260.338 -354.072)"/></g><g transform="translate(352.109 392.075)"><path class="a" d="M277.633,357.393c.007-.3.013-.6.025-.906a4.171,4.171,0,0,1,.08-.953c.053-.183-.24-.263-.283-.078a5.768,5.768,0,0,0-.075,1.1c-.013.4-.018.8-.023,1.2s-.01.768,0,1.151a3.39,3.39,0,0,0,.1,1.148.154.154,0,0,0,.3,0,3.2,3.2,0,0,0,.1-1.1c0-.4,0-.8-.005-1.2-.005-.383-.008-.768-.023-1.151a6.033,6.033,0,0,0-.073-1.146.147.147,0,0,0-.283.078,4.182,4.182,0,0,1,.078.953c.015.3.018.6.025.906a.038.038,0,0,0,.075,0Z" transform="translate(-277.348 -355.351)"/></g><g transform="translate(353.633 391.317)"><path class="a" d="M278.033,355.229a18.988,18.988,0,0,0-.068,2.232c.01.365.027.731.068,1.093a4.153,4.153,0,0,0,.183,1.1.207.207,0,0,0,.405-.055,6.671,6.671,0,0,0-.118-1.086c-.043-.363-.08-.726-.1-1.091a16.87,16.87,0,0,1,.01-2.192c.018-.243-.358-.24-.38,0Z" transform="translate(-277.958 -355.048)"/></g><g transform="translate(354.954 392.001)"><path class="a" d="M278.6,355.433a8.073,8.073,0,0,0-.08,2.024,7.774,7.774,0,0,0,.158.991,1.265,1.265,0,0,0,.4.861.138.138,0,0,0,.2-.083,1.61,1.61,0,0,0-.15-.871,7.7,7.7,0,0,1-.2-.953,7.3,7.3,0,0,1-.02-1.927c.023-.175-.283-.218-.31-.043Z" transform="translate(-278.486 -355.321)"/></g><g transform="translate(356.165 393.279)"><path class="a" d="M278.976,356.047l.375,1.514c.125.5.23,1.016.39,1.509a.222.222,0,0,0,.428-.118c-.108-.508-.275-1-.42-1.5l-.438-1.5a.174.174,0,0,0-.335.093Z" transform="translate(-278.97 -355.832)"/></g><g transform="translate(357.378 393.935)"><path class="a" d="M279.456,356.279l.163,1.509.078.726a1.208,1.208,0,0,0,.205.718.15.15,0,0,0,.233-.03,1.218,1.218,0,0,0,.017-.751l-.105-.721-.218-1.5c-.03-.208-.4-.163-.373.05Z" transform="translate(-279.455 -356.094)"/></g><g transform="translate(358.866 394.361)"><path class="a" d="M280.134,356.406a7.62,7.62,0,0,0-.078,1.451c.01.238.035.473.068.708a2.665,2.665,0,0,0,.068.343.437.437,0,0,0,.21.285.119.119,0,0,0,.163-.043.42.42,0,0,0,.068-.313c-.018-.115-.035-.23-.053-.348-.035-.218-.065-.435-.083-.658a7.382,7.382,0,0,1,.03-1.371c.025-.223-.36-.278-.393-.055Z" transform="translate(-280.049 -356.264)"/></g><g transform="translate(360.235 394.585)"><path class="a" d="M280.6,356.542a5.807,5.807,0,0,0,.148,1.484,5.618,5.618,0,0,0,.21.7,2.444,2.444,0,0,0,.16.358c.068.115.12.23.258.268a.186.186,0,0,0,.22-.125c.048-.125-.027-.248-.068-.365-.037-.1-.085-.2-.128-.305a5.324,5.324,0,0,1-.215-.648,5.477,5.477,0,0,1-.2-1.364.2.2,0,0,0-.39,0Z" transform="translate(-280.596 -356.354)"/></g><g transform="translate(361.702 394.562)"><path class="a" d="M281.184,356.561l.118,1.018.057.5a.937.937,0,0,0,.155.548.207.207,0,0,0,.32-.04.925.925,0,0,0,.013-.553c-.028-.173-.053-.345-.078-.518l-.153-1.013c-.035-.243-.46-.188-.433.06Z" transform="translate(-281.183 -356.345)"/></g><g transform="translate(362.826 395.203)"><path class="a" d="M281.635,356.826c0,.188-.005.378,0,.565,0,.093.008.185.01.28a.565.565,0,0,0,.068.333.178.178,0,0,0,.3,0,.549.549,0,0,0,.065-.323c0-.1.01-.193.013-.29,0-.188,0-.378,0-.565a.225.225,0,1,0-.45,0Z" transform="translate(-281.632 -356.601)"/></g><g transform="translate(254.336 401.578)"><path class="a" d="M239.372,359.279c-.4,2.87-.593,5.775-.776,8.665q-.139,2.177-.223,4.356c-.028.726-.06,1.451-.075,2.179a11.779,11.779,0,0,0,.045,2.142c.025.158.278.148.31,0a12.783,12.783,0,0,0,.173-2.142c.035-.7.06-1.4.093-2.1q.1-2.181.233-4.356c.168-2.9.433-5.795.578-8.7.01-.2-.328-.253-.358-.048Z" transform="translate(-238.272 -359.149)"/></g><g transform="translate(257.276 399.222)"><path class="a" d="M240.112,358.342c-.158,2.938-.183,5.883-.245,8.822s-.15,5.88-.258,8.82c-.06,1.681-.2,3.375-.153,5.059a.21.21,0,0,0,.42,0c.175-1.459.19-2.94.25-4.406s.11-2.94.155-4.409c.088-2.94.153-5.88.173-8.822.01-1.686.013-3.378-.063-5.064a.14.14,0,0,0-.28,0Z" transform="translate(-239.447 -358.207)"/></g><g transform="translate(261.39 397.42)"><path class="a" d="M241.18,357.673c.183,6.576.3,13.146.1,19.727-.058,1.864-.2,3.733-.185,5.6,0,.29.408.275.438,0,.188-1.639.208-3.3.263-4.949s.1-3.3.118-4.952c.043-3.273.025-6.553-.083-9.826-.06-1.867-.138-3.733-.265-5.6-.018-.245-.39-.25-.383,0Z" transform="translate(-241.092 -357.487)"/></g><g transform="translate(265.259 395.94)"><path class="a" d="M243.214,357.034c.028,3.618.145,7.234.153,10.854.008,3.49-.08,6.983-.283,10.471-.12,2.062-.38,4.123-.445,6.188-.008.223.36.28.4.053.288-1.769.36-3.593.478-5.38s.2-3.563.258-5.347q.169-5.314.023-10.634c-.058-2.069-.138-4.141-.3-6.205a.143.143,0,0,0-.285,0Z" transform="translate(-242.638 -356.895)"/></g><g transform="translate(269.387 396.547)"><path class="a" d="M244.3,357.328c.37,7.114.641,14.21.338,21.331-.088,2.062-.27,4.118-.348,6.18-.013.293.408.273.445,0a93.019,93.019,0,0,0,.6-10.787c.048-3.516-.028-7.029-.205-10.539q-.158-3.1-.428-6.185c-.023-.25-.413-.258-.4,0Z" transform="translate(-244.288 -357.138)"/></g><g transform="translate(273.864 396.559)"><path class="a" d="M246.077,357.318c-.005,3.648.143,7.3.175,10.949q.053,5.393-.052,10.787c-.038,2.069-.15,4.141-.113,6.208a.217.217,0,0,0,.433,0c.168-1.817.18-3.648.223-5.472s.073-3.651.083-5.475c.023-3.6-.005-7.194-.108-10.789-.06-2.069-.11-4.143-.278-6.208a.182.182,0,0,0-.363,0Z" transform="translate(-246.077 -357.143)"/></g><g transform="translate(277.882 395.895)"><path class="a" d="M247.683,357.067c.193,7.489.41,14.975.425,22.466.005,2.112-.063,4.241.025,6.35a.22.22,0,0,0,.44,0c.12-1.862.1-3.751.1-5.617s0-3.746-.017-5.62c-.04-3.746-.12-7.489-.263-11.232-.083-2.117-.18-4.234-.318-6.348-.015-.25-.4-.255-.393,0Z" transform="translate(-247.683 -356.877)"/></g><g transform="translate(283.005 397.016)"><path class="a" d="M249.97,357.485c-.253,3.621-.258,7.266-.225,10.892s.123,7.264.313,10.889c.108,2.054.183,4.121.405,6.168.033.293.478.308.47,0-.048-1.814-.19-3.626-.268-5.437s-.15-3.628-.208-5.442q-.165-5.446-.153-10.892c.005-2.059.03-4.118,0-6.178a.167.167,0,0,0-.333,0Z" transform="translate(-249.73 -357.325)"/></g><g transform="translate(287.22 397.198)"><path class="a" d="M251.723,357.593c-.028,7.651-.208,15.305-.268,22.959q-.011,1.565-.02,3.135c0,1.048-.053,2.112.012,3.16a.26.26,0,0,0,.521,0c.113-1.847.028-3.726.04-5.575q.023-2.852.05-5.707c.035-3.891.093-7.784.1-11.677,0-2.1-.018-4.2-.025-6.3a.2.2,0,0,0-.405,0Z" transform="translate(-251.415 -357.398)"/></g><g transform="translate(291.815 398.084)"><path class="a" d="M253.328,357.934c.32,7.4.155,14.818.013,22.219-.04,2.052-.148,4.113-.048,6.163a.24.24,0,0,0,.48,0c.143-1.822.125-3.656.16-5.482.035-1.854.073-3.708.1-5.56.055-3.728.075-7.456-.025-11.184q-.083-3.078-.3-6.155c-.018-.24-.39-.245-.38,0Z" transform="translate(-253.251 -357.752)"/></g><g transform="translate(295.835 397.863)"><path class="a" d="M254.858,357.849c.47,7.641.741,15.3.881,22.952q.03,1.633.055,3.26c.015,1.081-.033,2.187.083,3.26a.265.265,0,0,0,.53,0c.083-.968.018-1.962,0-2.932-.013-.953-.03-1.9-.045-2.855q-.053-2.849-.128-5.7-.158-5.742-.485-11.477c-.128-2.172-.31-4.341-.508-6.505-.022-.243-.4-.25-.385,0Z" transform="translate(-254.858 -357.664)"/></g><g transform="translate(300.091 398.541)"><path class="a" d="M256.6,358.093c-.123,1.837.038,3.718.09,5.557q.075,2.781.165,5.557.18,5.6.365,11.2.105,3.149.2,6.3c.01.338.54.338.528,0-.258-7.439-.453-14.878-.728-22.314-.037-1.036-.073-2.072-.113-3.105-.043-1.058-.045-2.137-.183-3.188a.164.164,0,0,0-.328,0Z" transform="translate(-256.559 -357.935)"/></g><g transform="translate(303.623 398.528)"><path class="a" d="M258.365,358.108c-.44,7.7-.425,15.448-.36,23.165q.015,1.633.037,3.263c.015,1.083-.02,2.184.093,3.263a.235.235,0,0,0,.47,0c.065-.973.005-1.962-.01-2.937q-.019-1.426-.035-2.855-.026-2.894-.025-5.79c0-3.863.045-7.724.108-11.585.035-2.174.078-4.349.09-6.523a.184.184,0,0,0-.368,0Z" transform="translate(-257.97 -357.93)"/></g><g transform="translate(307.49 399.013)"><path class="a" d="M259.761,358.217a17.044,17.044,0,0,0-.183,2.722c-.025.951-.045,1.9-.052,2.852q-.023,2.811.01,5.622c.048,3.776.19,7.549.4,11.32.12,2.114.258,4.231.438,6.34.028.338.558.343.53,0-.548-7.479-.866-14.968-.853-22.469q0-1.546.013-3.1a23.615,23.615,0,0,0-.055-3.26c-.018-.128-.223-.19-.25-.033Z" transform="translate(-259.516 -358.124)"/></g><g transform="translate(311.302 405.383)"><path class="a" d="M261.068,360.763c-.083,1.491.033,3,.1,4.489.063,1.471.14,2.94.21,4.411q.218,4.447.415,8.9c.038.816.075,1.634.11,2.45.02.435.04.871.058,1.306a4.136,4.136,0,0,0,.135,1.191.175.175,0,0,0,.335,0,7.589,7.589,0,0,0,.007-2.169c-.027-.736-.057-1.471-.085-2.207-.06-1.5-.12-2.995-.193-4.491-.143-2.995-.28-5.993-.47-8.985a46.958,46.958,0,0,0-.435-4.922c-.017-.11-.18-.078-.185.025Z" transform="translate(-261.039 -360.669)"/></g><g transform="translate(315.834 405.33)"><path class="a" d="M263,360.788c-.178,3.088-.153,6.183-.128,9.273q.038,4.594.2,9.188c.03.868.068,1.734.108,2.6a20.149,20.149,0,0,0,.168,2.577c.048.258.413.173.433-.06a19.744,19.744,0,0,0-.065-2.274c-.03-.758-.058-1.516-.088-2.274q-.086-2.319-.148-4.634-.12-4.594-.13-9.19c0-1.737-.01-3.47-.06-5.207a.147.147,0,0,0-.293,0Z" transform="translate(-262.851 -360.648)"/></g><g transform="translate(318.447 402.929)"><path class="a" d="M264.2,359.832c.048,3.49.19,6.981.2,10.474q.023,5.2-.218,10.4c-.045.973-.09,1.947-.145,2.92a14.694,14.694,0,0,0-.093,2.887c.03.193.313.163.36,0a10.97,10.97,0,0,0,.253-2.482q.086-1.295.15-2.595c.09-1.759.143-3.518.18-5.277.073-3.465.075-6.936-.045-10.4-.068-1.979-.158-3.956-.35-5.925-.018-.188-.3-.2-.3,0Z" transform="translate(-263.895 -359.689)"/></g><g transform="translate(366.292 423.675)"><path class="a" d="M283.017,368.123q.694,11.928,1.524,23.843.818,11.841,1.644,23.68c.313,4.464.563,8.935.946,13.391.03.328.535.338.518,0-.21-3.976-.538-7.949-.811-11.92s-.543-7.949-.821-11.923q-.826-11.841-1.671-23.68-.484-6.7-1.033-13.391c-.015-.188-.308-.193-.3,0Z" transform="translate(-283.017 -367.98)"/></g><g transform="translate(373.545 411.891)"><path class="a" d="M285.916,363.4c.526,8.807,1.311,17.6,2.052,26.387q1.107,13.11,2.217,26.222c.418,4.937.751,9.893,1.274,14.82.033.3.5.315.483,0-.27-4.4-.708-8.8-1.073-13.191s-.726-8.8-1.091-13.194q-1.088-13.114-2.192-26.222c-.418-4.944-.858-9.888-1.389-14.822-.02-.175-.293-.183-.28,0Z" transform="translate(-285.916 -363.27)"/></g><g transform="translate(382.341 407.894)"><path class="a" d="M289.431,361.871c.085,8.715.453,17.432.8,26.14q.507,12.986,1.163,25.967.188,3.671.385,7.346c.133,2.445.2,4.907.433,7.344.033.333.533.345.528,0-.04-2.177-.213-4.354-.328-6.528s-.225-4.354-.335-6.531q-.323-6.53-.623-13.061-.593-12.986-1.048-25.972c-.178-4.9-.325-9.806-.56-14.7a.205.205,0,0,0-.41,0Z" transform="translate(-289.431 -361.673)"/></g><g transform="translate(390.017 416.437)"><path class="a" d="M292.5,365.252c0,1.769.128,3.54.215,5.3s.185,3.538.28,5.3c.188,3.538.4,7.073.6,10.611q.6,10.606,1.214,21.218l.34,5.877c.118,2.009.17,4.038.408,6.038.033.283.455.3.455,0,.008-1.769-.145-3.541-.245-5.3l-.3-5.3q-.3-5.307-.606-10.609c-.408-7.073-.8-14.147-1.221-21.22-.118-1.959-.243-3.916-.363-5.875-.125-2.012-.21-4.038-.438-6.04-.025-.213-.343-.225-.343,0Z" transform="translate(-292.499 -365.087)"/></g><g transform="translate(386.004 435.898)"><path class="a" d="M293.475,410.882c.068-2.49-.037-4.989-.118-7.479s-.185-4.987-.315-7.476q-.387-7.394-1.131-14.765c-.275-2.755-.535-5.522-.923-8.264-.008-.05-.1-.038-.093.013.218,2.485.505,4.959.718,7.444q.315,3.686.575,7.374c.348,4.922.628,9.851.808,14.78.1,2.79.113,5.587.265,8.375a.106.106,0,0,0,.213,0Z" transform="translate(-290.895 -372.865)"/></g><g transform="translate(365.797 455.432)"><path class="a" d="M285.309,411.34c-.033-.488,0-.978-.025-1.469-.03-.518-.065-1.033-.1-1.549-.063-1.008-.12-2.014-.19-3.02q-.21-3.018-.428-6.038-.42-5.945-.873-11.888c-.168-2.207-.3-4.451-.676-6.633-.02-.113-.205-.085-.2.028.073,1.989.29,3.976.428,5.96s.288,3.951.433,5.925q.435,5.956.9,11.913c.085,1.113.18,2.229.273,3.343l.138,1.634c.025.3.055.6.083.9s.113.6.138.9c0,.065.108.065.1,0Z" transform="translate(-282.819 -380.672)"/></g><g transform="translate(368.714 422.399)"><path class="a" d="M285.824,390.494c.03-2.992-.118-5.99-.29-8.978q-.259-4.526-.718-9.035c-.085-.833-.175-1.664-.27-2.5a17.067,17.067,0,0,0-.355-2.44.1.1,0,0,0-.205.027,18.366,18.366,0,0,0,.205,2.252c.083.723.163,1.449.24,2.172q.236,2.256.425,4.514c.25,2.96.458,5.922.6,8.888.08,1.7.14,3.4.228,5.1a.071.071,0,0,0,.143,0Z" transform="translate(-283.985 -367.47)"/></g><g transform="translate(382.999 408.977)"><path class="a" d="M291.723,384.465c-.4-5.822-.861-11.642-1.324-17.46-.128-1.614-.265-3.22-.49-4.822-.018-.123-.22-.093-.215.03.073,2.9.4,5.8.648,8.69q.375,4.3.766,8.607c.148,1.651.318,3.3.478,4.954.007.088.143.09.138,0Z" transform="translate(-289.694 -362.106)"/></g><g transform="translate(379.68 407.677)"><path class="a" d="M290.365,382.956c-.661-5.542-1.206-11.1-1.484-16.677-.04-.783-.073-1.564-.1-2.347a15.89,15.89,0,0,0-.173-2.287c-.02-.1-.15-.063-.163.023a24.109,24.109,0,0,0,.068,4.206q.105,2.1.26,4.2c.205,2.772.455,5.545.818,8.3q.3,2.3.681,4.589c.008.055.1.043.1-.012Z" transform="translate(-288.368 -361.586)"/></g><g transform="translate(375.975 410.568)"><path class="a" d="M289.1,389.407c-.013-3.48-.21-6.968-.43-10.439q-.33-5.176-.826-10.339c-.185-1.919-.325-3.861-.618-5.765-.03-.19-.353-.148-.338.045.133,1.721.378,3.438.55,5.157s.33,3.44.475,5.164q.435,5.168.716,10.346c.108,1.944.183,3.888.3,5.83a.085.085,0,0,0,.17,0Z" transform="translate(-286.887 -362.742)"/></g><g transform="translate(371.895 414.529)"><path class="a" d="M287.117,389.657q-.529-9.886-1.146-19.767-.083-1.385-.175-2.765a13.51,13.51,0,0,0-.27-2.717c-.028-.1-.21-.12-.225,0a11.5,11.5,0,0,0,.053,2.309c.052.841.105,1.681.163,2.522l.343,4.962c.225,3.28.443,6.563.691,9.843q.214,2.807.43,5.612c.007.088.143.09.138,0Z" transform="translate(-285.256 -364.325)"/></g><g transform="translate(249.628 451.305)"><path class="a" d="M236.462,379.308c.208.138.428.25.63.4a4.646,4.646,0,0,1,.543.475,4.407,4.407,0,0,1,.463.553c.068.1.138.2.2.3a1.931,1.931,0,0,0,.225.325.157.157,0,0,0,.265-.11,1.711,1.711,0,0,0-.328-.743,3.9,3.9,0,0,0-1.148-1.118,2.6,2.6,0,0,0-.736-.355.154.154,0,0,0-.118.28Z" transform="translate(-236.391 -379.023)"/></g><g transform="translate(250.713 449.154)"><path class="a" d="M236.871,378.428c.28.248.563.488.853.723.15.12.3.248.45.358a1.68,1.68,0,0,0,.493.3.178.178,0,0,0,.2-.258,1.6,1.6,0,0,0-.405-.383c-.153-.125-.318-.238-.478-.353-.3-.22-.611-.428-.926-.633a.155.155,0,0,0-.185.243Z" transform="translate(-236.824 -378.163)"/></g><g transform="translate(251.737 446.54)"><path class="a" d="M237.447,377.648a1.81,1.81,0,0,1,1.116-.037,2.628,2.628,0,0,1,.508.223,1.827,1.827,0,0,1,.238.153.536.536,0,0,0,.293.158.173.173,0,0,0,.17-.173c.01-.228-.293-.433-.458-.55a1.747,1.747,0,0,0-.643-.253,1.942,1.942,0,0,0-1.354.17c-.173.08-.05.38.13.31Z" transform="translate(-237.234 -377.118)"/></g><g transform="translate(253.497 443.712)"><path class="a" d="M238.024,376.321l.666.47c.108.078.218.148.33.218l.178.11a.447.447,0,0,0,.23.08.164.164,0,0,0,.143-.245.989.989,0,0,0-.345-.3c-.108-.078-.218-.15-.328-.218l-.691-.428a.181.181,0,0,0-.245.063.184.184,0,0,0,.063.245Z" transform="translate(-237.937 -375.988)"/></g><g transform="translate(255.224 441.427)"><path class="a" d="M238.787,375.508l.018.008.053.025.1.048c.06.033.12.068.18.108l.085.06c.005,0,.057.043.015.01l.045.035c.053.045.105.093.155.14s.105.093.153.145l.07.078.035.045c.013.012.028.032.008.008a2.484,2.484,0,0,0,.3.353.145.145,0,0,0,.245-.1.944.944,0,0,0-.165-.473c-.05-.075-.1-.148-.158-.215a1.567,1.567,0,0,0-.158-.18,2.556,2.556,0,0,0-.856-.515.219.219,0,0,0-.27.153.226.226,0,0,0,.153.27Z" transform="translate(-238.627 -375.075)"/></g><g transform="translate(256.749 438.087)"><path class="a" d="M239.325,374.071a4.555,4.555,0,0,1,.973.733,5.127,5.127,0,0,1,.408.463,2.323,2.323,0,0,0,.4.5.169.169,0,0,0,.253-.148,1.232,1.232,0,0,0-.293-.608,3.852,3.852,0,0,0-.453-.518,3.66,3.66,0,0,0-1.106-.728.179.179,0,0,0-.18.31Z" transform="translate(-239.237 -373.74)"/></g><g transform="translate(247.4 455.926)"><path class="a" d="M235.657,381.214a2.548,2.548,0,0,1,1.434.393,4.037,4.037,0,0,1,1.063,1.058.121.121,0,0,0,.22-.093,2.113,2.113,0,0,0-1.051-1.326,2.712,2.712,0,0,0-1.666-.36c-.2.023-.215.335,0,.328Z" transform="translate(-235.5 -380.87)"/></g><g transform="translate(245.806 460.144)"><path class="a" d="M234.92,382.862q.57.45,1.143.888c.188.143.373.3.565.43a2.708,2.708,0,0,0,.621.385c.14.047.3-.138.2-.263a2.626,2.626,0,0,0-.53-.465c-.2-.15-.4-.29-.606-.433-.39-.278-.783-.55-1.178-.823-.165-.113-.378.155-.218.28Z" transform="translate(-234.863 -382.555)"/></g><g transform="translate(247.844 453.753)"><path class="a" d="M235.793,380.321a6.33,6.33,0,0,1,1.4.728c.21.145.4.315.6.478.1.085.21.148.31.228s.208.183.318.265.218-.073.17-.17a1.989,1.989,0,0,0-.22-.353,2.208,2.208,0,0,0-.263-.345,4.764,4.764,0,0,0-2.222-1.146.163.163,0,0,0-.085.315Z" transform="translate(-235.678 -380.001)"/></g><g transform="translate(243.709 464.518)"><path class="a" d="M234.23,384.878a5.065,5.065,0,0,1,1.882-.078,5.169,5.169,0,0,1,.913.22c.14.045.28.093.415.15a2.667,2.667,0,0,0,.455.185.181.181,0,0,0,.173-.3,2.257,2.257,0,0,0-.886-.485,4.374,4.374,0,0,0-1.008-.233,4.557,4.557,0,0,0-2.032.22.166.166,0,0,0,.088.32Z" transform="translate(-234.025 -384.304)"/></g><g transform="translate(242.408 468.237)"><path class="a" d="M233.777,386.919a2.887,2.887,0,0,1,2.117-.666,2.989,2.989,0,0,1,1.061.26,3.749,3.749,0,0,1,.493.268c.163.11.3.255.46.358.145.09.273-.08.213-.213a2,2,0,0,0-.961-.823,3.355,3.355,0,0,0-1.266-.31,3.093,3.093,0,0,0-2.342.9c-.143.148.073.358.225.225Z" transform="translate(-233.505 -385.79)"/></g><g transform="translate(240.44 473.519)"><path class="a" d="M232.95,389.23a7.027,7.027,0,0,1,2.8-.813,7.49,7.49,0,0,1,1.4.033c.473.052.938.2,1.411.22.138.007.158-.17.063-.238a3.194,3.194,0,0,0-1.406-.47,6.444,6.444,0,0,0-4.424,1,.157.157,0,0,0,.158.27Z" transform="translate(-232.719 -387.901)"/></g><g transform="translate(240.435 478.029)"><path class="a" d="M232.933,392.332a6.94,6.94,0,0,1,.976-1.068,4.847,4.847,0,0,1,1.319-.758,4.764,4.764,0,0,1,1.434-.305c.243-.01.485,0,.728.01s.5.075.748.068a.126.126,0,0,0,.063-.233,2.625,2.625,0,0,0-1.576-.338,4.7,4.7,0,0,0-1.591.345,4.064,4.064,0,0,0-2.309,2.157c-.04.115.133.22.21.123Z" transform="translate(-232.717 -389.703)"/></g><g transform="translate(240.669 480.788)"><path class="a" d="M233.04,396.08a7.939,7.939,0,0,1,2.239-3.293,8.461,8.461,0,0,1,3.581-1.684.153.153,0,0,0-.04-.3,6.03,6.03,0,0,0-3.853,1.611,6.309,6.309,0,0,0-2.154,3.6.118.118,0,0,0,.228.063Z" transform="translate(-232.81 -390.806)"/></g><g transform="translate(242.749 483.732)"><path class="a" d="M234.2,398.444a7.151,7.151,0,0,1,.01-2,5.489,5.489,0,0,1,.758-1.824,5.189,5.189,0,0,1,1.369-1.444,5.475,5.475,0,0,1,.866-.493,6.108,6.108,0,0,0,.913-.368.173.173,0,0,0-.043-.313,2,2,0,0,0-1.068.213,4.43,4.43,0,0,0-.931.51,5.769,5.769,0,0,0-1.526,1.6,4.845,4.845,0,0,0-.656,4.206c.065.15.32.075.308-.085Z" transform="translate(-233.642 -391.983)"/></g><g transform="translate(246.415 487.99)"><path class="a" d="M235.783,399.618a5.849,5.849,0,0,1-.208-1.929,3.96,3.96,0,0,1,1.954-3.08,4.983,4.983,0,0,1,.8-.4c.268-.1.558-.143.816-.26a.131.131,0,0,0-.03-.238,2.971,2.971,0,0,0-1.874.493,4.376,4.376,0,0,0-1.431,1.369,4.045,4.045,0,0,0-.24,4.133.117.117,0,0,0,.213-.088Z" transform="translate(-235.107 -393.684)"/></g><g transform="translate(251.254 491.981)"><path class="a" d="M237.7,400.273a4.69,4.69,0,0,1-.015-2.575,3.927,3.927,0,0,1,.565-1.136,9.262,9.262,0,0,1,.921-.958c.118-.125,0-.383-.183-.313a3.493,3.493,0,0,0-1.751,2.249,3.577,3.577,0,0,0,.2,2.842.144.144,0,0,0,.263-.11Z" transform="translate(-237.041 -395.279)"/></g><g transform="translate(256.275 493.344)"><path class="a" d="M239.857,401.568a4.814,4.814,0,0,1-.213-2.988,4.721,4.721,0,0,1,.593-1.374,5.092,5.092,0,0,1,.458-.628,3.773,3.773,0,0,0,.48-.54.145.145,0,0,0-.163-.21,2.541,2.541,0,0,0-1.176,1.056,4.639,4.639,0,0,0-.668,1.564,4.282,4.282,0,0,0,.465,3.215c.07.113.278.04.223-.1Z" transform="translate(-239.048 -395.824)"/></g><g transform="translate(261.697 494.587)"><path class="a" d="M242.185,396.391a4.947,4.947,0,0,0-.966,2.732,3.752,3.752,0,0,0,.8,2.732.149.149,0,0,0,.248-.145c-.123-.415-.323-.806-.435-1.229a4.983,4.983,0,0,1-.168-1.359,4.654,4.654,0,0,1,.8-2.567c.12-.175-.16-.33-.283-.165Z" transform="translate(-241.214 -396.321)"/></g><g transform="translate(266.477 496.086)"><path class="a" d="M244.547,396.962a5.206,5.206,0,0,0-1.354,2.892,6.1,6.1,0,0,0-.027,1.611,2.779,2.779,0,0,0,.523,1.459.13.13,0,0,0,.22-.09c-.018-.468-.16-.936-.22-1.4a5.825,5.825,0,0,1,.005-1.519,6.863,6.863,0,0,1,1.078-2.777c.09-.138-.113-.29-.225-.173Z" transform="translate(-243.125 -396.92)"/></g><g transform="translate(271.71 497.021)"><path class="a" d="M246.264,397.332a5.164,5.164,0,0,0-.986,2.612,6.749,6.749,0,0,0-.043,1.421,2.633,2.633,0,0,0,.4,1.376.123.123,0,0,0,.228-.063,7.7,7.7,0,0,0-.08-1.314,7.628,7.628,0,0,1,.008-1.331,12.98,12.98,0,0,1,.678-2.585.123.123,0,0,0-.205-.118Z" transform="translate(-245.216 -397.294)"/></g><g transform="translate(276.272 496.992)"><path class="a" d="M247.224,397.414a11.053,11.053,0,0,0-.163,2.74c.025.455.075.911.143,1.361.035.23.085.458.138.686a1.735,1.735,0,0,0,.208.618.207.207,0,0,0,.383-.1,2.237,2.237,0,0,0-.1-.651c-.038-.2-.07-.4-.1-.593a13.188,13.188,0,0,1-.17-1.369,19.409,19.409,0,0,1,.025-2.642.185.185,0,0,0-.363-.048Z" transform="translate(-247.039 -397.282)"/></g><g transform="translate(279.67 496.325)"><path class="a" d="M248.417,397.309a20.711,20.711,0,0,1,.948,2.495q.18.612.308,1.236c.043.208.083.418.125.626a3.313,3.313,0,0,0,.075.355,2.78,2.78,0,0,0,.158.28.166.166,0,0,0,.3-.037,2.318,2.318,0,0,0,.078-.315,2.2,2.2,0,0,0-.038-.36c-.025-.208-.065-.413-.108-.615a13.521,13.521,0,0,0-.375-1.361,11.429,11.429,0,0,0-1.133-2.5.2.2,0,0,0-.338.2Z" transform="translate(-248.397 -397.016)"/></g><g transform="translate(283.938 494.843)"><path class="a" d="M250.155,396.8a8.188,8.188,0,0,1,1.339,2.447,7.767,7.767,0,0,1,.32,1.321c.035.225.058.453.088.678a2.286,2.286,0,0,0,.123.653.189.189,0,0,0,.323,0,1.642,1.642,0,0,0,.105-.691,4.286,4.286,0,0,0-.06-.713,7.8,7.8,0,0,0-.375-1.481,7.23,7.23,0,0,0-1.554-2.522c-.2-.208-.475.093-.308.308Z" transform="translate(-250.103 -396.423)"/></g><g transform="translate(287.322 492.569)"><path class="a" d="M251.6,395.924a4.757,4.757,0,0,1,2.425,2.124,4.911,4.911,0,0,1,.543,1.509,9.113,9.113,0,0,1,.07,1.631c0,.19.3.3.385.105a4.159,4.159,0,0,0-.5-3.535,4.784,4.784,0,0,0-2.81-2.234.208.208,0,0,0-.11.4Z" transform="translate(-251.455 -395.514)"/></g><g transform="translate(289.786 490.241)"><path class="a" d="M252.569,394.872a3.771,3.771,0,0,1,3.34,2.762,3.178,3.178,0,0,1,.12.733,2.984,2.984,0,0,0,.045.778.175.175,0,0,0,.288.077c.373-.41.228-1.229.1-1.711a4.1,4.1,0,0,0-.826-1.544,3.557,3.557,0,0,0-3.07-1.361.133.133,0,0,0,0,.265Z" transform="translate(-252.441 -394.584)"/></g><g transform="translate(292.987 487.459)"><path class="a" d="M253.92,393.99a4.058,4.058,0,0,1,1.559.18,3.808,3.808,0,0,1,1.329.836,3.652,3.652,0,0,1,.891,1.281,3.767,3.767,0,0,1,.21.733,3.05,3.05,0,0,0,.145.783.177.177,0,0,0,.3,0,1.265,1.265,0,0,0,.108-.858,3.445,3.445,0,0,0-.223-.866,4.283,4.283,0,0,0-1.043-1.5,3.643,3.643,0,0,0-3.33-.993.209.209,0,0,0,.055.408Z" transform="translate(-253.72 -393.472)"/></g><g transform="translate(296.509 484.603)"><path class="a" d="M255.389,392.967a4.215,4.215,0,0,1,1.349-.068,3.555,3.555,0,0,1,1.279.47,3.41,3.41,0,0,1,.991.9,3.15,3.15,0,0,1,.335.566c.088.2.15.49.338.61a.216.216,0,0,0,.29-.078c.138-.223-.012-.583-.108-.8a3.356,3.356,0,0,0-.368-.646,3.916,3.916,0,0,0-1.211-1.063,3.355,3.355,0,0,0-3.053-.265c-.22.115-.055.41.158.375Z" transform="translate(-255.127 -392.331)"/></g><g transform="translate(298.912 480.951)"><path class="a" d="M256.311,391.333a2.987,2.987,0,0,1,2.352.736,3.059,3.059,0,0,1,.753,1,2.728,2.728,0,0,1,.2.573c.025.11.06.218.083.328a1.213,1.213,0,0,0,.08.315.157.157,0,0,0,.27,0,1.2,1.2,0,0,0,.078-.733,2.75,2.75,0,0,0-.218-.716,3.375,3.375,0,0,0-.906-1.174,3,3,0,0,0-2.787-.671.179.179,0,0,0,.1.345Z" transform="translate(-256.088 -390.871)"/></g><g transform="translate(301.961 477.5)"><path class="a" d="M257.491,389.952a5.018,5.018,0,0,1,2.4.405,5.589,5.589,0,0,1,1.048.616,6.092,6.092,0,0,0,.951.761.151.151,0,0,0,.218-.168,1.972,1.972,0,0,0-.793-1.028,4.77,4.77,0,0,0-3.878-.956c-.208.037-.163.39.05.37Z" transform="translate(-257.306 -389.492)"/></g><g transform="translate(303.526 473.723)"><path class="a" d="M258.157,388.647a2.969,2.969,0,0,1,2.3-.033,3.332,3.332,0,0,1,1.361,1.013c.128.155.233.328.365.478a.149.149,0,0,0,.253-.105,1.957,1.957,0,0,0-.646-1.128,3.218,3.218,0,0,0-1.184-.7,3.106,3.106,0,0,0-2.6.218.15.15,0,0,0,.15.26Z" transform="translate(-257.932 -387.982)"/></g><g transform="translate(306.137 471.158)"><path class="a" d="M259.247,387.625a2.115,2.115,0,0,1,1.979.03,2.576,2.576,0,0,1,.8.631,2.515,2.515,0,0,1,.478.921.155.155,0,0,0,.3-.04,2.184,2.184,0,0,0-1.351-1.939,2.465,2.465,0,0,0-2.392.08.184.184,0,0,0,.185.318Z" transform="translate(-258.975 -386.957)"/></g><g transform="translate(308.294 467.795)"><path class="a" d="M260,385.991a2.593,2.593,0,0,1,1.762.52,2.557,2.557,0,0,1,.61.661c.088.135.163.275.243.415a1.44,1.44,0,0,0,.22.405.13.13,0,0,0,.2-.027.842.842,0,0,0-.018-.548,1.71,1.71,0,0,0-.22-.493,2.961,2.961,0,0,0-.766-.793,2.632,2.632,0,0,0-2.077-.46.164.164,0,0,0,.045.32Z" transform="translate(-259.837 -385.613)"/></g><g transform="translate(310.268 464.612)"><path class="a" d="M260.843,384.764a2.511,2.511,0,0,1,1.691.353,3.031,3.031,0,0,1,.666.573,2.608,2.608,0,0,1,.238.335c.08.133.18.253.263.385a.14.14,0,0,0,.258-.07,1.388,1.388,0,0,0-.118-.53,2.256,2.256,0,0,0-.275-.425,2.644,2.644,0,0,0-.8-.673,2.69,2.69,0,0,0-2.019-.283c-.22.06-.123.368.093.335Z" transform="translate(-260.626 -384.341)"/></g><g transform="translate(311.306 460.693)"><path class="a" d="M261.3,383.389a2.463,2.463,0,0,1,1.792.083,2.792,2.792,0,0,1,.753.49,2.681,2.681,0,0,1,.315.338,1.539,1.539,0,0,0,.165.173c.06.06.1.138.18.173a.155.155,0,0,0,.223-.09.822.822,0,0,0-.12-.515,2.6,2.6,0,0,0-.345-.43,2.943,2.943,0,0,0-3.078-.638c-.255.1-.153.515.115.418Z" transform="translate(-261.041 -382.775)"/></g><g transform="translate(313.296 458.005)"><path class="a" d="M262.1,382.227a2.655,2.655,0,0,1,1.319.118,2.421,2.421,0,0,1,.573.29,3.039,3.039,0,0,1,.263.18,1.437,1.437,0,0,0,.3.233.2.2,0,0,0,.293-.225,1.316,1.316,0,0,0-.535-.628,2.672,2.672,0,0,0-.733-.363,2.563,2.563,0,0,0-1.591-.01.21.21,0,0,0,.11.405Z" transform="translate(-261.836 -381.7)"/></g><g transform="translate(313.73 454.54)"><path class="a" d="M262.236,380.917a3.608,3.608,0,0,1,2.615.263c.135.068.265.148.4.22a2.1,2.1,0,0,0,.418.223.188.188,0,0,0,.21-.27,1.614,1.614,0,0,0-.758-.635,3.69,3.69,0,0,0-.981-.333,3.593,3.593,0,0,0-2,.173c-.218.088-.14.425.1.36Z" transform="translate(-262.01 -380.316)"/></g><g transform="translate(315.448 450.649)"><path class="a" d="M262.97,379.515a2.41,2.41,0,0,1,1.862-.175,2.75,2.75,0,0,1,.833.42,7.755,7.755,0,0,0,.721.633.121.121,0,0,0,.18-.105,1.233,1.233,0,0,0-.568-.918,2.728,2.728,0,0,0-1.033-.513,2.663,2.663,0,0,0-2.182.335.187.187,0,0,0,.188.323Z" transform="translate(-262.696 -378.76)"/></g><g transform="translate(317.703 446.619)"><path class="a" d="M263.856,377.763a1.323,1.323,0,0,1,.586-.12l.083.005c.008,0,.08.013.038.005.05.008.1.018.145.028s.105.025.158.043l.075.028.04.015c-.02-.007-.02-.007,0,0a1.6,1.6,0,0,1,.27.155s.068.05.03.02l.063.053c.04.035.08.073.118.11s.07.08.105.12l.052.063c.033.037-.01-.018.023.03a.8.8,0,0,0,.23.285l-.07-.07c.02.038.04.075.06.115.073.158.313.073.315-.085l-.005-.105c-.02.053-.02.055,0,.015a.2.2,0,0,0,.02-.093.587.587,0,0,0-.057-.213,1.388,1.388,0,0,0-.228-.39,1.733,1.733,0,0,0-.628-.46,1.63,1.63,0,0,0-1.574.075.2.2,0,0,0-.083.255.2.2,0,0,0,.24.118Z" transform="translate(-263.598 -377.15)"/></g><g transform="translate(227.578 330.902)"><g transform="translate(99.61 30.598)"><path class="a" d="M274.29,343.418a8.16,8.16,0,0,0-3.946-.09,4.007,4.007,0,0,0-2.572,1.311,2.359,2.359,0,0,0,.225,2.835c.808,1.148,1.746,2.219,2.617,3.325a6.992,6.992,0,0,0,2.419,2.417c1.174.485,2.352-.248,3.338-.848a16.426,16.426,0,0,0,2.782-2.129,7.219,7.219,0,0,0,2.154-2.752c.405-1.434-1.076-1.987-2.122-2.442a11.572,11.572,0,0,0-4.291-1.324.47.47,0,0,0-.235.868,20.386,20.386,0,0,0,2.775.981q.7.259,1.384.56a4.536,4.536,0,0,1,1.239.623c.863.818-2.84,3.681-3.465,4.116a8.982,8.982,0,0,1-2.4,1.356c-.966.278-1.661-.726-2.189-1.376q-1.047-1.287-2.087-2.582c-.53-.661-1.631-1.629-1.526-2.565s1.339-1.254,2.1-1.409a26.188,26.188,0,0,1,3.728-.3.293.293,0,0,0,.078-.573Z" transform="translate(-267.389 -343.131)"/></g><g transform="translate(82.927 24.696)"><path class="a" d="M283.7,347.445a23.508,23.508,0,0,0-2.7-3.285,9.564,9.564,0,0,0-2.6-2.239,13.431,13.431,0,0,0-6.505-1.138,17.841,17.841,0,0,0-6.308,1.256,13.715,13.715,0,0,0-2.695,1.451,5.6,5.6,0,0,0-2.139,2.182c-.168.41.37.713.7.535a28.12,28.12,0,0,0,2.257-1.794,12.793,12.793,0,0,1,2.542-1.326,17.064,17.064,0,0,1,5.765-1.1,12.273,12.273,0,0,1,6.03,1.053c2.087,1.128,3.375,3.4,5.32,4.739.205.143.458-.135.335-.338Z" transform="translate(-260.721 -340.772)"/></g><g transform="translate(80.582 31.131)"><path class="a" d="M270.153,344.392c-3.015-2.167-7.489-.768-9.293,2.312a.528.528,0,0,0,.45.786c1.386.118,3.1-.881,4.364-.128l-.108-.833c-2.857,2.43-6,5.36-5.77,9.451a.543.543,0,0,0,.916.38,8.12,8.12,0,0,1,4.1-1.776l-.458-.8a7.491,7.491,0,0,0-.458,6.881c.263.5,1.016.15.888-.375a9.667,9.667,0,0,1-.43-2.985,6.768,6.768,0,0,1,.916-2.985c.18-.315-.042-.851-.458-.8a9.439,9.439,0,0,0-4.862,2.074l.918.38c-.2-3.786,2.82-6.455,5.447-8.7a.536.536,0,0,0-.108-.833c-1.576-.931-3.235.135-4.9,0l.453.788a6.45,6.45,0,0,1,8.107-2.352.282.282,0,0,0,.283-.488Z" transform="translate(-259.784 -343.344)"/></g><g transform="translate(86.522 39.404)"><path class="a" d="M280.083,346.736c-1.989,3.185-4.934,5.672-7.706,8.147a16.9,16.9,0,0,1-4.591,3.45,7.077,7.077,0,0,1-2.677.531,5.721,5.721,0,0,1-1.271-.14,3.849,3.849,0,0,0-1.264-.26.437.437,0,0,0-.3.733c.5.65,1.676.738,2.445.791a7.9,7.9,0,0,0,2.877-.363,13.673,13.673,0,0,0,4.874-3.318c3.058-2.77,6.478-5.452,7.962-9.423.078-.208-.235-.323-.345-.148Z" transform="translate(-262.158 -346.651)"/></g><g transform="translate(108.195 40.047)"><path class="a" d="M270.835,347.2a21.417,21.417,0,0,0,5.94,8.455,24.976,24.976,0,0,0,4.211,2.99,21.877,21.877,0,0,0,2.435,1.189c.651.268,1.419.268,1.656-.528.13-.435-.41-.908-.813-.623-.258.183-1.606-.661-1.869-.8q-.976-.5-1.9-1.088a24.686,24.686,0,0,1-3.591-2.75,30.829,30.829,0,0,1-5.64-7.029c-.13-.223-.528-.075-.43.18Z" transform="translate(-270.82 -346.907)"/></g><g transform="translate(107.715 26.701)"><path class="a" d="M270.988,346.671c.756-.593,1.321-1.4,2.1-1.982a8.336,8.336,0,0,1,2.322-1.216,15.678,15.678,0,0,1,6.18-.591c3.721.318,7.564,2.357,8.412,6.268l1-.766c-1.414-1.068-4.058-2.129-5.777-1.2a.533.533,0,0,0,.128.963c.843.175,1.706.02,2.56.228a6.476,6.476,0,0,1,2.4,1.184c.513.393,1.106-.25,1-.766-.926-4.391-5.237-6.818-9.43-7.151a15.415,15.415,0,0,0-6.993.881c-1.6.681-3.8,2.134-4.254,3.946a.213.213,0,0,0,.353.205Z" transform="translate(-270.628 -341.574)"/></g><g transform="translate(119.424 34.16)"><path class="a" d="M275.541,345.2a13.87,13.87,0,0,1,10.239,8l.973-.748a19.065,19.065,0,0,0-5.993-2.672.651.651,0,0,0-.628,1.078,12.792,12.792,0,0,1,3.175,6.7l.928-.713c-1.414-1.043-3.465-1.909-5.222-1.384a.448.448,0,0,0,0,.858c.786.188,1.6.258,2.375.488a7.107,7.107,0,0,1,2.209,1.128c.5.368,1-.238.928-.713a14.126,14.126,0,0,0-3.483-7.279l-.626,1.078a17.976,17.976,0,0,1,5.667,2.57c.448.305,1.191-.213.971-.748-1.872-4.554-6.408-8.162-11.427-8.292a.329.329,0,0,0-.088.643Z" transform="translate(-275.308 -344.555)"/></g><g transform="translate(121.788 47.572)"><path class="a" d="M276.256,350.057c.005.078-.008.15,0,.228,0,.058.013.115.018.173.013.14,0,.273.013.41.025.278.075.553.09.833s.015.563.025.843c0,.143.023.283.033.425a1.173,1.173,0,0,0,.023.23c.023.083.075.135.1.21a.3.3,0,0,0,.533.068c.038-.063.085-.113.123-.178a.871.871,0,0,0,.075-.33,3.434,3.434,0,0,0,.04-.425,4.917,4.917,0,0,0-.118-.956,4.5,4.5,0,0,0-.248-.906c-.055-.125-.13-.238-.2-.358a1.287,1.287,0,0,0-.115-.208c-.037-.05-.083-.083-.118-.135-.078-.11-.288-.085-.278.075Z" transform="translate(-276.253 -349.915)"/></g><g transform="translate(96.853 18.418)"><path class="a" d="M273.644,344.853a14.066,14.066,0,0,0,.283-3.618,3.516,3.516,0,0,0-1.4-2.447,3.871,3.871,0,0,0-3.053-.38,4.833,4.833,0,0,0-2.339,1.339,3.158,3.158,0,0,0-.783,1.346c-.105.39-.13,1.131.283,1.374a.271.271,0,0,0,.275,0c.19-.128.205-.31.288-.465a4.271,4.271,0,0,0,.213-.4,2.269,2.269,0,0,1,.118-.248,3.5,3.5,0,0,1,.748-.971,3.687,3.687,0,0,1,2.457-.893,1.979,1.979,0,0,1,1.411.485,2.787,2.787,0,0,1,.668,1.206,6.886,6.886,0,0,1,.22,1.737,9.967,9.967,0,0,0,.27,1.979c.05.2.32.135.34-.048Z" transform="translate(-266.287 -338.263)"/></g><g transform="translate(109.886 19.9)"><path class="a" d="M272.4,343.921a3.69,3.69,0,0,1,.375-2.45,2.949,2.949,0,0,1,1.9-1.454,2.874,2.874,0,0,1,2.319.676,3.163,3.163,0,0,1,.783.988,5.235,5.235,0,0,0,.585,1.229.36.36,0,0,0,.56-.073c.55-.768-.165-1.924-.668-2.525A4.116,4.116,0,0,0,276,338.929a3.76,3.76,0,0,0-4.224,2.394,3.212,3.212,0,0,0,.053,2.752c.148.235.608.165.573-.155Z" transform="translate(-271.496 -338.856)"/></g><g transform="translate(82.038 0.605)"><path class="a" d="M279.442,331.424c-.528,1.7-.811,3.478-1.344,5.184a39.076,39.076,0,0,1-1.932,4.994,42.975,42.975,0,0,1-2.6,4.684c-.821,1.294-2.049,3.08-3.716,1.9a31.348,31.348,0,0,1-3.651-3.215,20.609,20.609,0,0,1-3.18-3.841c-.766-1.239-2.007-3.208-1-4.6.916-1.256,2.692-1.739,4.1-2.172a33.4,33.4,0,0,1,12.318-1.341c.833.063.828-1.236,0-1.3a34.4,34.4,0,0,0-12.808,1.426,9.321,9.321,0,0,0-4.461,2.355c-1.261,1.466-.843,3.178-.093,4.786,1.6,3.433,4.534,6.07,7.4,8.445,1.319,1.093,2.75,1.636,4.256.523,1.476-1.091,2.4-3,3.235-4.581a42.272,42.272,0,0,0,2.695-6.255,24.325,24.325,0,0,0,1.561-6.883.4.4,0,0,0-.786-.108Z" transform="translate(-260.366 -331.144)"/></g><g transform="translate(118.088 4.324)"><path class="a" d="M274.775,334.343a94.958,94.958,0,0,0,2.037,12.433c.225.991.458,1.979.708,2.963a2.128,2.128,0,0,0,1.159,1.674c1.7.691,3.766-.3,5.327-.926,2.432-.976,6.468-2.022,6.791-5.182.175-1.724-.888-3.508-1.674-4.972a19.249,19.249,0,0,0-3.023-4.266c-2.54-2.642-6.663-4.456-10.209-2.8-.6.28-.163,1.166.435,1.028a9.194,9.194,0,0,1,8.152,2.082,17.508,17.508,0,0,1,4.844,7.444c1.048,3.2-2.842,4.316-5.1,5.224-1.421.573-3,1.411-4.574,1.309-1.011-.065-1.033-1.224-1.236-2.022q-.334-1.317-.648-2.645c-.891-3.791-1.7-7.6-2.5-11.407-.058-.273-.518-.218-.493.068Z" transform="translate(-274.774 -332.63)"/></g><g transform="translate(104.616)"><path class="a" d="M269.886,339.1a14.147,14.147,0,0,1,.876-4.068,9.988,9.988,0,0,1,2.35-3.455l-.676-.278c.183,1.789.353,3.583.528,5.375.053.538.155,1.229.786,1.376.686.158,1.056-.505,1.359-.986a8.507,8.507,0,0,1,2.244-2.357,3.1,3.1,0,0,1,1.011-.6c.2-.023.153-.013.138.165a3.886,3.886,0,0,1-.173.638l-.378,1.371a6.852,6.852,0,0,0-.433,2.53.237.237,0,0,0,.438.118,7.369,7.369,0,0,0,.966-2.565l.328-1.2a3.548,3.548,0,0,0,.225-1.146.978.978,0,0,0-1.364-.828,6,6,0,0,0-1.8,1.123,9.158,9.158,0,0,0-1.511,1.554c-.238.313-.45.638-.656.971-.185.305-.2.388-.27,0-.165-.876-.223-1.789-.325-2.675q-.161-1.434-.32-2.865a.4.4,0,0,0-.676-.28,9.8,9.8,0,0,0-3.075,8.137c.037.25.393.163.41-.055Z" transform="translate(-269.389 -330.902)"/></g><g transform="translate(94.119 17.465)"><path class="a" d="M265.769,338.229a15.506,15.506,0,0,0,.057,1.636,15.861,15.861,0,0,1-.03,1.654,10.441,10.441,0,0,1-.258,1.6,4.875,4.875,0,0,0-.335,1.621.443.443,0,0,0,.743.308,1.686,1.686,0,0,0,.475-.826c.085-.263.15-.533.21-.8a12.372,12.372,0,0,0,.27-1.844,6.664,6.664,0,0,0-.485-3.523.351.351,0,0,0-.648.175Z" transform="translate(-265.194 -337.882)"/></g><g transform="translate(119.136 21.257)"><path class="a" d="M276.883,339.518a8.783,8.783,0,0,0-1.386,3.363,12.756,12.756,0,0,0-.258,1.847c-.03.465-.208,1.476.41,1.636.728.185.661-.868.678-1.294a14.854,14.854,0,0,1,.173-1.794c.193-1.208.56-2.375.871-3.553a.268.268,0,0,0-.488-.205Z" transform="translate(-275.192 -339.398)"/></g><g transform="translate(80.734 52.128)"><path class="a" d="M268.638,351.766c-6.563,2.827-10.436,11.7-8.117,18.448a7.333,7.333,0,0,0,3.03,4.083,5.033,5.033,0,0,0,4.987-.14c3.29-1.832,4.724-5.447,5.47-8.935a56.714,56.714,0,0,1,1.261-5.632,10.582,10.582,0,0,1,1.106-2.442,18.609,18.609,0,0,1,1.972-2.237.546.546,0,0,0-.658-.853,6.872,6.872,0,0,0-2.937,3.315,17.826,17.826,0,0,0-1.324,4.108c-.651,3.015-.968,6.253-2.732,8.877a6.994,6.994,0,0,1-4.311,3.215c-1.879.293-3.333-1.023-4.161-2.575-1.566-2.937-1.386-6.738-.4-9.826a16.364,16.364,0,0,1,7.129-8.878.307.307,0,0,0-.31-.53Z" transform="translate(-259.845 -351.736)"/></g><g transform="translate(106.053 52.782)"><path class="a" d="M277.783,352.046a15.5,15.5,0,0,0-6.516,7.481c-1.3,3.123-1.932,7.176-.435,10.341a7.625,7.625,0,0,0,8.072,4.186c3.786-.633,5.835-3.788,6.813-7.241a33.086,33.086,0,0,0,1.1-7.051c.073-1.244.1-2.49.1-3.733a23.761,23.761,0,0,0-.12-3.583c-.105-.716-1.081-.435-1.156.158-.228,1.834-.037,3.756-.1,5.6a40.364,40.364,0,0,1-.56,5.677c-.558,3.115-1.519,6.793-4.619,8.29a6.265,6.265,0,0,1-7.9-2.164c-1.736-2.592-1.291-6.285-.378-9.1a17.008,17.008,0,0,1,6.015-8.315c.32-.238.042-.758-.32-.548Z" transform="translate(-269.964 -351.997)"/></g><g transform="translate(28.741 52.743)"><path class="a" d="M239.195,352.5c2.487,1.917,5.78,2.83,8.785,3.551,3.333.8,6.728,1.371,10.1,1.952,7.021,1.209,14.087,2.149,21.175,2.867,4.043.41,8.1.806,12.168.993.8.038.783-1.171,0-1.239-13.929-1.179-27.874-2.5-41.6-5.242a47.823,47.823,0,0,1-5.079-1.269,55.469,55.469,0,0,1-5.267-2.1.281.281,0,0,0-.283.485Z" transform="translate(-239.065 -351.982)"/></g><g transform="translate(96.497 63.12)"><path class="a" d="M266.381,356.8a21.863,21.863,0,0,0,4.689,1.016,40.458,40.458,0,0,0,4.8.32.517.517,0,0,0,0-1.033,44.6,44.6,0,0,1-4.732-.3c-1.564-.18-3.105-.49-4.667-.676-.408-.048-.428.55-.09.673Z" transform="translate(-266.145 -356.129)"/></g><g transform="translate(122.11 59.088)"><path class="a" d="M276.518,361.69c2.442,1.2,5.577.871,8.162.405,3.055-.553,6.033-1.521,9.138-1.786a.566.566,0,0,0,.283-1.046c-2.359-1.461-5.159-1.459-7.8-1.972a35.513,35.513,0,0,1-4.384-1.176c-1.484-.488-2.93-1.131-4.426-1.576-.57-.17-.976.721-.415.981a39.976,39.976,0,0,0,8.48,2.767c2.665.563,5.6.475,7.982,1.947l.285-1.048a68.87,68.87,0,0,0-8.532,1.691,25.989,25.989,0,0,1-4.344.621,23.558,23.558,0,0,1-4.279-.34c-.285-.037-.39.413-.145.533Z" transform="translate(-276.381 -354.517)"/></g><g transform="translate(30.038 52.543)"><path class="a" d="M293.531,356.612a91.626,91.626,0,0,0-10.622-1.394c-3.538-.4-7.091-.878-10.646-1.071-3.485-.188-6.966.11-10.451.15a83.3,83.3,0,0,1-10.389-.518c-2.039-.235-4.063-.565-6.083-.928q-1.4-.251-2.785-.55a6.124,6.124,0,0,0-2.712-.33.356.356,0,0,0-.155.591,3.941,3.941,0,0,0,1.932.761q1.385.312,2.78.576c1.654.315,3.315.558,4.987.761a92.105,92.105,0,0,0,10.534.686c3.54.02,7.073-.3,10.614-.265s7.071.513,10.586.881c2.057.215,4.118.418,6.178.62a53.741,53.741,0,0,0,6.178.445.211.211,0,0,0,.055-.413Z" transform="translate(-239.583 -351.902)"/></g><g transform="translate(28.54 50.469)"><path class="a" d="M239.12,351.456a39.093,39.093,0,0,0,5.47,1.219c1.842.343,3.683.673,5.53.978,3.628.6,7.269,1.088,10.934,1.374,7.4.578,14.818-.05,22.221.49,4.214.308,8.41.816,12.6,1.324.646.078.643-.936,0-1.013a166.065,166.065,0,0,0-22.2-1.566c-3.678.053-7.349.138-11.024-.085-3.8-.228-7.581-.681-11.345-1.231q-3.021-.443-6.028-.966a48.591,48.591,0,0,0-6.108-.906.2.2,0,0,0-.053.383Z" transform="translate(-238.985 -351.073)"/></g><g transform="translate(122.739 58.216)"><path class="a" d="M276.809,354.664a19.7,19.7,0,0,0,3.9.761q2.083.278,4.171.5c2.73.288,5.472.473,8.212.646,2.417.153,4.852.208,7.256.485,1.812.21,3.946.7,5.745.2.533-.145.45-1.048-.135-.993a27.005,27.005,0,0,1-5.61-.265c-2.407-.273-4.839-.325-7.256-.475-2.687-.165-5.37-.373-8.052-.6q-2.008-.169-4.011-.393a29.7,29.7,0,0,0-4.156-.353.251.251,0,0,0-.068.49Z" transform="translate(-276.632 -354.169)"/></g><g transform="translate(0 50.215)"><path class="a" d="M256.422,350.985c-6.378,1.982-12.145,6.508-16.5,11.467a49,49,0,0,0-10.174,18.934,55.352,55.352,0,0,0-1.942,10.972c-.32,4.211-.218,8.44-.17,12.658.085,7.879-.163,15.878,1.086,23.685a35.434,35.434,0,0,0,3.638,11.685c1.629,2.92,4.108,5.462,7.559,5.89.828.1.821-1.2,0-1.3-3.04-.378-5.177-2.922-6.548-5.462a33.662,33.662,0,0,1-3.173-10c-1.349-7.469-1.133-15.173-1.234-22.732-.1-7.711-.358-15.433,1.441-22.994a48.46,48.46,0,0,1,8.988-18.9,45.027,45.027,0,0,1,7.832-7.721,55.732,55.732,0,0,1,9.448-5.592.324.324,0,0,0-.248-.591Z" transform="translate(-227.578 -350.971)"/></g><g transform="translate(101.829 163.334)"><path class="a" d="M268.527,396.787c1.3.17,2.612.36,3.928.505s2.615.263,3.921.42c2.6.315,5.2.681,7.787,1.138,5.127.906,10.159,2.157,15.17,3.558a.619.619,0,0,0,.328-1.194,112.342,112.342,0,0,0-15.483-3.6c-2.535-.418-5.087-.776-7.646-1.028-1.3-.13-2.61-.255-3.918-.323q-.942-.049-1.884-.078c-.751-.028-1.461.055-2.2.078a.262.262,0,0,0,0,.523Z" transform="translate(-268.275 -396.181)"/></g><g transform="translate(12.03 104.576)"><path class="a" d="M251.627,372.766c-4.093,4.309-7.209,9.651-9.928,14.9a112.547,112.547,0,0,0-7.171,16.879c-1.819,5.6-2.84,11.582-1.589,17.42a19.028,19.028,0,0,0,8.837,12.623,44.457,44.457,0,0,0,7.586,3.38,57.878,57.878,0,0,0,9.393,2.825,37.57,37.57,0,0,0,15.35-.51,31.039,31.039,0,0,0,7.134-2.6,28.508,28.508,0,0,0,6.338-4.661c4.169-3.946,7.4-8.767,10.526-13.544A132.389,132.389,0,0,0,313.5,386.9q.683-2.162,1.3-4.346a.656.656,0,0,0-1.264-.348,135.918,135.918,0,0,1-13.7,32.022,109.814,109.814,0,0,1-9.538,13.934c-3.375,4.071-7.351,7.639-12.348,9.546a36.4,36.4,0,0,1-14.845,2.209c-5.7-.305-11.2-2.269-16.441-4.409a24.452,24.452,0,0,1-7.148-4.148,16.862,16.862,0,0,1-4.4-6.408c-2.074-5.252-1.817-11-.49-16.4A92.565,92.565,0,0,1,241,391.63a103.148,103.148,0,0,1,8.525-15.013c.823-1.189,1.664-2.362,2.477-3.558.153-.228-.193-.488-.378-.293Z" transform="translate(-232.386 -372.698)"/></g><g transform="translate(18.56 106.245)"><path class="a" d="M248.7,373.439a85.627,85.627,0,0,0-7.374,14.317,87.6,87.6,0,0,0-5.249,15.083,34.535,34.535,0,0,0-.385,15.325,13.072,13.072,0,0,0,3.248,6.19,19.636,19.636,0,0,0,5.875,4.061,64.56,64.56,0,0,0,14.212,4.236,26.419,26.419,0,0,0,7.159.676,17.072,17.072,0,0,0,6.676-1.947,25.746,25.746,0,0,0,5.62-3.55c1.814-1.626,3.558-3.338,5.242-5.1a103,103,0,0,0,9.255-11.177c6.033-8.425,10.369-17.72,14.119-27.343q.736-1.892,1.461-3.783c.31-.808-.981-1.149-1.294-.358-3.706,9.385-7.514,18.683-13.023,27.183a98.11,98.11,0,0,1-8.347,11.092q-2.312,2.65-4.809,5.129a35.217,35.217,0,0,1-5.079,4.536,28.252,28.252,0,0,1-5.92,3.108,16.168,16.168,0,0,1-6.936.743,45.991,45.991,0,0,1-6.9-1.329c-2.322-.578-4.651-1.148-6.928-1.887-4.311-1.4-9.07-3.6-11.264-7.822a18.611,18.611,0,0,1-1.694-7.449,34.623,34.623,0,0,1,.4-7.354,75.953,75.953,0,0,1,5-16.4c2.2-5.44,4.887-10.644,7.206-16.026a.154.154,0,0,0-.265-.155Z" transform="translate(-234.996 -373.364)"/></g><g transform="translate(31.16 104.109)"><path class="a" d="M240.355,373.357a1.907,1.907,0,0,1,.45-.15.931.931,0,0,1,.415.01.978.978,0,0,1,.7.545,1.256,1.256,0,0,1,.068.9,1.6,1.6,0,0,1-.56.786c-.15.118-.4.253-.433.49-.043.31.3.388.533.33a1.4,1.4,0,0,0,.55-.378,2.425,2.425,0,0,0,.4-.49,2.02,2.02,0,0,0-.123-2.312,1.549,1.549,0,0,0-1.159-.578,1.214,1.214,0,0,0-1.136.55.218.218,0,0,0,.3.3Z" transform="translate(-240.032 -372.511)"/></g><g transform="translate(90.636 110.922)"><path class="a" d="M264.515,377.584a1.345,1.345,0,0,1,.6-1.416,1.307,1.307,0,0,1,1.574.185,1.8,1.8,0,0,1,.6,1.669,2.584,2.584,0,0,1-.7,1.336,2.436,2.436,0,0,0-.34.44.326.326,0,0,0,.365.473,1.162,1.162,0,0,0,.513-.28,4.219,4.219,0,0,0,.373-.443,3.265,3.265,0,0,0,.485-.958,2.654,2.654,0,0,0-.18-2.084,2.479,2.479,0,0,0-1.559-1.221,1.971,1.971,0,0,0-1.837.525,1.755,1.755,0,0,0-.45,2.009c.153.325.638.09.56-.235Z" transform="translate(-263.802 -375.234)"/></g><g transform="translate(26.817 101.514)"><path class="a" d="M239.384,379.4a5.894,5.894,0,0,1,.768-4.8,5,5,0,0,1,3.9-2.052,2.87,2.87,0,0,1,2.129.8,4.062,4.062,0,0,1,.881,2.072c.308,1.621.383,3.44-.688,4.807a3.467,3.467,0,0,1-4.686.818c-.508-.29-1.143.455-.651.846a4.442,4.442,0,0,0,5.52-.278c1.659-1.4,1.954-3.535,1.691-5.58-.253-1.974-.976-3.988-3.153-4.449A5.739,5.739,0,0,0,239.9,373.3a5.656,5.656,0,0,0-1.506,2.907,6.076,6.076,0,0,0-.05,1.794,4.191,4.191,0,0,0,.558,1.6.267.267,0,0,0,.485-.205Z" transform="translate(-238.296 -371.474)"/></g><g transform="translate(88.857 106.911)"><path class="a" d="M264.627,382.554a2.108,2.108,0,0,1-.751-1.846,10.723,10.723,0,0,1,.355-2.735c.453-1.664,1.651-3.335,3.525-3.4a3.978,3.978,0,0,1,3.811,2.637,5.875,5.875,0,0,1-.611,5.032,8.291,8.291,0,0,1-1.877,2.182,3.078,3.078,0,0,1-1.354.691c-.43.073-.776-.1-1.191.105a.34.34,0,0,0-.153.375c.24,1.161,1.994.588,2.662.218a7.978,7.978,0,0,0,2.39-2.259,7.038,7.038,0,0,0,1.229-6.378,5.051,5.051,0,0,0-4.586-3.543,4.791,4.791,0,0,0-4.481,3.563,8.989,8.989,0,0,0-.45,3.858c.105.811.463,1.769,1.421,1.721a.119.119,0,0,0,.06-.22Z" transform="translate(-263.091 -373.63)"/></g><g transform="translate(24.929 120.931)"><path class="a" d="M237.715,379.767a43.635,43.635,0,0,0,5.512.616c1.974.183,3.948.38,5.922.576q5.757.563,11.5,1.281c7.762.968,15.5,2.107,23.2,3.463,4.329.763,8.627,1.649,12.943,2.46.761.143,1.1-1,.325-1.174-7.621-1.7-15.375-2.95-23.094-4.106q-11.515-1.719-23.115-2.787-3.2-.3-6.4-.52a43.914,43.914,0,0,0-6.731-.28c-.253.023-.345.408-.063.473Z" transform="translate(-237.542 -379.234)"/></g><g transform="translate(88.71 129.938)"><path class="a" d="M263.221,383.35c4.934,1.709,9.15,4.949,11.167,9.883,2.149,5.257,2.037,11.315,1.671,16.882-.115,1.774-.29,3.548-.531,5.312q-.169,1.25-.373,2.495a6.361,6.361,0,0,0-.218,2.457.456.456,0,0,0,.823.108,5.309,5.309,0,0,0,.628-2.224c.145-.828.278-1.656.393-2.49q.323-2.349.508-4.714a66.465,66.465,0,0,0,.12-9.523c-.37-5.567-2.032-11.089-6.315-14.905a15.207,15.207,0,0,0-7.732-3.793.266.266,0,0,0-.143.513Z" transform="translate(-263.032 -382.833)"/></g><g transform="translate(21.81 153.368)"><path class="a" d="M236.417,392.551a192.726,192.726,0,0,0,36,9.328c.671.115.958-.913.283-1.026a340.845,340.845,0,0,1-36.186-8.647c-.225-.062-.305.265-.1.345Z" transform="translate(-236.295 -392.198)"/></g><g transform="translate(67.174 163.54)"><path class="a" d="M254.622,396.859a27.357,27.357,0,0,0,5.014.8c1.579.218,3.155.455,4.732.686q4.815.7,9.608,1.556t9.558,1.864a12.5,12.5,0,0,0,3.623.413c.956-.078,2.382-.373,2.642-1.459a.379.379,0,0,0-.46-.458c-.593.1-1.056.51-1.646.646a5.616,5.616,0,0,1-1.749.075,34.67,34.67,0,0,1-3.971-.748q-4.534-.935-9.1-1.714t-9.158-1.386c-1.419-.188-2.842-.345-4.264-.5a21.92,21.92,0,0,0-4.759-.32.278.278,0,0,0-.073.543Z" transform="translate(-254.425 -396.263)"/></g><g transform="translate(45.632 133.752)"><path class="a" d="M252.549,385.254a5.123,5.123,0,0,0-5.054,2.022,8.8,8.8,0,0,0-1.631,6.37,11.458,11.458,0,0,0,2.214,6.285,9.685,9.685,0,0,0,4.912,3.03c3.916,1.116,9.263.646,12-2.7a9.1,9.1,0,0,0-.21-11.317,11.958,11.958,0,0,0-5.935-3.971,14.832,14.832,0,0,0-4.043-.608,7.836,7.836,0,0,0-4.086.731.314.314,0,0,0,.158.58,20.42,20.42,0,0,0,3.2-.09,14.212,14.212,0,0,1,3.32.28,11.32,11.32,0,0,1,5.084,2.445A8.27,8.27,0,0,1,264.942,398c-1.666,3.55-5.98,4.511-9.573,4.148-3.693-.373-6.851-2.372-7.919-6.045a10.636,10.636,0,0,1,0-6.933,5.65,5.65,0,0,1,5.044-3.493.217.217,0,0,0,.058-.423Z" transform="translate(-245.816 -384.358)"/></g><g transform="translate(48.856 136.441)"><path class="a" d="M252.328,386.044a3.429,3.429,0,0,0-3.516.628,5.027,5.027,0,0,0-1.666,3.6,8.626,8.626,0,0,0,.616,4.334,6.382,6.382,0,0,0,3.13,2.855,7.429,7.429,0,0,0,8.037-1.031,6.29,6.29,0,0,0,1.441-7.209,6.705,6.705,0,0,0-3.443-3.033,9.781,9.781,0,0,0-2.65-.663,5.512,5.512,0,0,0-2.915.225c-.363.163-.215.681.1.786a7.467,7.467,0,0,0,1.917.225,10.33,10.33,0,0,1,2.259.363,6.235,6.235,0,0,1,2.927,1.782,4.692,4.692,0,0,1,.143,5.772,5.828,5.828,0,0,1-6.113,2.109,6.742,6.742,0,0,1-3.043-1.516,4.884,4.884,0,0,1-1.491-3.388,5.947,5.947,0,0,1,.673-3.921c.816-1.214,2.149-1.469,3.5-1.589.158-.013.258-.24.09-.325Z" transform="translate(-247.104 -385.433)"/></g><g transform="translate(18.049 62.576)"><path class="a" d="M254.143,355.912c-9.353.623-18.368,7.654-19.286,17.34a14.94,14.94,0,0,0,4.284,11.928,14.542,14.542,0,0,0,5.965,3.41c2.7.856,5.49,1.5,8.257,2.112,11.2,2.47,22.652,3.6,34.076,4.429,5.857.428,11.72.811,17.582,1.191,5.142.338,10.9,1.3,15.848-.6,4.624-1.779,7.692-6.075,9.913-10.316a37.166,37.166,0,0,0,4.209-18.6c-.03-.853-1.361-.858-1.331,0a36.733,36.733,0,0,1-2.395,14.36,35.318,35.318,0,0,1-3.37,6.641,19.565,19.565,0,0,1-4.644,5.257c-4.148,3.053-9.471,2.6-14.325,2.267q-8.313-.582-16.627-1.143a312.092,312.092,0,0,1-32.3-3.448q-4.012-.7-7.987-1.611a64.959,64.959,0,0,1-7.7-2.082,13.257,13.257,0,0,1-8.164-9.476,15.858,15.858,0,0,1,2.965-12.911,21.079,21.079,0,0,1,11.712-7.534c1.116-.29,2.249-.543,3.385-.748.26-.045.2-.48-.062-.463Z" transform="translate(-234.792 -355.912)"/></g><g transform="translate(36.659 62.498)"><path class="a" d="M242.363,356.327c5.725.415,11.482.43,17.217.726s11.467.7,17.185,1.239q4.853.462,9.7,1.026c.658.078.653-.956,0-1.033q-17.107-1.982-34.352-2.352c-3.25-.073-6.505-.1-9.748.12a.138.138,0,0,0,0,.275Z" transform="translate(-242.23 -355.88)"/></g><g transform="translate(94.362 66.941)"><path class="a" d="M265.586,358.272c2,.248,4.006.475,6.01.711,1.033.12,2.069.253,3.1.4.46.065.918.133,1.379.2a3.3,3.3,0,0,0,1.329-.06.221.221,0,0,0,.053-.4,7.053,7.053,0,0,0-2.745-.666q-1.5-.2-3-.375c-2.039-.235-4.073-.385-6.125-.425-.405-.007-.38.568,0,.616Z" transform="translate(-265.291 -357.656)"/></g><g transform="translate(23.303 64.75)"><path class="a" d="M294.316,360.443q-10.7-1.708-21.523-2.607-5.416-.45-10.847-.738a55.021,55.021,0,0,0-9.8-.13,17.589,17.589,0,0,0-13.221,9.235c-2.387,4.471-3.39,11.692,1.053,15.315,2.367,1.932,5.737,2.647,8.64,3.33a102.273,102.273,0,0,0,10.1,1.726q10.787,1.4,21.611,2.552c7.259.768,14.537,1.4,21.831,1.724q2.672.12,5.349.188a29.148,29.148,0,0,0,4.857-.143,14.26,14.26,0,0,0,7.8-4.251,20.091,20.091,0,0,0,5.91-14.96,5.829,5.829,0,0,0-1.286-3.848,9.985,9.985,0,0,0-3.621-2.179,40.527,40.527,0,0,0-9.518-2.745,42.863,42.863,0,0,0-4.8-.485c-.778-.035-.776,1.174,0,1.209a40.185,40.185,0,0,1,9.461,1.564,39.049,39.049,0,0,1,4.519,1.624,7.4,7.4,0,0,1,3.373,2.224c.783,1.153.711,2.8.658,4.143a18.3,18.3,0,0,1-.62,4.048,19.131,19.131,0,0,1-3.583,7.066,15.338,15.338,0,0,1-6.616,5c-3.053,1.048-6.616.59-9.781.473-6.756-.245-13.5-.786-20.225-1.461s-13.446-1.5-20.162-2.332c-6.473-.8-13.034-1.5-19.264-3.533a11.827,11.827,0,0,1-3.838-1.849,6.915,6.915,0,0,1-2.189-3.34,13.244,13.244,0,0,1,.253-7.984,16.606,16.606,0,0,1,11.51-10.849,30.083,30.083,0,0,1,8.672-.458q5.026.214,10.044.568,10.107.713,20.182,1.869,2.492.289,4.984.6c.318.04.4-.51.078-.563Z" transform="translate(-236.892 -356.78)"/></g><g transform="translate(27.014 64.963)"><path class="a" d="M252.5,356.9a27.914,27.914,0,0,0-4.664,5.032,55.365,55.365,0,0,0-3.883,5.64,50.868,50.868,0,0,0-5.56,12.536.492.492,0,0,0,.948.26,68.649,68.649,0,0,1,5.527-12.418,61.9,61.9,0,0,1,3.643-5.5c1.361-1.827,2.938-3.488,4.269-5.332.13-.18-.135-.33-.28-.218Z" transform="translate(-238.375 -356.865)"/></g><g transform="translate(34.04 65.581)"><path class="a" d="M256.474,357.194a65.962,65.962,0,0,0-8.935,12.208A76.452,76.452,0,0,0,244,376.2q-.743,1.61-1.416,3.25a22.388,22.388,0,0,0-1.386,3.723c-.108.52.628.9.9.38.56-1.076.9-2.3,1.351-3.425q.747-1.847,1.586-3.651c1.038-2.232,2.182-4.416,3.4-6.553a113.035,113.035,0,0,1,8.5-12.375c.2-.265-.233-.588-.458-.353Z" transform="translate(-241.183 -357.112)"/></g><g transform="translate(43.594 65.91)"><path class="a" d="M259.745,357.327a65.612,65.612,0,0,0-8.625,12.491,82.783,82.783,0,0,0-6.093,13.944c-.193.575.718.823.908.25a85.779,85.779,0,0,1,6.048-13.854,119.941,119.941,0,0,1,8.2-12.491c.188-.26-.228-.575-.44-.34Z" transform="translate(-245.001 -357.244)"/></g><g transform="translate(52.416 66.65)"><path class="a" d="M261.75,357.618a36.675,36.675,0,0,0-4.081,6.33q-1.877,3.318-3.518,6.756-1.6,3.363-2.988,6.823a72.361,72.361,0,0,0-2.617,7.306c-.153.55.641.743.841.233.9-2.322,1.684-4.689,2.622-7q1.441-3.535,3.085-6.986,1.614-3.367,3.4-6.651c1.186-2.164,2.622-4.276,3.616-6.536.1-.218-.173-.493-.36-.278Z" transform="translate(-248.527 -357.54)"/></g><g transform="translate(91.614 71.21)"><path class="a" d="M265.019,359.609c-.013,1.171-.085,2.327-.052,3.5.03,1.116.075,2.229.128,3.343.1,2.224.223,4.446.29,6.671a58.994,58.994,0,0,1-.09,6.345,30.888,30.888,0,0,1-.448,3.423,14.519,14.519,0,0,0-.651,3.053.45.45,0,0,0,.831.225,7.55,7.55,0,0,0,.873-2.988c.2-1.031.335-2.072.43-3.115a52.973,52.973,0,0,0,.133-6.641c-.075-2.272-.21-4.544-.328-6.813-.057-1.116-.12-2.229-.2-3.343-.088-1.236-.275-2.44-.408-3.663a.255.255,0,0,0-.51,0Z" transform="translate(-264.193 -359.362)"/></g><g transform="translate(62.357 67.971)"><path class="a" d="M266.577,358.151a36.456,36.456,0,0,0-4.654,6.213,72.6,72.6,0,0,0-3.888,6.773q-1.723,3.419-3.1,7-.717,1.858-1.334,3.748a24.724,24.724,0,0,0-1.091,3.823.451.451,0,0,0,.868.24c.488-1.221.771-2.55,1.181-3.8q.57-1.753,1.231-3.48a75.307,75.307,0,0,1,3.168-7.154c1.156-2.282,2.41-4.511,3.778-6.673s2.975-4.156,4.3-6.33a.294.294,0,0,0-.458-.355Z" transform="translate(-252.5 -358.068)"/></g><g transform="translate(73.71 73.15)"><path class="a" d="M266.447,360.221a11.456,11.456,0,0,0-1.656,2.542q-.788,1.422-1.514,2.877-1.415,2.834-2.585,5.78-1.2,3.021-2.142,6.14-.447,1.486-.828,2.992a17.466,17.466,0,0,0-.683,3.145c-.033.505.666.523.823.11a30.234,30.234,0,0,0,.8-3.15q.379-1.426.813-2.842.927-3.04,2.094-6t2.585-5.832q.683-1.392,1.424-2.757a15.324,15.324,0,0,0,1.361-2.717.3.3,0,0,0-.5-.288Z" transform="translate(-257.038 -360.138)"/></g><g transform="translate(84.502 71.634)"><path class="a" d="M273.137,359.605a16.274,16.274,0,0,0-1.949,2.875q-.942,1.591-1.829,3.213-1.734,3.175-3.223,6.481-1.46,3.22-2.672,6.543-.6,1.666-1.154,3.353a15.929,15.929,0,0,0-.958,3.5.321.321,0,0,0,.593.16,19.67,19.67,0,0,0,1.116-3.148q.571-1.681,1.2-3.34c.873-2.309,1.814-4.6,2.83-6.851q1.46-3.235,3.13-6.368.833-1.565,1.716-3.1a23.191,23.191,0,0,0,1.646-3.055c.1-.253-.273-.445-.445-.26Z" transform="translate(-261.351 -359.532)"/></g><g transform="translate(95.948 73.762)"><path class="a" d="M276.681,360.507a51.182,51.182,0,0,0-3.11,5.767c-.983,2.012-1.942,4.036-2.837,6.088q-1.272,2.924-2.455,5.887a52.851,52.851,0,0,0-2.342,6.293c-.11.438.548.756.758.318.916-1.894,1.549-3.966,2.339-5.918q1.3-3.2,2.7-6.353c.891-2,1.784-4,2.722-5.972.931-1.959,1.929-3.878,2.735-5.892.123-.31-.35-.47-.515-.218Z" transform="translate(-265.925 -360.382)"/></g><g transform="translate(30.74 68.369)"><path class="a" d="M240.022,358.738c5.365.085,10.724.265,16.066.773,5.317.505,10.6,1.271,15.866,2.137,10.509,1.721,20.98,3.743,31.412,5.888,5.907,1.214,11.795,2.51,17.682,3.811.533.118.761-.7.228-.818-10.481-2.452-21.038-4.609-31.612-6.618-10.486-1.992-21.025-3.9-31.652-4.954a105.935,105.935,0,0,0-17.99-.546.164.164,0,0,0,0,.328Z" transform="translate(-239.864 -358.227)"/></g><g transform="translate(26.508 72.796)"><path class="a" d="M238.449,360.569c5.492.636,11.009,1.036,16.5,1.671,5.512.635,11.007,1.414,16.484,2.3,10.847,1.754,21.626,3.913,32.367,6.218q9.041,1.944,18.063,3.981c.545.123.778-.716.233-.838-10.777-2.412-21.553-4.837-32.385-6.988-10.772-2.137-21.6-3.991-32.5-5.315a184.894,184.894,0,0,0-18.763-1.6c-.378-.007-.358.531,0,.573Z" transform="translate(-238.173 -359.996)"/></g><g transform="translate(23.943 78.827)"><path class="a" d="M237.369,362.888c2.707.335,5.442.46,8.159.711s5.427.553,8.134.9c5.482.693,10.942,1.556,16.4,2.442q16.157,2.623,32.222,5.767c6.068,1.186,12.113,2.48,18.175,3.7.555.113.8-.731.235-.858-10.742-2.435-21.593-4.456-32.43-6.405-10.752-1.934-21.536-3.783-32.372-5.189-3.075-.4-6.155-.748-9.243-1.033a74.193,74.193,0,0,0-9.278-.49.23.23,0,0,0,0,.46Z" transform="translate(-237.147 -362.407)"/></g><g transform="translate(23.972 84.935)"><path class="a" d="M237.334,365.331c4.962,1.1,10.058,1.674,15.08,2.44,4.934.753,9.873,1.479,14.807,2.224q14.971,2.263,29.928,4.6c5.682.888,11.359,1.816,17.044,2.682.583.09.841-.8.248-.9-20.014-3.318-40.1-6.333-60.171-9.268-5.595-.821-11.229-1.852-16.872-2.262a.247.247,0,0,0-.065.483Z" transform="translate(-237.159 -364.848)"/></g><g transform="translate(126.865 60.483)"><path class="a" d="M284.513,464.487a120.946,120.946,0,0,1-4.419-20.592,139.159,139.159,0,0,1-.583-21.028c.278-7.026.958-14.029,1.809-21.005a184.384,184.384,0,0,1,3.04-19.294,50.318,50.318,0,0,1,6.971-17.122c3.25-4.777,8.677-10.239,15.04-9.008,5.485,1.061,8.867,6.463,10.932,11.209a88.126,88.126,0,0,1,5.6,19.834c2.45,13.927,2.422,28.139,2.129,42.233-.035,1.751-.078,3.5-.118,5.257a.655.655,0,0,0,1.309,0c.368-14.577.676-29.242-1.4-43.717a102.465,102.465,0,0,0-5.207-21.073c-1.9-5.132-4.571-10.794-9.523-13.632a11.05,11.05,0,0,0-8.009-1.191,17.084,17.084,0,0,0-7.889,4.7c-4.481,4.416-7.409,10.256-9.345,16.176a105.893,105.893,0,0,0-3.878,18.921c-.966,7.206-1.8,14.437-2.284,21.693a154.384,154.384,0,0,0-.035,21.864,90.11,90.11,0,0,0,3.8,21.09c.528,1.626,1.128,3.218,1.809,4.786.063.145.3.04.253-.108Z" transform="translate(-278.282 -355.075)"/></g><g transform="translate(132.361 139.437)"><path class="a" d="M280.753,416.583c3.15.355,6.108-1.586,8.575-3.3q4.6-3.194,9.193-6.4,9.192-6.407,18.375-12.821c2.432-1.7,4.989-3.8,5.847-6.771a.53.53,0,0,0-.963-.408,19.32,19.32,0,0,1-2.094,3.35,17.291,17.291,0,0,1-3.1,2.662q-4.309,3.048-8.625,6.088-8.7,6.133-17.38,12.28c-2.982,2.109-6.035,4.5-9.831,4.747a.287.287,0,0,0,0,.573Z" transform="translate(-280.478 -386.63)"/></g><g transform="translate(135.759 76.025)"><path class="a" d="M285.069,442.809c-.62-5.134-1.289-10.246-1.634-15.41-.338-5.072-.438-10.159-.375-15.24s.3-10.186.6-15.27a120.053,120.053,0,0,1,1.406-14.647,30.538,30.538,0,0,1,5.407-12.928c2.437-3.25,6.32-7.476,10.829-6.581,4.461.888,6.968,5.1,8.142,9.14a66.914,66.914,0,0,1,1.429,6.8c.453,2.525.9,5.049,1.321,7.579,1.912,11.487,3.148,23.132,1.8,34.757-.08.7,1.133.868,1.239.168,1.589-10.637.565-21.426-1.078-31.99-.813-5.217-1.624-10.486-2.785-15.641-.978-4.344-2.837-8.76-6.9-11.044a8.736,8.736,0,0,0-5.725-1.1,11.872,11.872,0,0,0-5.775,3.238,28.813,28.813,0,0,0-7.656,11.542c-1.7,4.727-2.2,9.786-2.557,14.762-.375,5.317-.67,10.642-.821,15.969-.3,10.724-.023,21.513,1.852,32.1.23,1.3.515,2.585.846,3.866.06.233.463.193.433-.06Z" transform="translate(-281.836 -361.287)"/></g><g transform="translate(138.66 136.726)"><path class="a" d="M283.4,406.806a17.281,17.281,0,0,0,3.978-2.352q1.9-1.246,3.791-2.5c2.617-1.729,5.232-3.458,7.832-5.209q3.866-2.609,7.712-5.239c1.048-.721,2.089-1.456,3.075-2.259a10.115,10.115,0,0,0,2.8-2.925.53.53,0,0,0-.828-.638c-1.006.813-1.809,1.882-2.825,2.707-1.053.858-2.177,1.624-3.3,2.389q-3.817,2.609-7.649,5.194-3.761,2.548-7.526,5.092-1.884,1.269-3.773,2.532a17.193,17.193,0,0,0-3.613,2.65c-.2.24-.018.661.323.558Z" transform="translate(-282.995 -385.546)"/></g><g transform="translate(142.009 85.563)"><path class="a" d="M284.334,365.4c.073,4.321.61,8.645.966,12.951.35,4.211.663,8.425.971,12.641.626,8.542,1.116,17.092,1.684,25.637.325,4.869.593,9.743.953,14.61.053.7,1.136.718,1.106,0-.738-17.215-1.927-34.432-3.465-51.591-.428-4.771-.718-9.618-1.611-14.327-.065-.345-.608-.26-.6.08Z" transform="translate(-284.334 -365.099)"/></g><g transform="translate(149.756 77.855)"><path class="a" d="M287.457,362.233a51.214,51.214,0,0,0,.365,6.808q.266,3.243.52,6.488.533,6.733.988,13.471.9,13.316,1.564,26.65c.253,5.039.37,10.1.733,15.128a.548.548,0,0,0,1.1,0c.01-4.5-.25-9.01-.45-13.5s-.443-9-.708-13.494c-.526-8.888-1.219-17.765-2-26.632q-.326-3.731-.7-7.461a52.553,52.553,0,0,0-.978-7.514.222.222,0,0,0-.433.058Z" transform="translate(-287.43 -362.018)"/></g><g transform="translate(158.037 77.22)"><path class="a" d="M290.755,361.944a45.739,45.739,0,0,0,.46,6.425q.3,3.055.6,6.113c.408,4.184.771,8.372,1.113,12.563q1.021,12.415,1.581,24.861c.22,4.744.348,9.488.573,14.23a.507.507,0,0,0,1.013,0c.045-8.4-.375-16.832-.9-25.214-.528-8.4-1.219-16.787-2.124-25.154-.258-2.362-.53-4.721-.833-7.076a42.576,42.576,0,0,0-1.118-6.8.186.186,0,0,0-.363.05Z" transform="translate(-290.74 -361.764)"/></g><g transform="translate(138.561 80.424)"><path class="a" d="M283.222,377.557a15.287,15.287,0,0,0,2.687-1.837c.886-.638,1.779-1.261,2.675-1.882q2.691-1.858,5.48-3.573c3.723-2.289,7.566-4.351,11.495-6.263.605-.293.075-1.194-.526-.9a115.414,115.414,0,0,0-11.66,6.568q-2.759,1.764-5.422,3.676c-.886.636-1.759,1.294-2.625,1.962a11.729,11.729,0,0,0-2.337,2.017c-.115.155.1.288.233.233Z" transform="translate(-282.956 -363.045)"/></g><g transform="translate(137.178 88.883)"><path class="a" d="M282.518,383.611c1.078-.135,2.157-1.128,3.053-1.711q1.7-1.111,3.418-2.209,3.367-2.143,6.781-4.214t6.878-4.058q1.764-1.017,3.536-2.022c1.173-.663,2.422-1.259,3.543-2a.527.527,0,0,0-.53-.911c-1.229.555-2.392,1.311-3.561,1.979s-2.352,1.354-3.52,2.044q-3.434,2.038-6.821,4.158t-6.721,4.316c-1.133.748-2.267,1.5-3.388,2.262-.866.591-2.252,1.246-2.767,2.192-.04.07.008.19.1.178Z" transform="translate(-282.403 -366.426)"/></g><g transform="translate(136.311 100.795)"><path class="a" d="M282.3,392.128a20.618,20.618,0,0,0,3.713-2.415c1.281-.908,2.557-1.824,3.843-2.725q3.791-2.657,7.644-5.227t7.764-5.054q1.985-1.261,3.988-2.5.935-.578,1.874-1.154a5.179,5.179,0,0,0,1.684-1.254c.235-.33-.153-.656-.468-.608a5.873,5.873,0,0,0-2.042,1.073c-.62.388-1.244.778-1.862,1.169q-1.993,1.257-3.971,2.537-3.825,2.473-7.594,5.034t-7.479,5.2c-1.279.911-2.557,1.824-3.821,2.757a19.059,19.059,0,0,0-3.47,2.83c-.11.135-.01.42.2.335Z" transform="translate(-282.057 -371.186)"/></g><g transform="translate(136.016 114.07)"><path class="a" d="M282.249,396.494a31.085,31.085,0,0,0,4.211-1.989q2.034-1.062,4.043-2.162,4.083-2.233,8.084-4.624t7.892-4.947c2.582-1.694,5.209-3.4,7.641-5.312.5-.4-.153-1.234-.683-.886-2.547,1.681-5,3.505-7.539,5.207q-3.866,2.6-7.829,5.049-3.9,2.413-7.887,4.664-1.993,1.126-4.011,2.212a43.137,43.137,0,0,0-4.121,2.319c-.223.155-.1.568.2.468Z" transform="translate(-281.939 -376.492)"/></g><g transform="translate(137.04 126.053)"><path class="a" d="M282.748,401.048c2.785-1.339,5.425-3.083,8.094-4.641q3.888-2.271,7.774-4.551c2.59-1.519,5.142-3.1,7.7-4.666,2.65-1.621,5.345-3.2,7.934-4.909a.532.532,0,0,0-.535-.918c-2.682,1.569-5.292,3.275-7.937,4.907-2.555,1.576-5.132,3.123-7.679,4.712s-5.1,3.168-7.669,4.732c-2.642,1.611-5.435,3.085-7.959,4.869a.271.271,0,0,0,.273.468Z" transform="translate(-282.348 -381.281)"/></g></g></g></g></svg>