<svg xmlns="http://www.w3.org/2000/svg" width="136.702" height="86.5" viewBox="0 0 136.702 86.5"><defs><style>.a{fill:#bcbcbc;}</style></defs><g transform="translate(74.974 -1966)"><g transform="translate(-74.974 1966)"><g transform="translate(0 0)"><g transform="translate(30.94 23.703)"><g transform="translate(6.581 17.162)"><path class="a" d="M267.9,168.622a.052.052,0,1,0,0-.1.052.052,0,0,0,0,.1Z" transform="translate(-267.852 -168.519)"/></g><g transform="translate(0 12.794)"><path class="a" d="M268.252,173.84a13.918,13.918,0,0,1-1.646-6.259c-.008-.175-.3-.238-.325-.044a10.387,10.387,0,0,0,1.46,6.6.3.3,0,0,0,.512-.3Z" transform="translate(-266.193 -167.418)"/></g><g transform="translate(7.184 14.415)"><path class="a" d="M269.749,173.719a7.129,7.129,0,0,1-1.019-2.785,12.376,12.376,0,0,1,.036-2.943.167.167,0,0,0-.309-.083c-.94,1.924-.3,4.387.9,6.045.171.23.555.02.4-.234Z" transform="translate(-268.004 -167.827)"/></g><g transform="translate(16.386 16.471)"><path class="a" d="M271.974,172.744c-.182-.722-.365-1.448-.551-2.166-.091-.353-.194-.706-.294-1.055a6.574,6.574,0,0,0-.357-1.063.243.243,0,0,0-.448.123,6.015,6.015,0,0,0,.206,1.059c.087.369.171.742.27,1.107.19.718.389,1.436.583,2.158a.307.307,0,0,0,.591-.163Z" transform="translate(-270.324 -168.345)"/></g><g transform="translate(24.888 17.547)"><path class="a" d="M273.624,172.995a8.765,8.765,0,0,1-.516-2.055c-.04-.349-.075-.694-.083-1.043s.036-.722.024-1.079a.209.209,0,0,0-.409-.056,4.359,4.359,0,0,0-.162,1.134,6.575,6.575,0,0,0,.032,1.119,7.955,7.955,0,0,0,.583,2.2c.131.3.646.087.532-.222Z" transform="translate(-272.467 -168.616)"/></g><g transform="translate(33.906 18.632)"><path class="a" d="M275.923,174.309a13.565,13.565,0,0,1-.5-2.606c-.04-.428-.067-.861-.087-1.293-.024-.448.008-.9-.02-1.341a.183.183,0,0,0-.357-.052,7.564,7.564,0,0,0-.171,2.737,12.68,12.68,0,0,0,.571,2.709c.115.353.67.206.563-.155Z" transform="translate(-274.741 -168.89)"/></g><g transform="translate(42.958 20.201)"><path class="a" d="M277.749,175.337c0-1,0-1.987-.008-2.983-.008-.5-.016-.992-.048-1.492a5.937,5.937,0,0,0-.107-1.432.211.211,0,0,0-.4,0,2.758,2.758,0,0,0-.071.746c-.012.23-.024.456-.036.686-.028.5-.04.992-.048,1.492-.012,1-.008,1.987-.008,2.983a.363.363,0,0,0,.726,0Z" transform="translate(-277.023 -169.285)"/></g><g transform="translate(51.951 25.453)"><path class="a" d="M280.523,174.428a6.876,6.876,0,0,1-.544-2.618c0-.313.028-.619.012-.932a.278.278,0,0,0-.543-.071,4.485,4.485,0,0,0-.083,2.027,6.979,6.979,0,0,0,.583,1.932.337.337,0,0,0,.456.119.346.346,0,0,0,.119-.456Z" transform="translate(-279.29 -170.609)"/></g><g transform="translate(58.948 24.486)"><path class="a" d="M282.613,176.861l-.52-3.2a19.4,19.4,0,0,0-.647-3.157.2.2,0,0,0-.393.052,19.566,19.566,0,0,0,.432,3.209l.575,3.245c.063.365.611.206.551-.151Z" transform="translate(-281.054 -170.366)"/></g><g transform="translate(65.849 28.204)"><path class="a" d="M284.6,178.788a7.441,7.441,0,0,1-.186-.94c-.067-.309-.147-.623-.222-.928-.147-.6-.286-1.2-.4-1.8-.23-1.226-.369-2.459-.575-3.685-.036-.214-.325-.131-.349.048a12.418,12.418,0,0,0,.175,3.772,18.678,18.678,0,0,0,.436,1.864,8.156,8.156,0,0,0,.321.9c.131.3.317.571.436.869.087.222.436.135.361-.1Z" transform="translate(-282.794 -171.303)"/></g><g transform="translate(73.803 29.751)"><path class="a" d="M285.462,176.168A17.968,17.968,0,0,0,285.5,174a15.471,15.471,0,0,0-.123-2.146.23.23,0,0,0-.44,0,15.457,15.457,0,0,0-.123,2.146,16.451,16.451,0,0,0,.04,2.166.3.3,0,0,0,.607,0Z" transform="translate(-284.799 -171.693)"/></g><g transform="translate(69.75 10.051)"><path class="a" d="M291.281,166.789a31.749,31.749,0,0,0-4.125,3.415q-.94.922-1.8,1.924a9.184,9.184,0,0,0-.8,1.039,9.988,9.988,0,0,0-.758,1.182.214.214,0,0,0,.333.258c.313-.29.559-.643.849-.952s.575-.631.857-.956q.857-1,1.793-1.928a33.953,33.953,0,0,1,3.995-3.4c.349-.254.016-.841-.345-.587Z" transform="translate(-283.777 -166.726)"/></g><g transform="translate(64.773 11.166)"><path class="a" d="M287.07,167.017a6.456,6.456,0,0,0-1.464.678,9.962,9.962,0,0,0-1.3,1.008,8.5,8.5,0,0,0-1.091,1.238,5.008,5.008,0,0,0-.4.67,2.367,2.367,0,0,0-.293.781c-.028.2.25.274.373.159a3.88,3.88,0,0,0,.464-.619c.147-.206.305-.4.452-.6a10.339,10.339,0,0,1,.984-1.138,8.67,8.67,0,0,1,1.118-.968c.421-.305.845-.615,1.293-.881.167-.1.059-.393-.139-.325Z" transform="translate(-282.523 -167.007)"/></g><g transform="translate(55.255 11.046)"><path class="a" d="M282.777,167.119c-.476.8-.96,1.591-1.428,2.392-.23.393-.464.785-.674,1.19a4.731,4.731,0,0,0-.547,1.269.2.2,0,0,0,.325.19,4.952,4.952,0,0,0,.817-1.115c.242-.385.46-.785.682-1.186.452-.809.892-1.626,1.337-2.443a.3.3,0,0,0-.512-.3Z" transform="translate(-280.123 -166.977)"/></g><g transform="translate(45.25 11.518)"><path class="a" d="M281.326,167.131a10.846,10.846,0,0,0-2.186,1.5,8.555,8.555,0,0,0-.9.952,5.037,5.037,0,0,0-.4.52c-.111.179-.3.432-.214.651a.229.229,0,0,0,.218.167c.234,0,.377-.218.52-.377s.246-.309.377-.46a12.247,12.247,0,0,1,.877-.936,10.384,10.384,0,0,1,2-1.527.283.283,0,0,0-.286-.488Z" transform="translate(-277.601 -167.096)"/></g><g transform="translate(36.671 9.949)"><path class="a" d="M278.1,166.793l-1.373,1.634c-.234.274-.452.559-.674.845l-.309.4a1.3,1.3,0,0,0-.294.492.274.274,0,0,0,.4.305,1.19,1.19,0,0,0,.4-.369l.329-.389c.242-.286.476-.567.7-.861l1.305-1.69c.21-.274-.258-.639-.484-.373Z" transform="translate(-275.438 -166.701)"/></g><g transform="translate(28.171 8.344)"><path class="a" d="M276.012,166.344c-.452.341-.9.686-1.349,1.035-.218.171-.436.337-.647.516-.226.19-.627.409-.535.754l.079-.3-.2.234c-.186.214.048.559.31.4l.262-.155h-.309a.462.462,0,0,0,.531-.107c.107-.087.21-.178.317-.266.218-.182.428-.373.639-.563.413-.373.825-.746,1.23-1.131.218-.206-.079-.611-.329-.424Z" transform="translate(-273.295 -166.296)"/></g><g transform="translate(18.107 7.322)"><path class="a" d="M272.853,166.12c-.313.369-.635.734-.932,1.115s-.635.774-.912,1.182c-.127.19-.345.432-.206.67a.229.229,0,0,0,.226.1c.167-.008.262-.131.365-.242.329-.373.619-.781.916-1.174.333-.436.639-.892.952-1.341.171-.238-.218-.543-.409-.313Z" transform="translate(-270.758 -166.039)"/></g><g transform="translate(13.332 5.819)"><path class="a" d="M271.771,165.808l-1.15,2.126-.555,1.027q-.137.256-.262.524a2.3,2.3,0,0,0-.246.607.261.261,0,0,0,.432.25,3.926,3.926,0,0,0,.646-1.047l.536-1.039,1.107-2.15c.175-.337-.325-.635-.508-.3Z" transform="translate(-269.554 -165.66)"/></g><g transform="translate(5.298 3.61)"><path class="a" d="M271.366,165.144a9.462,9.462,0,0,0-2.34,1.9,8.757,8.757,0,0,0-.908,1.21,3.743,3.743,0,0,0-.587,1.412.268.268,0,0,0,.452.19,3.9,3.9,0,0,0,.377-.6c.119-.206.25-.4.377-.6a11.386,11.386,0,0,1,.809-1.138,9.512,9.512,0,0,1,2.106-1.88.283.283,0,0,0-.286-.488Z" transform="translate(-267.529 -165.103)"/></g><g transform="translate(2.701)"><path class="a" d="M269.6,164.254a6.628,6.628,0,0,0-2.721,4.915.154.154,0,0,0,.3.04,14.8,14.8,0,0,1,1.043-2.515,7.368,7.368,0,0,1,1.749-2.071c.262-.214-.111-.575-.373-.369Z" transform="translate(-266.874 -164.192)"/></g></g><g transform="translate(10.252)"><path class="a" d="M287.381,181.053a29.547,29.547,0,0,0-2.467-14.391,14.677,14.677,0,0,0-9.187-8.084c-8.7-2.281-15.03,6.676-14.74,14.53A24.015,24.015,0,0,0,262.8,181.1c1.031,2.559,2.249,5.434,4.2,7.43a.829.829,0,0,0,1.377-.8,60.131,60.131,0,0,0-2.832-5.736,26.67,26.67,0,0,1-2.074-6.172,14.477,14.477,0,0,1,1.948-10.972,9.269,9.269,0,0,1,8.941-4.415c3.8.555,6.973,3.467,8.778,6.735,2.424,4.387,2.328,9.246,3.185,14.026.115.635,1.015.424,1.063-.143Z" transform="translate(-260.978 -158.217)"/></g><g transform="translate(0 28.927)"><path class="a" d="M275.2,165.511c-9.2-.127-17.092,8.905-16.8,17.854a13.005,13.005,0,0,0,5.962,10.757,11.353,11.353,0,0,0,11.745.488,19.12,19.12,0,0,0,5.839-5.426c1.384-1.952,2.769-5.026,1.436-7.326a.906.906,0,0,0-1.674.452,16.08,16.08,0,0,1-.226,2.765,8.774,8.774,0,0,1-1.365,2.789,17.665,17.665,0,0,1-4.593,4.458,9.056,9.056,0,0,1-9.758.115c-7.156-4.157-6.359-14.07-1.476-19.678,2.931-3.36,6.811-5.153,11.039-6.3a.483.483,0,0,0-.131-.944Z" transform="translate(-258.393 -165.51)"/></g><g transform="translate(35.214 21.69)"><path class="a" d="M267.379,164.45c2.689,3.264,6.481,5.1,10.44,6.362a133.9,133.9,0,0,0,14.934,3.645,175.889,175.889,0,0,0,31.82,3.134q4.605.048,9.206-.127a75.434,75.434,0,0,0,8.977-.635c1.265-.2.94-2.213-.3-2.2-2.551.02-5.109.325-7.66.44s-5.113.175-7.668.182c-5.2.02-10.4-.194-15.589-.583a203.518,203.518,0,0,1-30.682-4.74c-4.633-1.071-9.552-2.479-12.86-6.1-.389-.424-.976.194-.623.623Z" transform="translate(-267.271 -163.685)"/></g><g transform="translate(109.082 15.956)"><path class="a" d="M287.158,179.226c.4-7.366,6.664-15.367,14.653-14.879,4.1.25,7.092,3.733,8.453,7.354a16.1,16.1,0,0,1-.377,12.32,17.036,17.036,0,0,1-9.131,8.389c-1.194.5-.77,2.4.551,2,9.183-2.757,14.22-13.256,11.444-22.257-1.281-4.153-4.2-8.219-8.524-9.52-4.443-1.337-9.413.877-12.681,3.856a16.986,16.986,0,0,0-5.648,12.733.631.631,0,0,0,1.261,0Z" transform="translate(-285.893 -162.24)"/></g><g transform="translate(102.223 46.802)"><path class="a" d="M306.893,171.44c2.32,1.2,3.578,3.975,4.6,6.243a30.577,30.577,0,0,1,2.324,8c.766,5.184.321,11.142-2.035,15.894-1.357,2.733-3.479,4.014-6.37,4.756a25.581,25.581,0,0,1-8.175,1.158c-5.763-.452-8.477-6.775-9.952-11.61a17.745,17.745,0,0,1-.615-9.02,13.216,13.216,0,0,1,1.555-3.943,29.388,29.388,0,0,1,2.634-3.276.827.827,0,0,0-1-1.293c-2.491,1.091-4.03,3.943-4.867,6.406a18.015,18.015,0,0,0-.488,8.972,31.146,31.146,0,0,0,3.471,9.314c1.38,2.515,3.245,4.851,5.982,5.938,3.011,1.194,6.347.726,9.425.079,2.983-.631,6.208-1.293,8.4-3.586,2.074-2.174,3.078-5.26,3.732-8.128a32.06,32.06,0,0,0,.714-9.528,32.675,32.675,0,0,0-2.527-10.4c-1.238-2.892-2.939-6.466-6.22-7.37-.817-.226-1.372.992-.587,1.4Z" transform="translate(-284.164 -170.016)"/></g><g transform="translate(26.647 41.935)"><path class="a" d="M343.615,186.393c-9.441-4.637-19.718-7.608-29.857-10.341a262.614,262.614,0,0,0-31.273-6.545,62.173,62.173,0,0,0-8.75-.718c-2.693.008-5.8.1-8.247,1.321a.778.778,0,0,0,.389,1.44c2.547-.059,5.046-.627,7.612-.647a55.3,55.3,0,0,1,7.723.543c5.137.678,10.246,1.666,15.319,2.705,10.111,2.078,20.13,4.645,29.991,7.711,5.609,1.745,11.158,3.622,16.815,5.18.381.107.651-.468.278-.651Z" transform="translate(-265.111 -168.789)"/></g></g></g></g></svg>