<svg xmlns="http://www.w3.org/2000/svg" width="50.643" height="58.229" viewBox="0 0 50.643 58.229"><defs><style>.a{fill:#dcf4fe;}</style></defs><path class="a" d="M701.433,288.706c15.085,6.208,23.929-5.594,23.392-14.752s-9.482-13.187-9.482-13.187-13.625-7.722-22.072,6.732C693.272,267.5,684.258,281.635,701.433,288.706Z" transform="translate(-690.908 -232.207)"/><path class="a" d="M692.3,254.121a4.144,4.144,0,0,1,6-.645,6.633,6.633,0,0,1,1.877,4.086c.589,3.947-.225,6.117-.913,7.185a2.828,2.828,0,0,1-1.73,1.232c-1.536.357-4.542.17-6.2-5.848A6.29,6.29,0,0,1,692.3,254.121Z" transform="translate(-690.832 -240.917)"/><path class="a" d="M719.7,266.439a3.889,3.889,0,0,0-1.448-3.823c-1.162-.858-3.063-1.393-5.989-.007-5.747,2.725-5.757,5.9-5.757,5.9s.369,5.613,8.549,2.878A6.249,6.249,0,0,0,719.7,266.439Z" transform="translate(-669.12 -227.942)"/><path class="a" d="M704.178,247.66s6.2-.57,6.932,6.893-2.37,15.459-7.83,14.685c0,0-8.118.383-6.1-13.189C697.18,256.048,698.27,247.372,704.178,247.66Z" transform="translate(-682.597 -247.65)"/><path class="a" d="M722.086,255.486s-2.982-5.462-9.587-1.913-11.516,10.582-7.828,14.683c0,0,4.2,6.955,14.349-2.282C719.021,265.975,725.617,260.232,722.086,255.486Z" transform="translate(-673.45 -241.05)"/></svg>