<svg xmlns="http://www.w3.org/2000/svg" xmlns:xlink="http://www.w3.org/1999/xlink" width="536" height="378.811" viewBox="0 0 536 378.811"><defs><style>.a{fill:#de2e34;}.b{fill:#25a597;}.c{fill:#fca01f;}.d{fill:#5eb2b2;}.e{fill:#ec6833;}.f{fill:#51555c;opacity:0.36;}.g,.h,.k,.n,.q{isolation:isolate;}.h,.k,.n,.q{mix-blend-mode:multiply;}.i{clip-path:url(#a);}.j{fill:#f8ab81;}.k,.l{fill:#d2d1d1;}.m{fill:#fff;}.n{fill:#bababa;}.o{fill:#012b42;}.p{fill:#001622;}.q{fill:#a3a3a3;}.r{fill:#854c00;}.s{clip-path:url(#b);}.t{fill:#0a607e;}.u{fill:#003342;}.v{fill:#601800;}.w{fill:#3f1000;}.x{clip-path:url(#c);}.y{fill:#282e37;}.z{fill:#341e13;}.aa{fill:#201208;}.ab{clip-path:url(#d);}.ac{clip-path:url(#e);}.ad{fill:#00a4b7;}.ae{clip-path:url(#f);}.af{fill:#730b12;}</style><clipPath id="a"><path class="a" d="M213.911,113.164a64.632,64.632,0,1,1-64.633-64.631A64.633,64.633,0,0,1,213.911,113.164Z" transform="translate(-84.647 -48.533)"/></clipPath><clipPath id="b"><circle class="b" cx="64.631" cy="64.631" r="64.631" transform="translate(0 6.439) rotate(-2.855)"/></clipPath><clipPath id="c"><path class="c" d="M267.9,197.678a64.631,64.631,0,1,1-64.633-64.631A64.632,64.632,0,0,1,267.9,197.678Z" transform="translate(-138.64 -133.047)"/></clipPath><clipPath id="d"><path class="d" d="M174.36,220.72a64.631,64.631,0,1,1-64.634-64.634A64.632,64.632,0,0,1,174.36,220.72Z" transform="translate(-45.099 -156.086)"/></clipPath><clipPath id="e"><circle class="e" cx="64.633" cy="64.633" r="64.633"/></clipPath><clipPath id="f"><path class="a" d="M267.9,300.788a64.632,64.632,0,1,1-64.632-64.633A64.632,64.632,0,0,1,267.9,300.788Z" transform="translate(-138.638 -236.155)"/></clipPath></defs><g transform="translate(-691 -1625.333)"><path class="f" d="M751.855,1891.233s-40.5,18.6-47.441-40.924-9.257-55.8-33.556-91.768-35.87-79.367-11.571-116.57,15.042-34.723,54.384-74.406,137.7-19.842,175.88-7.441,72.9,13.641,118.025,7.441,109.925,21.082,115.711,47.124,84.469,84.327,49.755,125.251-50.913,101.689-49.755,130.211-24.3,13.641-100.668,39.683-138.852,7.441-163.152-7.441S751.855,1891.233,751.855,1891.233Z" transform="translate(45.149 81.284)"/><g class="g" transform="translate(751.217 1606.302)"><g transform="translate(45.099 32.202)"><g transform="translate(0 17.871)"><g class="h" transform="translate(43.281 0.002)"><path class="a" d="M213.911,113.164a64.632,64.632,0,1,1-64.633-64.631A64.633,64.633,0,0,1,213.911,113.164Z" transform="translate(-84.647 -48.533)"/><g class="i"><g transform="translate(28.164 22.62)"><rect class="j" width="12.715" height="7.563" transform="translate(31.45 72.259)"/><path class="k" d="M147.172,141.779c-2.667-.849-4.9-2.519-5.238-5.448a2.674,2.674,0,0,1,.107-1.1h-2.922v7.563h12.715v-.948A8.594,8.594,0,0,1,147.172,141.779Z" transform="translate(-107.669 -62.969)"/><g transform="translate(57.906 42.335)"><path class="j" d="M175.018,113.547a5.866,5.866,0,1,1-5.862-5.662A5.763,5.763,0,0,1,175.018,113.547Z" transform="translate(-163.293 -107.885)"/><g class="h" transform="translate(6.62 2.497)"><path class="l" d="M169.342,110.182a2.355,2.355,0,0,1,.391-.014,3.279,3.279,0,0,1,1.041.206,2.539,2.539,0,0,1,1.244.955,4.053,4.053,0,0,1,.22.409c.054.146.094.3.137.452l.05.472c0,.153-.013.308-.02.464a3.987,3.987,0,0,1-.187.882,3.7,3.7,0,0,1-.36.795,2.893,2.893,0,0,1-1.1,1.091,2.6,2.6,0,0,1-.561.235,3.12,3.12,0,0,1-.465.074c-.25.008-.391,0-.391,0l.359-.148c.115-.043.236-.126.38-.2a3.337,3.337,0,0,0,.43-.323,2.766,2.766,0,0,0,.415-.459,3.4,3.4,0,0,0,.347-.591,5.374,5.374,0,0,0,.247-.692,3.268,3.268,0,0,0,.134-.756l.028-.369-.026-.356c-.03-.111-.053-.225-.079-.336a2.484,2.484,0,0,0-.13-.309,2.52,2.52,0,0,0-.863-.912,5.246,5.246,0,0,0-.877-.448C169.48,110.224,169.342,110.182,169.342,110.182Z" transform="translate(-169.342 -110.167)"/></g><path class="k" d="M170.2,113.409a.958.958,0,1,1-.947-1.1A1.031,1.031,0,0,1,170.2,113.409Z" transform="translate(-162.82 -107.467)"/></g><g transform="translate(6.786 42.335)"><path class="j" d="M116.583,113.547a5.863,5.863,0,1,0,5.858-5.662A5.763,5.763,0,0,0,116.583,113.547Z" transform="translate(-116.583 -107.885)"/><g class="h" transform="translate(2.025 2.497)"><path class="l" d="M121.512,110.182a2.414,2.414,0,0,0-.4-.014,3.29,3.29,0,0,0-1.036.206,2.572,2.572,0,0,0-1.249.955c-.08.127-.141.269-.217.409-.051.146-.1.3-.135.452l-.047.472c0,.153.012.308.016.464a4.105,4.105,0,0,0,.182.882,3.819,3.819,0,0,0,.362.795,2.955,2.955,0,0,0,1.1,1.091,2.529,2.529,0,0,0,.568.235,3,3,0,0,0,.456.074c.257.008.4,0,.4,0l-.357-.148c-.114-.043-.237-.126-.383-.2a3.339,3.339,0,0,1-.43-.323,2.856,2.856,0,0,1-.413-.459,3.137,3.137,0,0,1-.345-.591,4.44,4.44,0,0,1-.253-.692,3.513,3.513,0,0,1-.13-.756l-.027-.369.025-.356c.028-.111.053-.225.076-.336.048-.1.076-.213.128-.309a2.564,2.564,0,0,1,.87-.912,5,5,0,0,1,.876-.448C121.374,110.224,121.512,110.182,121.512,110.182Z" transform="translate(-118.433 -110.167)"/></g><path class="k" d="M120.556,113.409a.959.959,0,1,0,.951-1.1A1.032,1.032,0,0,0,120.556,113.409Z" transform="translate(-116.208 -107.467)"/></g><path class="j" d="M173.13,109.242c0,19.232-9.023,32.735-25.962,32.735s-25.966-13.5-25.966-32.735,9.369-34.82,26.309-34.82S173.13,90.012,173.13,109.242Z" transform="translate(-109.361 -68.709)"/><path class="j" d="M142.088,141.852s-16.127,2.131-21.925,7.148c-5.906,5.113-7.654,9.533-9.781,19.633H186c-2.129-10.1-3.874-14.52-9.784-19.633-5.8-5.017-21.923-7.148-21.923-7.148Z" transform="translate(-110.382 -62.344)"/><path class="m" d="M137.213,142.683s-11.253,1.3-17.051,6.317c-5.906,5.113-7.654,9.533-9.781,19.633H186c-2.129-10.1-3.845-14.556-9.784-19.633-4.9-4.186-15.909-6.085-15.909-6.085l-6.014-1.063h-12.2Z" transform="translate(-110.382 -62.344)"/><g transform="translate(32.709 79.13)"><path class="a" d="M142.347,151.706a1.136,1.136,0,0,1,.213-.219c-.07.071-.142.141-.213.219l-2.077,16.96h10.2l-2.077-16.96,1.4-5.828a2.628,2.628,0,0,0,.14-2.762,3.068,3.068,0,0,0-1.9-1.418,15.224,15.224,0,0,0-3.877-.135,3.352,3.352,0,0,0-2.994,1.105,2.556,2.556,0,0,0-.213,3.21Z" transform="translate(-140.27 -141.506)"/><path class="n" d="M141.955,150.056s4.227-1.974,6.26.905a6.737,6.737,0,0,0-6.041,0Z" transform="translate(-140.111 -140.761)"/></g><path class="o" d="M137.213,142.611s-11.253,1.3-17.051,6.317c-5.906,5.113-7.654,9.533-9.781,19.633H186c-2.129-10.1-3.845-14.555-9.784-19.633-4.9-4.186-15.909-6.085-15.909-6.085l-12.115,25.026Z" transform="translate(-110.382 -62.272)"/><path class="p" d="M135.981,142.769l10.827,25.086L135.3,160.42l2.589-4.447-12.871-10.63S132.318,142.515,135.981,142.769Z" transform="translate(-109 -62.259)"/><path class="p" d="M157.043,142.824,144.93,167.85l11.505-7.435-2.589-4.447,12.876-10.63S160.71,142.571,157.043,142.824Z" transform="translate(-107.121 -62.253)"/><path class="q" d="M132.835,142.808l9.736,6.789-.812-3.4Z" transform="translate(-108.262 -62.253)"/><path class="q" d="M158.786,142.919l-10.673,6.8.931-3.954Z" transform="translate(-106.82 -62.243)"/><g transform="translate(24.573 77.269)"><path class="m" d="M139.712,139.806l-6.877,3.285,8.137,4.86,5.69-6.28Z" transform="translate(-132.835 -139.806)"/><path class="k" d="M139.611,142.221a4.977,4.977,0,0,1,3.6-1.477l-3.5-.938-6.877,3.285,6.142,3.667A3.65,3.65,0,0,1,139.611,142.221Z" transform="translate(-132.835 -139.806)"/></g><g transform="translate(38.273 77.269)"><path class="m" d="M152.3,139.806l6.875,3.285-8.134,4.86-5.692-6.28Z" transform="translate(-145.354 -139.806)"/><path class="k" d="M152.107,142.221a4.973,4.973,0,0,0-3.6-1.477l3.5-.938,6.875,3.285-6.138,3.667A3.661,3.661,0,0,0,152.107,142.221Z" transform="translate(-145.056 -139.806)"/></g><path class="r" d="M121.409,114.421l2.628,2.632.508-21.178s.173-11,11.851-11a29.769,29.769,0,0,0,21.794.863s10.922-1.718,12.2,9.618l-.09,22.118,2.8-3.444.155-2.876s1.658-9.332,0-23.039c0,0-2.2-15.175-15.913-17.751,0,0-22.4-5.763-31.839,8.337a28.58,28.58,0,0,0-5.3,21.577Z" transform="translate(-109.485 -69.202)"/></g></g></g><g class="h" transform="translate(209.374 114.571)"><g transform="translate(0 0)"><circle class="b" cx="64.631" cy="64.631" r="64.631" transform="translate(0 6.439) rotate(-2.855)"/><g class="s" transform="translate(0)"><g transform="translate(29.96 13.832)"><rect class="j" width="12.715" height="7.56" transform="translate(31.453 84.54)"/><path class="n" d="M293.26,248.753a8.634,8.634,0,0,1,5.554-2.5c1.815-.138,4.917.253,5.884-1.641a2.092,2.092,0,0,1,.547-.7v-.805H292.53v6.53A6.4,6.4,0,0,1,293.26,248.753Z" transform="translate(-261.077 -158.567)"/><g transform="translate(57.911 54.615)"><path class="j" d="M328.429,221.424a5.865,5.865,0,1,1-5.861-5.661A5.768,5.768,0,0,1,328.429,221.424Z" transform="translate(-316.706 -215.763)"/><g class="h" transform="translate(6.617 2.497)"><path class="l" d="M322.752,218.059a2.5,2.5,0,0,1,.394-.013,3.217,3.217,0,0,1,1.039.206,2.551,2.551,0,0,1,1.248.957,4.481,4.481,0,0,1,.219.408c.051.146.1.3.135.45l.047.472c0,.154-.011.309-.014.465a4.179,4.179,0,0,1-.187.882,3.832,3.832,0,0,1-.361.8,2.922,2.922,0,0,1-1.1,1.092,2.446,2.446,0,0,1-.566.232,3.282,3.282,0,0,1-.455.077c-.257.007-.4,0-.4,0s.133-.054.361-.148c.111-.044.233-.127.382-.2a3.277,3.277,0,0,0,.427-.322,3,3,0,0,0,.415-.457,3.746,3.746,0,0,0,.346-.593,4.746,4.746,0,0,0,.248-.693,3.349,3.349,0,0,0,.132-.754l.031-.369-.03-.356c-.027-.112-.051-.225-.074-.335-.047-.1-.076-.217-.128-.312a2.572,2.572,0,0,0-.871-.911,5.3,5.3,0,0,0-.873-.447C322.892,218.1,322.752,218.059,322.752,218.059Z" transform="translate(-322.752 -218.044)"/></g><path class="k" d="M323.608,221.286a.96.96,0,1,1-.948-1.1A1.03,1.03,0,0,1,323.608,221.286Z" transform="translate(-316.234 -215.345)"/></g><g transform="translate(6.789 54.615)"><path class="j" d="M269.993,221.424a5.863,5.863,0,1,0,5.861-5.661A5.765,5.765,0,0,0,269.993,221.424Z" transform="translate(-269.993 -215.763)"/><g class="h" transform="translate(2.024 2.497)"><path class="l" d="M274.922,218.059a2.454,2.454,0,0,0-.392-.013,3.218,3.218,0,0,0-1.039.206,2.554,2.554,0,0,0-1.249.957c-.083.124-.143.269-.218.408-.053.146-.1.3-.136.45l-.047.472c0,.154.012.309.02.465a4.1,4.1,0,0,0,.181.882,4.013,4.013,0,0,0,.362.8,2.948,2.948,0,0,0,1.1,1.092,2.5,2.5,0,0,0,.565.232,3.3,3.3,0,0,0,.46.077c.252.007.392,0,.392,0l-.361-.148c-.11-.044-.233-.127-.381-.2a3.694,3.694,0,0,1-.427-.322,3.247,3.247,0,0,1-.414-.457,3.514,3.514,0,0,1-.346-.593,4.623,4.623,0,0,1-.25-.693,3.542,3.542,0,0,1-.134-.754l-.026-.369.023-.356c.033-.112.056-.225.079-.335.045-.1.077-.217.128-.312a2.565,2.565,0,0,1,.872-.911,5.124,5.124,0,0,1,.871-.447C274.785,218.1,274.922,218.059,274.922,218.059Z" transform="translate(-271.842 -218.044)"/></g><path class="k" d="M273.967,221.286a.958.958,0,1,0,.947-1.1A1.028,1.028,0,0,0,273.967,221.286Z" transform="translate(-269.618 -215.345)"/></g><path class="j" d="M326.542,217.12c0,19.232-9.024,32.735-25.963,32.735s-25.964-13.5-25.964-32.735,9.367-34.82,26.306-34.82S326.542,197.89,326.542,217.12Z" transform="translate(-262.768 -164.307)"/><path class="j" d="M295.5,249.728s-16.127,2.133-21.925,7.15c-5.906,5.114-7.654,9.532-9.784,19.635h75.618c-2.129-10.1-3.874-14.52-9.785-19.635-5.795-5.017-21.922-7.15-21.922-7.15Z" transform="translate(-263.79 -157.942)"/><path class="t" d="M313.944,250.747s9.885,1.019,15.679,6.036c5.911,5.114,7.656,9.532,9.785,19.635H263.79c2.13-10.1,3.877-14.52,9.784-19.635,5.8-5.017,15.722-6.045,15.722-6.045s-2.149,13.789,12.846,13.676C302.142,264.413,314.526,264.9,313.944,250.747Z" transform="translate(-263.79 -157.846)"/><line class="t" x1="0.51" transform="translate(37.557 118.57)"/><g transform="translate(23.362 92.486)"><path class="u" d="M289.325,250.367a1.994,1.994,0,0,1,.015.718c-.01.081-.694,5,2.122,8.246,1.79,2.059,4.718,3.093,8.673,3.058a.931.931,0,0,1,.1,0,10.473,10.473,0,0,0,7-2.732c1.927-1.949,2.824-5.406,2.663-9.291l4.132.729c.127,4.911-1.184,8.778-3.9,11.5a14.494,14.494,0,0,1-9.833,3.914c-.166,0-.23,0-.322,0-5.143,0-9.057-1.517-11.64-4.51-3.378-3.916-3.285-9.1-3.129-10.906Z" transform="translate(-285.137 -250.367)"/></g><path class="v" d="M274.027,207.1l.935,15.693,2.295.649c-2.018-25.333,11.329-31.131,11.329-31.131l3.734-15.858a18.614,18.614,0,0,0-16.4,9.051S271.7,189.784,274.027,207.1Z" transform="translate(-262.89 -164.86)"/><g transform="translate(9.546 14.901)"><path class="w" d="M274.226,208.843s-.437-1.98-.821-4.962c-.2-1.491-.394-3.232-.555-5.1-.07-.934-.173-1.9-.223-2.88-.028-.49-.058-.986-.088-1.482l-.021-.373,0-.047,0-.136,0-.093,0-.187.022-.749a10.627,10.627,0,0,1,.185-1.58,10.5,10.5,0,0,1,.345-1.567c.071-.252.132-.506.21-.752l.286-.717a11.064,11.064,0,0,1,.621-1.371,9.7,9.7,0,0,1,.708-1.262,12.193,12.193,0,0,1,.78-1.136,14.779,14.779,0,0,1,1.625-1.9,15.142,15.142,0,0,1,1.551-1.413,14.8,14.8,0,0,1,1.294-.954,10.715,10.715,0,0,1,1.2-.706,29.689,29.689,0,0,0-3.14,3.829c-.215.3-.424.614-.624.952s-.429.669-.623,1.034a11.1,11.1,0,0,0-.587,1.124c-.188.387-.387.777-.543,1.2a9.453,9.453,0,0,0-.464,1.264,12.385,12.385,0,0,0-.373,1.319,8.439,8.439,0,0,0-.264,1.335,8.629,8.629,0,0,0-.134,1.392l-.04.747-.01.187,0,.094v.011c0-.174,0-.042,0-.077v.07l.013.372c.016.5.035.994.051,1.484.042.983.03,1.952.046,2.889.013,1.875-.014,3.626-.077,5.128C274.477,206.832,274.226,208.843,274.226,208.843Z" transform="translate(-272.513 -179.474)"/></g><path class="v" d="M324.11,209.9l-.935,15.7-2.295.646c2.328-33.791-10.268-34.354-10.268-34.354l-4.8-12.636a18.615,18.615,0,0,1,16.4,9.054S326.438,192.593,324.11,209.9Z" transform="translate(-259.823 -164.595)"/><path class="v" d="M288.542,193.13s14.584-5.731,29.613,1.944l1.146-11.592s-2.94-22.634-32.486-15.423a21.545,21.545,0,0,1,5.282,3.434s-11.373-.789-16.4,9.565c0,0,7.69-2.569,13.871-.913C289.571,180.145,280.3,186.261,288.542,193.13Z" transform="translate(-262.666 -165.785)"/><g transform="translate(24.149)"><path class="w" d="M318.342,183.555a16.8,16.8,0,0,0-.573-1.665,26.207,26.207,0,0,0-2.024-4.088,26.544,26.544,0,0,0-1.731-2.449,24.011,24.011,0,0,0-2.286-2.391,20.571,20.571,0,0,0-2.828-2.076,18.135,18.135,0,0,0-3.251-1.585,16.5,16.5,0,0,0-1.727-.6,15.948,15.948,0,0,0-1.763-.451,28.209,28.209,0,0,0-3.524-.552c-.578-.076-1.151-.1-1.714-.123s-1.114-.08-1.654-.06c-1.078,0-2.1,0-3.05.065-.949.031-1.818.115-2.592.177s-1.452.121-2.007.194c-1.115.124-1.762.176-1.762.176s.6-.221,1.677-.577a19.393,19.393,0,0,1,1.959-.57,24.947,24.947,0,0,1,2.59-.575c.479-.082.979-.184,1.5-.258l1.626-.169c.558-.073,1.137-.07,1.729-.1a14.4,14.4,0,0,1,1.817.01c.617.025,1.247.042,1.881.129a14.788,14.788,0,0,1,1.921.283,24.039,24.039,0,0,1,3.836,1.076,20.209,20.209,0,0,1,3.568,1.823,18.585,18.585,0,0,1,3.014,2.445,19.1,19.1,0,0,1,5.187,10.134A11.114,11.114,0,0,1,318.342,183.555Z" transform="translate(-285.856 -165.859)"/></g></g></g></g></g><g class="h" transform="translate(102.371 92.494)"><path class="c" d="M267.9,197.678a64.631,64.631,0,1,1-64.633-64.631A64.632,64.632,0,0,1,267.9,197.678Z" transform="translate(-138.64 -133.047)"/><g class="x"><g transform="translate(26.823 13.723)"><rect class="j" width="12.716" height="7.56" transform="translate(31.45 81.512)"/><path class="n" d="M192.614,225.711a8.671,8.671,0,0,1,5.557-2.505c1.812-.135,4.917.254,5.883-1.639a2.115,2.115,0,0,1,.548-.695v-.8H191.887V226.6A6.89,6.89,0,0,1,192.614,225.711Z" transform="translate(-160.436 -138.555)"/><g transform="translate(57.907 51.586)"><path class="j" d="M227.786,198.384a5.866,5.866,0,1,1-5.859-5.662A5.762,5.762,0,0,1,227.786,198.384Z" transform="translate(-216.061 -192.722)"/><g class="h" transform="translate(6.62 2.496)"><path class="l" d="M222.11,195.017a2.4,2.4,0,0,1,.392-.012,3.255,3.255,0,0,1,1.04.206,2.537,2.537,0,0,1,1.249.958,3.5,3.5,0,0,1,.217.407,4.3,4.3,0,0,1,.135.451l.053.471c0,.155-.018.309-.021.465a4.021,4.021,0,0,1-.185.881,3.683,3.683,0,0,1-.361.8,2.925,2.925,0,0,1-1.1,1.092,2.422,2.422,0,0,1-.564.232,2.854,2.854,0,0,1-.461.077c-.251.007-.392,0-.392,0s.13-.056.359-.148c.111-.043.237-.126.381-.2a3.386,3.386,0,0,0,.43-.323,2.842,2.842,0,0,0,.415-.456,3.465,3.465,0,0,0,.344-.593,4.393,4.393,0,0,0,.251-.693,3.6,3.6,0,0,0,.134-.754l.027-.369-.022-.356c-.035-.112-.053-.225-.08-.335-.043-.1-.08-.217-.13-.312a2.548,2.548,0,0,0-.867-.909,5.376,5.376,0,0,0-.877-.448C222.249,195.059,222.11,195.017,222.11,195.017Z" transform="translate(-222.11 -195.003)"/></g><path class="k" d="M222.966,198.244a.96.96,0,1,1-.948-1.1A1.033,1.033,0,0,1,222.966,198.244Z" transform="translate(-215.589 -192.304)"/></g><g transform="translate(6.786 51.586)"><path class="j" d="M169.35,198.384a5.865,5.865,0,1,0,5.859-5.662A5.765,5.765,0,0,0,169.35,198.384Z" transform="translate(-169.35 -192.722)"/><g class="h" transform="translate(2.026 2.496)"><path class="l" d="M174.281,195.017a2.453,2.453,0,0,0-.4-.012,3.276,3.276,0,0,0-1.037.206,2.542,2.542,0,0,0-1.244.958,3.506,3.506,0,0,0-.218.407c-.054.146-.1.3-.138.451l-.046.471c0,.155.01.309.016.465a4.364,4.364,0,0,0,.184.881,3.844,3.844,0,0,0,.361.8,2.949,2.949,0,0,0,1.1,1.092,2.467,2.467,0,0,0,.565.232,2.951,2.951,0,0,0,.456.077c.256.007.4,0,.4,0s-.131-.056-.36-.148c-.111-.043-.234-.126-.383-.2a3.537,3.537,0,0,1-.428-.323,3,3,0,0,1-.413-.456,3.325,3.325,0,0,1-.344-.593,4.759,4.759,0,0,1-.255-.693,3.393,3.393,0,0,1-.126-.754l-.028-.369.023-.356c.03-.112.051-.225.076-.335.049-.1.077-.217.129-.312a2.547,2.547,0,0,1,.87-.909,5.161,5.161,0,0,1,.876-.448C174.142,195.059,174.281,195.017,174.281,195.017Z" transform="translate(-171.201 -195.003)"/></g><path class="k" d="M173.322,198.244a.96.96,0,1,0,.95-1.1A1.034,1.034,0,0,0,173.322,198.244Z" transform="translate(-168.975 -192.304)"/></g><path class="j" d="M225.9,194.08c0,19.232-9.024,32.735-25.966,32.735s-25.962-13.5-25.962-32.735,9.367-34.823,26.31-34.823S225.9,174.849,225.9,194.08Z" transform="translate(-162.127 -144.295)"/><path class="j" d="M194.855,226.688s-16.127,2.132-21.923,7.149c-5.908,5.112-7.654,9.533-9.783,19.636h75.616c-2.128-10.1-3.874-14.524-9.781-19.636-5.8-5.017-21.927-7.149-21.927-7.149Z" transform="translate(-163.149 -137.93)"/><path class="y" d="M188.655,227.7s-9.927,1.028-15.723,6.044c-5.908,5.112-7.654,9.533-9.783,19.636h75.616c-2.128-10.1-3.874-14.524-9.781-19.636-5.8-5.017-15.684-6.034-15.684-6.034l-12.345,12.277Z" transform="translate(-163.149 -137.835)"/><path class="z" d="M173.382,184.055l.939,15.693,2.294.648c-2.017-25.332,11.328-31.132,11.328-31.132l3.734-15.859a18.611,18.611,0,0,0-16.394,9.053S171.061,166.743,173.382,184.055Z" transform="translate(-162.249 -144.848)"/><g transform="translate(9.442 11.87)"><path class="aa" d="M173.591,185.8s-.473-1.979-.88-4.959c-.216-1.491-.418-3.231-.586-5.1-.074-.935-.182-1.9-.233-2.88q-.044-.737-.089-1.483l-.022-.372,0-.047,0-.144,0-.094.005-.187.021-.749a10.879,10.879,0,0,1,.188-1.589,10.422,10.422,0,0,1,.35-1.578c.071-.254.131-.51.211-.757l.289-.719a11.266,11.266,0,0,1,.629-1.377,9.4,9.4,0,0,1,.717-1.265,12.638,12.638,0,0,1,.789-1.137,14.818,14.818,0,0,1,1.645-1.9,14.653,14.653,0,0,1,1.568-1.4,13.968,13.968,0,0,1,1.309-.942,10.347,10.347,0,0,1,1.217-.691,31.121,31.121,0,0,0-3.093,3.868c-.211.3-.417.616-.614.955s-.422.67-.614,1.036a11.011,11.011,0,0,0-.576,1.122c-.185.389-.383.776-.536,1.192a9.664,9.664,0,0,0-.456,1.259,12.9,12.9,0,0,0-.367,1.311,8.368,8.368,0,0,0-.259,1.324,8.539,8.539,0,0,0-.132,1.382l-.04.747-.01.187-.005.093v0l.013.373c.016.5.033.993.049,1.484.041.982.022,1.952.036,2.889.007,1.875-.033,3.627-.109,5.131C173.877,183.786,173.591,185.8,173.591,185.8Z" transform="translate(-171.777 -156.432)"/></g><path class="n" d="M185.217,168.941s8.018,13.833,33.756,13.121c0,0-4.815-5.69-2.416-8.4C216.556,173.664,191.631,161.811,185.217,168.941Z" transform="translate(-161.066 -143.597)"/><path class="z" d="M223.469,186.862l-.939,15.7-2.292.647c2.016-25.334-11.332-31.13-11.332-31.13l-3.73-15.86a18.609,18.609,0,0,1,16.394,9.052S225.792,169.553,223.469,186.862Z" transform="translate(-159.182 -144.583)"/><path class="z" d="M181.361,156.375s3.7-7.537,16.983-9.6c0,0,22.106-2.659,29.154,12.68,0,0,3.564,7.384,2.277,20.377,0,0-1.334-5.846-4.961-7.789,0,0-.606,6.913-10.149,2.662,0,0-1.517,2.833,1.813,7.875C216.478,182.581,185.581,182.581,181.361,156.375Z" transform="translate(-161.43 -145.49)"/><g transform="translate(19.931)"><path class="aa" d="M181.361,156.471a9.517,9.517,0,0,1,1.166-2.038,15.7,15.7,0,0,1,1.773-2.06c.361-.387.8-.731,1.241-1.135.464-.364.958-.752,1.5-1.116a22.206,22.206,0,0,1,3.674-2.047,26.8,26.8,0,0,1,4.425-1.572c.78-.246,1.6-.364,2.414-.554l.616-.13.689-.083c.425-.042.85-.068,1.277-.091a45.115,45.115,0,0,1,5.16.028,42.126,42.126,0,0,1,5.122.7,30.287,30.287,0,0,1,4.83,1.4,24.721,24.721,0,0,1,4.24,2.07,19.581,19.581,0,0,1,3.364,2.56,17.216,17.216,0,0,1,2.339,2.673,15.444,15.444,0,0,1,1.4,2.326,12.486,12.486,0,0,1,.691,1.589l.22.568-.33-.513c-.212-.335-.519-.826-.965-1.409a19.545,19.545,0,0,0-1.685-2.008,14.58,14.58,0,0,0-1.152-1.108c-.41-.383-.871-.751-1.358-1.123a23.388,23.388,0,0,0-3.351-2.078,30.1,30.1,0,0,0-4.073-1.66A36.3,36.3,0,0,0,210,148.522a40.617,40.617,0,0,0-4.861-.586,42.79,42.79,0,0,0-4.905-.1l-1.2.061-.536.035-.588.1c-.777.143-1.563.218-2.3.416a33.091,33.091,0,0,0-4.257,1.2l-.978.359-.925.4c-.621.241-1.176.556-1.73.83a23.316,23.316,0,0,0-2.849,1.8,19.8,19.8,0,0,0-2,1.7,15.605,15.605,0,0,0-1.146,1.257A5.193,5.193,0,0,0,181.361,156.471Z" transform="translate(-181.361 -145.586)"/></g></g></g></g><g class="h" transform="translate(0 117.708)"><path class="d" d="M174.36,220.72a64.631,64.631,0,1,1-64.634-64.634A64.632,64.632,0,0,1,174.36,220.72Z" transform="translate(-45.099 -156.086)"/><g class="ab"><g transform="translate(26.818 20.016)"><path class="z" d="M132.865,222.326s-8.362,28.264-23.136,30.039v-6.442S124.872,217.691,132.865,222.326Z" transform="translate(-65.816 -169.898)"/><rect class="j" width="12.712" height="7.563" transform="translate(31.454 75.219)"/><path class="n" d="M99.069,248.753a8.66,8.66,0,0,1,5.557-2.5c1.817-.138,4.917.253,5.886-1.641a2.121,2.121,0,0,1,.544-.695v-.807H98.345v6.532A6.545,6.545,0,0,1,99.069,248.753Z" transform="translate(-66.891 -167.887)"/><g transform="translate(57.913 45.296)"><path class="j" d="M134.242,221.426a5.863,5.863,0,1,1-5.862-5.661A5.765,5.765,0,0,1,134.242,221.426Z" transform="translate(-122.522 -215.765)"/><g class="h" transform="translate(6.617 2.495)"><path class="l" d="M128.568,218.059a2.507,2.507,0,0,1,.4-.013,3.273,3.273,0,0,1,1.034.206,2.576,2.576,0,0,1,1.252.959,4.283,4.283,0,0,1,.211.406,4.423,4.423,0,0,1,.14.452l.047.472a4.4,4.4,0,0,1-.021.463,3.9,3.9,0,0,1-.182.881,3.763,3.763,0,0,1-.359.8,2.968,2.968,0,0,1-1.1,1.091,2.423,2.423,0,0,1-.565.234,3.671,3.671,0,0,1-.457.077c-.258,0-.4,0-.4,0l.358-.148c.113-.044.236-.127.382-.2a4.135,4.135,0,0,0,.431-.322,3.2,3.2,0,0,0,.413-.457,3.8,3.8,0,0,0,.344-.591,4.047,4.047,0,0,0,.251-.695,3.292,3.292,0,0,0,.134-.751l.028-.371-.026-.357c-.031-.112-.051-.228-.079-.335-.046-.1-.073-.213-.127-.312a2.593,2.593,0,0,0-.872-.911,5.128,5.128,0,0,0-.872-.447C128.7,218.1,128.568,218.059,128.568,218.059Z" transform="translate(-128.568 -218.044)"/></g><path class="k" d="M129.422,221.286a.959.959,0,1,1-.95-1.1A1.03,1.03,0,0,1,129.422,221.286Z" transform="translate(-122.05 -215.347)"/></g><g transform="translate(6.787 45.296)"><path class="j" d="M75.806,221.426a5.864,5.864,0,1,0,5.859-5.661A5.764,5.764,0,0,0,75.806,221.426Z" transform="translate(-75.806 -215.765)"/><g class="h" transform="translate(2.024 2.495)"><path class="l" d="M80.74,218.059a2.572,2.572,0,0,0-.4-.013,3.267,3.267,0,0,0-1.034.206,2.56,2.56,0,0,0-1.249.959,4.577,4.577,0,0,0-.22.406c-.05.147-.094.3-.134.452l-.05.472c0,.152.01.309.019.463a4.035,4.035,0,0,0,.186.881,3.664,3.664,0,0,0,.362.8,2.913,2.913,0,0,0,1.1,1.091,2.378,2.378,0,0,0,.56.234,3.718,3.718,0,0,0,.459.077c.255,0,.4,0,.4,0s-.135-.054-.362-.148c-.113-.044-.237-.127-.381-.2a3.144,3.144,0,0,1-.428-.322,2.857,2.857,0,0,1-.415-.457,3.5,3.5,0,0,1-.347-.591,4.451,4.451,0,0,1-.25-.695,3.229,3.229,0,0,1-.131-.751l-.028-.371.023-.357c.035-.112.056-.228.081-.335a3.112,3.112,0,0,1,.129-.312,2.572,2.572,0,0,1,.868-.911,5.3,5.3,0,0,1,.872-.447C80.6,218.1,80.74,218.059,80.74,218.059Z" transform="translate(-77.655 -218.044)"/></g><path class="k" d="M79.776,221.286a.962.962,0,1,0,.953-1.1A1.034,1.034,0,0,0,79.776,221.286Z" transform="translate(-75.431 -215.347)"/></g><path class="j" d="M132.354,217.123c0,19.23-9.019,32.733-25.962,32.733s-25.961-13.5-25.961-32.733S89.8,182.3,106.738,182.3,132.354,197.89,132.354,217.123Z" transform="translate(-68.582 -173.628)"/><path class="j" d="M101.311,249.73s-16.124,2.132-21.92,7.147c-5.911,5.114-7.659,9.532-9.787,19.635h75.618c-2.126-10.1-3.874-14.52-9.784-19.635-5.8-5.016-21.922-7.147-21.922-7.147Z" transform="translate(-69.604 -167.262)"/><path class="a" d="M112.015,249.73a84.666,84.666,0,0,1,15.143,3.572s-4.035,9.773,0,23.21H85.511s2.873-8.2,1.1-23.867a89.06,89.06,0,0,1,13.2-2.915l5.85,11.37Z" transform="translate(-68.102 -167.262)"/><path class="a" d="M103.921,274.2" transform="translate(-66.365 -164.952)"/><path class="z" d="M132.27,219.755c-8.753-2.141-13-13.019-13-13.019a12.637,12.637,0,0,0,.285,5.266,79.991,79.991,0,0,1-25.446-19c-8.059-9.95,4.886-16.485,4.886-16.485,20.761-7.328,29.69,6.535,29.69,6.535s14.749,13.337,7.489,39.12A6.287,6.287,0,0,0,132.27,219.755Z" transform="translate(-67.54 -174.376)"/><path class="z" d="M98.015,181.72s-18.6.635-22.169,30.046c0,0-5.14,53.806,19,62.966,0,0-1.585-15.229,5.669-18.549v-6.977S82.92,246.111,83.147,223.1c0,0,.115-26.559,13.625-31.6Z" transform="translate(-69.058 -173.682)"/><path class="m" d="M130.006,226.08a1.958,1.958,0,1,1-1.962-1.959A1.961,1.961,0,0,1,130.006,226.08Z" transform="translate(-64.272 -169.68)"/></g></g></g><g class="h" transform="translate(163.36)"><circle class="e" cx="64.633" cy="64.633" r="64.633"/><g class="ac"><g transform="translate(26.825 18.991)"><rect class="j" width="12.714" height="7.564" transform="translate(31.452 76.243)"/><path class="n" d="M248.347,141.2a8.638,8.638,0,0,1,5.554-2.505c1.818-.137,4.918.254,5.883-1.64a2.2,2.2,0,0,1,.548-.695v-.807H247.619v6.532A6.48,6.48,0,0,1,248.347,141.2Z" transform="translate(-216.167 -59.308)"/><g transform="translate(57.912 46.32)"><path class="j" d="M283.518,113.87a5.864,5.864,0,1,1-5.861-5.661A5.763,5.763,0,0,1,283.518,113.87Z" transform="translate(-271.797 -108.209)"/><g class="h" transform="translate(6.617 2.495)"><path class="l" d="M277.843,110.5a2.4,2.4,0,0,1,.393-.012,3.287,3.287,0,0,1,1.035.2,2.535,2.535,0,0,1,1.248.959,3.577,3.577,0,0,1,.219.406c.053.147.1.3.139.452l.047.472c0,.154-.012.309-.019.464a4.018,4.018,0,0,1-.185.88,3.747,3.747,0,0,1-.362.8,2.92,2.92,0,0,1-1.1,1.09,2.436,2.436,0,0,1-.564.234,3.64,3.64,0,0,1-.455.077c-.257,0-.4,0-.4,0l.359-.148c.111-.043.235-.127.381-.2a3.4,3.4,0,0,0,.427-.323,2.624,2.624,0,0,0,.414-.457,3.245,3.245,0,0,0,.346-.591,4.4,4.4,0,0,0,.251-.695,3.33,3.33,0,0,0,.132-.75l.031-.371-.027-.358c-.032-.112-.05-.228-.077-.335a3.093,3.093,0,0,0-.13-.311,2.566,2.566,0,0,0-.867-.909,5.214,5.214,0,0,0-.876-.449C277.983,110.546,277.843,110.5,277.843,110.5Z" transform="translate(-277.843 -110.489)"/></g><path class="k" d="M278.7,113.729a.961.961,0,1,1-.952-1.1A1.032,1.032,0,0,1,278.7,113.729Z" transform="translate(-271.325 -107.791)"/></g><g transform="translate(6.789 46.32)"><path class="j" d="M225.083,113.87a5.863,5.863,0,1,0,5.858-5.661A5.761,5.761,0,0,0,225.083,113.87Z" transform="translate(-225.083 -108.209)"/><g class="h" transform="translate(2.024 2.495)"><path class="l" d="M230.011,110.5a2.434,2.434,0,0,0-.394-.012,3.3,3.3,0,0,0-1.035.2,2.566,2.566,0,0,0-1.249.959c-.082.124-.144.267-.221.406-.048.147-.092.3-.131.452l-.048.472c0,.154.01.309.018.464a3.9,3.9,0,0,0,.184.88,3.854,3.854,0,0,0,.36.8,2.992,2.992,0,0,0,1.1,1.09,2.476,2.476,0,0,0,.567.234,3.448,3.448,0,0,0,.457.077c.257,0,.394,0,.394,0l-.359-.148c-.113-.043-.235-.127-.381-.2a3.477,3.477,0,0,1-.427-.323,2.63,2.63,0,0,1-.415-.457,3.45,3.45,0,0,1-.346-.591,4.309,4.309,0,0,1-.252-.695,3.391,3.391,0,0,1-.129-.75l-.028-.371.024-.358c.033-.112.05-.228.077-.335.046-.1.073-.212.128-.311a2.584,2.584,0,0,1,.87-.909,5.009,5.009,0,0,1,.873-.449C229.874,110.546,230.011,110.5,230.011,110.5Z" transform="translate(-226.932 -110.489)"/></g><path class="k" d="M229.054,113.729a.959.959,0,1,0,.95-1.1A1.031,1.031,0,0,0,229.054,113.729Z" transform="translate(-224.708 -107.791)"/></g><path class="j" d="M281.631,109.567c0,19.23-9.028,32.733-25.961,32.733S229.7,128.8,229.7,109.567s9.366-34.822,26.306-34.822S281.631,90.335,281.631,109.567Z" transform="translate(-217.858 -65.048)"/><path class="j" d="M250.588,142.174s-16.128,2.133-21.925,7.149c-5.909,5.113-7.653,9.532-9.783,19.635H294.5c-2.13-10.1-3.876-14.522-9.783-19.635-5.8-5.016-21.924-7.149-21.924-7.149Z" transform="translate(-218.88 -58.683)"/><path class="ad" d="M240.514,143.685s1.739-.738-4.628,1.274c1.752,15.85-1.1,23.868-1.1,23.868h41.647c-4.035-13.437,0-23.21,0-23.21l-3.851-1.4s-.356,19.3-17.649,17.962C254.932,162.184,239.946,163.654,240.514,143.685Z" transform="translate(-217.379 -58.553)"/><path class="a" d="M253.194,166.647" transform="translate(-215.641 -56.373)"/><path class="v" d="M247.291,74.164s-18.606.636-22.167,30.047c0,0-3.47,24.224,8.27,44.881a77,77,0,0,1,16.393-.465V141.65s-17.59-3.095-17.362-26.107c0,0,.115-26.558,13.619-31.6Z" transform="translate(-218.336 -65.103)"/><path class="v" d="M261.733,74.164s21.1-.326,24.658,29.086c0,0,1.83,19.676-10.76,45.842a77.044,77.044,0,0,0-16.4-.465V141.65s17.588-3.095,17.364-26.107c0,0-.114-26.558-13.625-31.6Z" transform="translate(-215.07 -65.103)"/><path class="v" d="M238.578,82.4a41.186,41.186,0,0,0,36.984,17.286l4.917,12.522,4.872,2.021s7.362-2.021-.294-31.829c0,0-7.915-21.794-36.509-15.305C248.548,67.091,234.3,69.692,238.578,82.4Z" transform="translate(-217.096 -65.884)"/></g></g></g><g class="h" transform="translate(102.369 205.335)"><path class="a" d="M267.9,300.788a64.632,64.632,0,1,1-64.632-64.633A64.632,64.632,0,0,1,267.9,300.788Z" transform="translate(-138.638 -236.155)"/><g class="ae"><g transform="translate(26.824 20.659)"><rect class="j" width="12.711" height="7.565" transform="translate(31.455 74.574)"/><path class="n" d="M192.616,328.821a8.628,8.628,0,0,1,5.557-2.505c1.813-.137,4.915.253,5.88-1.642a2.175,2.175,0,0,1,.547-.694v-.808H191.89v6.534A6.383,6.383,0,0,1,192.616,328.821Z" transform="translate(-160.435 -248.599)"/><g transform="translate(57.908 44.653)"><path class="j" d="M227.786,301.492a5.866,5.866,0,1,1-5.859-5.659A5.763,5.763,0,0,1,227.786,301.492Z" transform="translate(-216.061 -295.833)"/><g class="h" transform="translate(6.622 2.495)"><path class="l" d="M222.112,298.127a2.459,2.459,0,0,1,.393-.013,3.3,3.3,0,0,1,1.035.2,2.545,2.545,0,0,1,1.248.959,3.771,3.771,0,0,1,.219.406c.051.147.1.3.135.452l.05.472c0,.155-.012.309-.019.466a4.105,4.105,0,0,1-.185.879,3.8,3.8,0,0,1-.362.8,2.915,2.915,0,0,1-1.1,1.09,2.463,2.463,0,0,1-.561.234,3.5,3.5,0,0,1-.46.077c-.253,0-.393,0-.393,0l.357-.148c.113-.042.236-.128.381-.2a3.206,3.206,0,0,0,.429-.323,2.624,2.624,0,0,0,.414-.457,3.3,3.3,0,0,0,.346-.591,4.331,4.331,0,0,0,.251-.694,3.663,3.663,0,0,0,.131-.751l.028-.371-.023-.357c-.034-.113-.05-.225-.079-.336-.046-.1-.076-.212-.129-.309a2.549,2.549,0,0,0-.868-.912,5.508,5.508,0,0,0-.876-.448C222.251,298.169,222.112,298.127,222.112,298.127Z" transform="translate(-222.112 -298.112)"/></g><path class="k" d="M222.963,301.354a.958.958,0,1,1-.947-1.1A1.028,1.028,0,0,1,222.963,301.354Z" transform="translate(-215.589 -295.415)"/></g><g transform="translate(6.79 44.653)"><path class="j" d="M169.352,301.492a5.863,5.863,0,1,0,5.857-5.659A5.761,5.761,0,0,0,169.352,301.492Z" transform="translate(-169.352 -295.833)"/><g class="h" transform="translate(2.021 2.495)"><path class="l" d="M174.28,298.127a2.5,2.5,0,0,0-.4-.013,3.29,3.29,0,0,0-1.035.2,2.573,2.573,0,0,0-1.25.959,4.175,4.175,0,0,0-.215.406c-.054.147-.1.3-.138.452l-.048.472c0,.155.011.309.021.466a4.033,4.033,0,0,0,.182.879,3.8,3.8,0,0,0,.362.8,2.923,2.923,0,0,0,1.1,1.09,2.36,2.36,0,0,0,.564.234,3.451,3.451,0,0,0,.457.077c.254,0,.4,0,.4,0s-.132-.053-.359-.148c-.111-.042-.238-.128-.382-.2a3.272,3.272,0,0,1-.428-.323,2.914,2.914,0,0,1-.414-.457,3.584,3.584,0,0,1-.346-.591,4.56,4.56,0,0,1-.253-.694,3.325,3.325,0,0,1-.128-.751l-.027-.371.022-.357c.033-.113.053-.225.078-.336.047-.1.076-.212.13-.309a2.552,2.552,0,0,1,.869-.912,5.278,5.278,0,0,1,.873-.448C174.142,298.169,174.28,298.127,174.28,298.127Z" transform="translate(-171.199 -298.112)"/></g><path class="k" d="M173.322,301.354a.959.959,0,1,0,.951-1.1A1.032,1.032,0,0,0,173.322,301.354Z" transform="translate(-168.977 -295.415)"/></g><path class="j" d="M225.9,297.188c0,19.232-9.021,32.736-25.966,32.736s-25.962-13.5-25.962-32.736,9.365-34.82,26.307-34.82S225.9,277.958,225.9,297.188Z" transform="translate(-162.126 -254.339)"/><path class="j" d="M194.857,329.8s-16.129,2.134-21.924,7.149c-5.909,5.114-7.659,9.532-9.785,19.635h75.617c-2.129-10.1-3.876-14.52-9.783-19.635-5.8-5.015-21.925-7.149-21.925-7.149Z" transform="translate(-163.148 -247.974)"/><path class="af" d="M214.882,331.143c4.959,1.149,11,3,14.1,5.683,5.906,5.114,7.654,9.532,9.783,19.635H163.148c2.126-10.1,3.876-14.52,9.785-19.635,3.185-2.755,9.486-4.641,14.516-5.781l13.507,14.56Z" transform="translate(-163.148 -247.856)"/><path class="a" d="M197.463,354.269" transform="translate(-159.909 -245.664)"/><path class="z" d="M191.579,261.789s-18.606.634-22.167,30.045c0,0-.695,25.263-.695,55.139,0,0,4.256-7.465,25.36-10.721v-6.979s-17.595-3.1-17.367-26.107c0,0,.119-26.559,13.625-31.6Z" transform="translate(-162.622 -254.394)"/><path class="z" d="M206,261.789s21.133-1.065,24.7,28.346c0,0,.411,26.1-1.726,57.135,0,0-5.859-8.368-25.468-11.018v-6.979s17.59-3.1,17.364-26.107c0,0-.112-26.559-13.624-31.6Z" transform="translate(-159.338 -254.394)"/><path class="z" d="M197.485,290.773l2.625-13.174v13.174h13.043l2.16-9.274,2.25,9.274h16.351a84.707,84.707,0,0,0-1.726-16.943s-4.351-20.494-35.045-18.685c0,0-25.861,0-27.733,35.628Z" transform="translate(-162.557 -255.032)"/></g></g></g></g><g transform="translate(140.615)"><path class="b" d="M191.457,41.139a8.936,8.936,0,1,1-8.936-8.937A8.936,8.936,0,0,1,191.457,41.139Z" transform="translate(-173.585 -32.202)"/><path class="a" d="M204.339,59.8a6.117,6.117,0,1,1-6.117-6.117A6.117,6.117,0,0,1,204.339,59.8Z" transform="translate(-171.837 -30.174)"/><path class="c" d="M226.206,42.905A10.7,10.7,0,1,1,215.5,32.2,10.706,10.706,0,0,1,226.206,42.905Z" transform="translate(-170.638 -32.202)"/></g><g transform="translate(299.838 82.581)"><path class="b" d="M327.034,138.339a7.961,7.961,0,1,1-7.96,7.962A7.961,7.961,0,0,1,327.034,138.339Z" transform="translate(-319.074 -104.764)"/><path class="a" d="M343.661,126.431a5.448,5.448,0,1,1-5.449,5.45A5.449,5.449,0,0,1,343.661,126.431Z" transform="translate(-317.267 -105.888)"/><path class="c" d="M328.606,107.66a9.533,9.533,0,1,1-9.532,9.535A9.536,9.536,0,0,1,328.606,107.66Z" transform="translate(-319.074 -107.66)"/></g><g transform="translate(6.819 91.447)"><path class="b" d="M62.973,143.367a7.961,7.961,0,1,1-10.739,3.38A7.963,7.963,0,0,1,62.973,143.367Z" transform="translate(-51.33 -113.24)"/><path class="a" d="M83.094,140.57a5.448,5.448,0,1,1-7.35,2.312A5.447,5.447,0,0,1,83.094,140.57Z" transform="translate(-49.083 -113.478)"/><path class="c" d="M78.633,116.843a9.534,9.534,0,1,1-12.865,4.048A9.536,9.536,0,0,1,78.633,116.843Z" transform="translate(-50.069 -115.761)"/></g><g transform="translate(60.462 274.432)"><path class="b" d="M118.851,311.653a7.961,7.961,0,1,1-3.077,10.828A7.962,7.962,0,0,1,118.851,311.653Z" transform="translate(-98.985 -280.35)"/><path class="a" d="M127.654,293.023a5.448,5.448,0,1,1-2.107,7.411A5.446,5.446,0,0,1,127.654,293.023Z" transform="translate(-98.032 -282.078)"/><path class="c" d="M105.241,284.17a9.534,9.534,0,1,1-3.686,12.971A9.536,9.536,0,0,1,105.241,284.17Z" transform="translate(-100.346 -282.963)"/></g><g transform="translate(236.026 274.641)"><path class="b" d="M275.68,301.659a7.959,7.959,0,1,1-10.829-3.079A7.957,7.957,0,0,1,275.68,301.659Z" transform="translate(-260.767 -281.793)"/><path class="a" d="M293.877,310.462a5.447,5.447,0,1,1-7.413-2.106A5.443,5.443,0,0,1,293.877,310.462Z" transform="translate(-258.605 -280.84)"/><path class="c" d="M303.436,288.048a9.534,9.534,0,1,1-12.97-3.686A9.533,9.533,0,0,1,303.436,288.048Z" transform="translate(-258.425 -283.154)"/></g></g></g></g></svg>