<svg xmlns="http://www.w3.org/2000/svg" width="51.206" height="53.921" viewBox="0 0 51.206 53.921"><defs><style>.a{fill:#dcf4fe;}</style></defs><path class="a" d="M692.527,324.121c10.865-10.884,3.792-22.855-4.376-25.7s-14.91,3.478-14.91,3.478-11.653,9.067-2.128,21.65C671.112,323.548,680.155,336.512,692.527,324.121Z" transform="translate(-646.867 -275.563)"/><path class="a" d="M660.483,307.137a2.687,2.687,0,0,1,.129-1.759c.578-1.278,2.174-3.339,6.311-2.3,4.163,1.045,5.652,2.842,6.16,3.78a2.228,2.228,0,0,1,.249,1.265c-.125,1.376-1.1,4.372-7.372,3.581A5.884,5.884,0,0,1,660.483,307.137Z" transform="translate(-656.609 -268.425)"/><path class="a" d="M680.171,291.454a2.79,2.79,0,0,0-1.874-.228c-1.373.336-3.631,1.527-3.427,5.721a13.251,13.251,0,0,0,.875,4.408,3.793,3.793,0,0,0,6.994.055,11.971,11.971,0,0,0,.779-3.72A5.885,5.885,0,0,0,680.171,291.454Z" transform="translate(-636.407 -284.683)"/><path class="a" d="M659.3,298.494s1.747-5.6,8.511-3.538,12.6,7.658,9.947,12.13c0,0-2.6,7.207-13.688.537C664.072,307.623,656.913,303.532,659.3,298.494Z" transform="translate(-658.814 -280.008)"/><path class="a" d="M671.371,288.612s-5.834.618-5.136,7.653,5.043,13.853,9.947,12.13c0,0,7.579-1.143,3.207-13.316C679.388,295.078,676.778,287.256,671.371,288.612Z" transform="translate(-648.531 -288.454)"/></svg>