<svg xmlns="http://www.w3.org/2000/svg" width="289.788" height="548.232" viewBox="0 0 289.788 548.232"><defs><style>.a{fill:#5b729b;}.b{fill:#fa9f19;font-size:180px;font-family:Poppins-Bold, Poppins;font-weight:700;letter-spacing:0.025em;}</style></defs><g transform="translate(-831.202 -138.667)"><path class="a" d="M-447.5,90.687a26.486,26.486,0,0,0-3.18,1.194c-1.608.638-3.2,1.309-4.822,1.92-1.567.592-3.539.723-4.646,1.778-1.744,1.662-3.272-.4-4.839.3a19.3,19.3,0,0,1-3.26.942,1.906,1.906,0,0,1-1.159.019c-1.892-.894-3.752-1.856-5.8-2.887a.8.8,0,0,1-.035-.348,107.788,107.788,0,0,0-1.408-22.273c-2.408-15.784-7.865-30.369-17.256-43.362a11.45,11.45,0,0,1-2.032-5.173c-.8-5.061-2.052-10-4.923-14.364a16.549,16.549,0,0,0-8.338-6.512c1.164-.965,2.121-1.754,3.075-2.548,8.862-7.383,16.5-15.953,23.7-24.9a27.86,27.86,0,0,0,4.607-7.822,119.441,119.441,0,0,0,4.995-17.021,76.425,76.425,0,0,0,1.122-14.908c-.015-8.057-2.269-15.8-4.18-23.552-5.01-20.314-13.279-39.438-21.943-58.372-5.7-12.46-13.607-23.656-21.613-34.72-5.689-7.862-11.977-15.227-19.827-21.1a4.215,4.215,0,0,1-.915-1.47c-.6-1.147-.925-2.562-1.8-3.409-1.461-1.408-1.379-2.9-1.019-4.583a4.707,4.707,0,0,0,.076-.648c.74-10.028,1.509-20.053,2.2-30.085.167-2.439.119-4.9.077-7.343-.034-2.073-.442-2.458-2.486-2.388-2.418.082-4.833.235-7.245.421a14.181,14.181,0,0,0-2.709.507,2.5,2.5,0,0,0-1.972,2.636c-.012,2.878-.077,5.755-.109,8.632-.014,1.232,0,2.465,0,3.357l-7.932.733c-.123-.522-.254-1.039-.365-1.559-.666-3.128-1.222-6.285-2.028-9.377-.532-2.042-1.78-2.844-3.8-2.43-3.129.639-6.222,1.481-9.3,2.352a3.028,3.028,0,0,0-2.2,3.1c-.017.532,0,1.066,0,1.82-3.186-1.207-6.237-.393-9.276-.016-4.489.557-5.011,1.259-4.833,5.868a2.58,2.58,0,0,1,0,.811c-.084.28-.241.661-.466.753-1.018.412-2.072.737-3.1,1.089-.543-3.548-.965-6.829-1.573-10.075-.348-1.857-1.218-2.384-3.043-2.087-3.366.549-6.741,1.084-10.072,1.809-1.59.346-3.059,1.223-4.638,1.659a41.282,41.282,0,0,1-4.328.731c-4.639.757-5.222,1.583-4.525,6.243.059.394-.108,1.126-.347,1.212-1.693.609-3.433,1.091-5.1,1.6V-252.24c1.564,0,2.865.046,4.161-.008,4.006-.168,8.015-.309,12.012-.6,1.256-.092,2.806-.354,1.881-2.4-.115-.254.26-.693.3-1.059.326-2.733.733-5.464.881-8.208a2.084,2.084,0,0,0-1.873-2.465c-4.119-.219-8.242-.366-12.365-.5-1.61-.054-3.223-.009-4.938-.009,0-.728,0-1.32,0-1.912q0-12.161,0-24.321c0-2.572-.819-3.582-3.4-3.7a76.2,76.2,0,0,0-8.135.106c-2.721.17-2.919.53-2.638,3.276a4.494,4.494,0,0,1,0,.489q-.093,12.4-.192,24.8c0,.417-.065.834-.109,1.373-.9,0-1.7.013-2.506,0-2.774-.051-5.549-.193-8.321-.142a54.526,54.526,0,0,0-6.975.529c-1.026.151-2.3.531-2.23,2.106.155,3.313.284,6.627.44,9.941.13,2.773.773,3.414,3.591,3.38,4.025-.049,8.049-.18,12.074-.258,1.441-.028,2.882,0,4.47,0v9.22c-2.11.137-4.116.239-6.117.406-1.882.156-2.6,1.086-2.276,2.943.373,2.138.728,4.283,1.241,6.389.251,1.031.008,1.543-.96,1.814-1.791.5-3.579,1.017-5.594,1.591-.254-2.879-.43-5.581-.745-8.266-.457-3.892-.7-3.934-3.784-4.349-2.8-.375-5.581-.861-8.387-1.127-.743-.071-2.041.3-2.229.8a13.228,13.228,0,0,0-1.059,4.947c.087,2.693.77,5.361.987,8.056.615,7.637,1.115,15.282,1.678,22.923.1,1.3.333,2.519-1.343,3.171-.575.223-.934,1.163-1.259,1.839a12.543,12.543,0,0,0,2.719,15.03c-.726.8-1.372,1.526-2.044,2.234A142.758,142.758,0,0,0-696.42-155.6c-6.616,11.856-12.907,23.884-18.6,36.243a228.791,228.791,0,0,0-15.093,42.271c-2.545,10.589-2.958,21.449.066,32,7.232,25.22,21.925,44.771,45.106,57.586.6.333,1.2.675,1.88,1.056a2.736,2.736,0,0,1-.414.257C-698.62,18.423-703.347,35-699.39,46.778a3.664,3.664,0,0,1-.658,2.706c-.772,1.162-1.973,2.03-2.822,3.151-6.6,8.728-11.024,18.286-12.369,29.341-1.33,10.929,1.811,20.256,8.435,28.69,1.029,1.31,2.794,2.358,3.15,3.793.4,1.6-.428,3.5-.724,5.263a2.47,2.47,0,0,1-.176.792,4.046,4.046,0,0,1-1,1.475,7.515,7.515,0,0,0-3.635,8.407c.664,2.983,2.064,5.8,3.078,8.708a9.456,9.456,0,0,1,.729,3.1c-.135,10.879-.415,21.756-.52,32.635-.092,9.518-.011,19.037-.008,28.556,0,2.923,0,5.847,0,8.822-1.077.18-1.771.253-2.443.415-4.206,1.011-8.678,1.44-12.553,3.189-8.518,3.846-12.53,11.347-14.338,20.167a8.929,8.929,0,0,0-.054,4.164c1.235,4.115,4.557,5.955,8.472,6.694,4.957.937,9.944,1.768,14.952,2.362,5.231.62,10.5.943,15.756,1.317a40.687,40.687,0,0,0,6.655.115c5.154-.484,10.2-2.1,15.463-1.435a3.842,3.842,0,0,0,.652-.019c13.792-.638,27.633-.434,41.355-2.27,4.736-.634,9.757.154,14.087-2.657.045-.029.1-.079.144-.071,2.254.4,2.164-1.482,2.607-2.759a17.057,17.057,0,0,0,.418-2.4c.8-4.191,1.605-8.38,2.375-12.386,2.89-.311,5.633-.641,8.384-.873a2.926,2.926,0,0,1,1.65.468,12.652,12.652,0,0,0,7.721,2.115,2.146,2.146,0,0,1,1.6.482,36.684,36.684,0,0,1,3.652,4.917c1.328,2.3,2.194,4.872,3.6,7.116.942,1.51,1.364,3.69,3.58,4.086a36.544,36.544,0,0,0,5.327.674c6.143.178,12.291.212,18.435.368,1.785.046,3.568.281,5.345.485,2.1.241,4.181.727,6.279.785,9.225.251,18.313-.961,27.4-2.464,9.422-1.556,18.941-2.528,28.2-5.008,5-1.341,9.883-2.988,14.2-5.953,3.84-2.639,5.929-6.218,5.263-10.98a60.414,60.414,0,0,0-1.684-8.277,20.09,20.09,0,0,0-19.515-14.708c-2.162-.01-4.324,0-6.43,0a7.233,7.233,0,0,1-.351-.942c-2.16-10.907-4.911-21.71-5.819-32.834a2.859,2.859,0,0,1,.921-1.837c2.685-2.767,5.634-5.3,8.126-8.23,7.512-8.826,12.484-19.042,15.9-30.063a3.02,3.02,0,0,1,.944-1.615c3.141-1.993,6.346-3.887,9.313-5.681,1.258.646,2.511,1.729,3.886,1.917,5.5.748,8.933-3.336,7.731-8.879-.12-.555-.177-1.452.136-1.719,2.073-1.762,2.581-4.031,2.54-6.587a2.311,2.311,0,0,1,.656-1.463c3.035-3.116,6.135-6.168,9.151-9.3.362-.375.336-1.124.49-1.7A4.815,4.815,0,0,0-447.5,90.687Z" transform="translate(1566.727 436.16)"/><text class="b" transform="translate(971 486)"><tspan x="-47.16" y="0">?</tspan></text></g></svg>