<svg xmlns="http://www.w3.org/2000/svg" width="1370.795" height="555.524" viewBox="0 0 1370.795 555.524"><defs><style>.a{opacity:0.8;}.b{fill:none;}.c{fill:#53a2f1;}.c,.d,.e,.f,.h,.i{opacity:0.7;}.d{fill:#6dc6c6;}.f{fill:#2355f8;}.g,.j{fill:#2f6061;}.h{fill:#0e6cd8;}.i{fill:#2b4e4f;}.j{opacity:0.1;}</style></defs><g class="a"><g transform="translate(0 43.015)"><path class="b" d="M713.786,503.27q-20.208,1.637-40.41,3.153H813.427V492.241C780.514,497.083,747.251,500.55,713.786,503.27Z" transform="translate(557.368 6.087)"/><path class="c" d="M1370.812,717.926V235.532c-18.331-.424-35.228-3.652-52.492,4.3-18.6,8.572-36.758,22.639-53.855,32.331-24.98,14.154-49.841,11.4-75.087,20.261-10.974,3.853-18.63,13.942-29.933,16.508-11.133,2.531-32.847-.5-43.9-2.495-40.121-7.232-71.433-37.46-112.3-38.5-11.833-.3-13.343,3.643-26.806-2.815-6.394-3.069-12.734-10.338-19.214-11.436-7.375-1.254-15.863,4.251-23.947,3-8.013-1.23-13.708-8.472-22.154-9.775-19.952-3.074-30.321,11.129-44.223,18.173-19.466,9.859-32.123,7.759-53.345,8.538-24.856.91-50.45,9.185-75.359,11.729-13.249,1.354-33.8.779-39.281,12.237-12.317.241-33.532-12.1-45.239-16.468-17.4-6.476-31.895-7.165-50.642-9.921-22.187-3.27-52.1-11.78-69.475-21.972-20.232-11.868-28.884-14.284-53.722-19.7-16.4-3.582-28.517-10.17-45.93-9.919-17.59.245-32.946,8.835-49.47,13.865-17.548,5.35-33.978,5.078-51.453,8.894-16.942,3.7-30.385,12.111-45.981,17.347-16.183,5.43-33.666,8.391-49.79,14.308-19.524,7.161-22.036,9.5-41.448,1.022-13.494-5.895-28.6-11.378-43.76-11.341-17.19.038-22.613,3.822-39.107-2.53-16.338-6.295-18.142-8.329-36.018-.312-16.209,7.273-20.471,5.319-39.112,4.193-14.659-.89-25.179,4-37.749,4.685V732.108H1230.761q20.2-1.552,40.41-3.153C1304.636,726.235,1337.9,722.768,1370.812,717.926Z" transform="translate(-0.017 -219.598)"/><path class="d" d="M264.1,295.64c10.047,16.393,26.79,14.342,40.187,24.587,13.392,8.194,20.091,24.587,31.809,34.832a72.278,72.278,0,0,0,9.6,8.07c.671-.124,1.334-.249,2.031-.367,14.79-2.594,46.341,3.31,59.147-4.213,5.012-2.941,2.385-7.719-.371-10.095,16.073-4.887,39.747-1.329,56.672.07,19,1.577,21-3.094,31.684-7.136-1.294-1.5-20.442-15.463-21.134-17.155-5.9-14.432,11.25-15.47,7.128-30.732C468.346,291.473,450.42,281.29,440,277.406c-17.4-6.476-31.895-7.165-50.642-9.921-22.187-3.27-52.1-11.78-69.475-21.972-20.232-11.868-28.884-14.284-53.722-19.7-2.374-.521-4.644-1.113-6.876-1.725-.1,10.46,3.985,24.536,4.813,32.62C264.1,275.151,250.708,273.1,264.1,295.64Z" transform="translate(213.656 -215.884)"/></g><g class="e"><g class="a"><path class="b" d="M1033.9,496.242c-224.519,7.8-446.568-13.811-670.848-18.141C241.984,475.774,121.057,469.03.017,466.228v61.727h1370.8V489.81C1259.07,497.042,1144.436,492.4,1033.9,496.242Z" transform="translate(-0.017 27.569)"/><path class="f" d="M1033.9,719.875c110.54-3.846,225.174.8,336.916-6.432V237.081c-10.111,3.361-18.479,6.342-32.225,4.845-19.113-2.073-25.428-2.148-44.3,4.025-13.341,4.368-32.518,11.215-47.453,12.835-14.141,1.539-35.439-5.906-48.328.5-4.615,2.3-5.756,9.492-10.925,12.549-4.648,2.754-23.8,6.935-29.555,7.1-18.2.528-38.9-11.679-53.945-18.945-30.63-14.787-53.939-26.163-91.242-24.856-15.743.55-26.152,6.037-40.918,6.788-18.375.939-43.254-6.156-61.124-8.219-32.713-3.778-61.576,1.614-91.9-1.731-33.415-3.688-65.95.8-97.495-10.268-14.176-4.972-26.722-12.814-42.443-13.911-16.141-1.12-36.087,4.246-51.627,7.07-18.614,3.383-24.516,10.426-40.9,3.2-5.672-2.5-10.033-7.375-16-8.879-10.384-2.616-22.346,1.632-32.982-1.713-14.538-4.571-15.534-14.059-32.653-10.705-6.092,1.194-12.451,6.5-19.294,8.179-7.894,1.934-14.449.015-22.11,3.95-7.45,3.827-8.89,8.5-17,11.729-3.774,1.508-22.959,4.48-27.228,4.3-16.263-.671-25.909-15.061-44.312-12.939-14.165,1.634-29.613,10.047-42.742,13.946-6.313,1.873-8.874,4.675-16.126,6.043-9.4,1.766-16.053-6.077-20.674,4.129a22.475,22.475,0,0,0-19.866,8.106c-9.042-5.423-12.416-17.472-25.834-16.5-13.436.98-10.1,9.61-27.632,7.066-12.4-1.8-20.425-5.662-35.475-5.65-12.029.007-24.668.89-36.023-1.667-7.183-17.19-34.923,1.437-44.442,4.58-7.519,2.482-17.711,1.627-25.746,4.487-10.188,3.626-12.478,6.463-24.1,8.247-13.865,2.122-25.951.051-37.3,5.374-7.037,3.3-11.016,11.52-18.872,12.93V689.861c121.04,2.8,241.967,9.546,363.031,11.873C587.328,706.064,809.377,727.679,1033.9,719.875Z" transform="translate(-0.017 -196.064)"/></g><g class="e" transform="translate(1038.631 42.098)"><path class="g" d="M568.268,250.593c12.524,7.668,51.406,17.13,35.835,41.792,13.107,6.189,26.5,11.848,41.057,14.469,11.058,1.994,32.772,5.026,43.9,2.495,11.3-2.566,18.96-12.656,29.933-16.508,14.321-5.023,28.521-6.317,42.68-9.075a33.983,33.983,0,0,1,7.5-12.683c-11.725-12.294-28.464-10.248-43.538-10.248,8.377-4.094,13.4-12.288,20.093-16.39-5.489-2.877-10.974-3.942-16.461-4.7-.38.161-.775.292-1.146.475-4.615,2.3-5.756,9.492-10.925,12.549-4.648,2.754-23.8,6.935-29.555,7.1-18.2.528-38.9-11.679-53.945-18.945-19.731-9.524-36.437-17.611-55.793-21.827C586.41,233.491,587.584,245.527,568.268,250.593Z" transform="translate(-568.268 -219.097)"/></g></g><g class="a" transform="translate(0 117.738)"><path class="b" d="M746.6,500.559h6.218v-1.234C750.747,499.754,748.671,500.158,746.6,500.559Z" transform="translate(617.979 -62.773)"/><path class="h" d="M620.552,319.606c-12.805,7.521-44.356,1.614-59.147,4.206-18.17,3.182-27.543,6.925-47.493.674-15.072-4.721-28.811-14.374-44.587-18.13-16.218-3.853-33.459,2.2-50.161-1.393-14.71-3.173-16.669-11.387-29.433-17.106-17.574-7.878-28.612,6.779-47.54,3.553-18.02-3.071-32.686-16.477-51.086-18.131-13.222-1.19-29.663,9.828-37.533,19.771-21.791-5.725-25.128,11.625-40.357,16.249-14.871,4.515-24.894-5.821-37.255-10.817-14.606-5.9-22.922-8.845-36.078-16.346-10.89-6.209-30.317-11.855-44.63-10.992-7.079.43-13.831,4.959-20.723,4.012-5.575-.768-6.039-6.569-11.1-8.24-10.791-3.544-33.8-7.465-45.7-6.191A48.059,48.059,0,0,0,.017,266.179V689.453H1364.594c2.073-.411,4.149-.815,6.218-1.247V386c-12.365-4.1-25.507-7.251-37.756-10.267-43.662-10.755-80.4-33.753-121.512-49.787-39.515-15.408-70.066-36.078-112.932-47.655-21.922-5.915-32.81-4.544-53.031,3.915-8.13,3.4-15.9,6.807-23.909,9.852-10.872,4.123-16.585,4.3-29.528,6.829-19.069,3.725-26.433,15.607-47.451,12.867-16.658-2.168-34.481-9.949-52-8.243-16.344,1.587-26.318,9.291-44.221,8.567-17.5-.713-29.69-8.848-45.246-14.619-19.389-7.189-26.934-8.406-45.047-2.14-14.648,5.07-29.573,1.475-44.214,5.381-15.9,4.248-15.293,10.692-37.117,8.881" transform="translate(-0.017 -260.481)"/></g><g class="a" transform="translate(0 201.867)"><path class="b" d="M.017,489.793H59.856C39.873,486.316,19.943,482.078.017,477.9Z" transform="translate(-0.017 -164.633)"/><path class="b" d="M774.232,481.428c-67.379,1.292-134.763,4.99-202.148,7.953H897.273V478.4C856.49,481.329,814.737,480.653,774.232,481.428Z" transform="translate(473.522 -164.221)"/><path class="i" d="M1370.812,620.691V343.214c-12.659-.662-28.674,1.091-39.864.7-20.146-.711-36.649,4.31-55.118,2.778-20.462-1.7-26.528-5.84-42.945-.305-13.979,4.712-24.147,11.367-38.328,14.544-16.176,3.645-29.994,8.969-45.751,12.88-19.157,4.774-25.187-.241-39.195,14.012-11.882-9.148-12.674-.813-21.566.243-12.215,1.448-18.87-2.732-29.513-4.368-13.492-2.071-52-6.649-60.773,1.636-21.24-8.66-42.923-10.643-64.615-15.856-17.868-4.3-26.735-2.129-44.141.035-21.754,2.7-34.645-2.806-53.625-8.214-29.749-8.486-62.212-1.842-93.774-3.138-28.787-1.168-47.778,5.489-73.688,8.5-24.874,2.9-43.285-9.969-63.109-17.806-15.832-6.262-27.51-4.551-46.266-4.953-19.32-.42-39.334-7.514-57.973-7.176-20.9.373-41.56,12.736-63.01,11.478-21.177-1.232-40.129-13.809-62.522-14.328-12.922-.3-22.326,4.648-33.072,5.789-5.99.634-12.789-1.049-18.7-.027a78.36,78.36,0,0,0-10.917,4.021c-17.9.623-33.106-15.457-52.7-19.621-15.4-3.275-42.437-3.782-58.92,1.453-20.473,6.494-20.135,19.2-41.41,1.426-20.467-17.117-23.785-24.361-54.725-18.29-21.548,4.226-40.251,2.683-59.448,12.52C29.411,329.2,16.264,332.222.017,334.947V619.781c19.926,4.173,39.856,8.411,59.839,11.888h985.767c67.384-2.963,134.769-6.66,202.148-7.953C1288.276,622.941,1330.029,623.618,1370.812,620.691Z" transform="translate(-0.017 -306.509)"/></g></g><path class="j" d="M435.662,316.009a78.068,78.068,0,0,1-8.806-3.769c-11.727-.175-23.887-1.106-31.555.239-18.17,3.182-27.543,6.925-47.493.674-15.072-4.721-28.811-14.374-44.587-18.13-16.218-3.853-33.459,2.2-50.161-1.393-14.71-3.173-16.669-11.387-29.433-17.106-8.578-3.846-15.607-2.314-22.75-.126a17.362,17.362,0,0,0,2.071,11.25c8.744,15.516,37.014,13.529,43.559,32.947,5.125,15.22-16.194,20.608-12.328,33.322,3.592,11.795,21.389,4.865,27.8,2.674a148.835,148.835,0,0,1,51.355-8.618c10.32.024,21.091-.965,31.328.208,10.6,1.225,10.093-.2,19.639-2.968,7.695-2.232,19.477,4.741,25.956,1.309,7.178-3.805,5.154-13.421,10.9-18.071" transform="translate(166.086 -131.411)"/></svg>