<svg xmlns="http://www.w3.org/2000/svg" xmlns:xlink="http://www.w3.org/1999/xlink" width="1406.347" height="555.524" viewBox="0 0 1406.347 555.524"><defs><linearGradient id="a" x1="0.5" y1="1" x2="0.5" gradientUnits="objectBoundingBox"><stop offset="0" stop-color="#002c33"/><stop offset="0.27" stop-color="#043037"/><stop offset="0.564" stop-color="#0f3d44"/><stop offset="0.869" stop-color="#23525a"/><stop offset="1" stop-color="#2e5e66"/></linearGradient><linearGradient id="b" x1="0.5" y1="1" x2="0.5" gradientUnits="objectBoundingBox"><stop offset="0" stop-color="#000506"/><stop offset="0.287" stop-color="#041d21"/><stop offset="0.769" stop-color="#0a353d"/><stop offset="1" stop-color="#052a30"/></linearGradient></defs><g transform="translate(17.699 -799.848)"><g transform="translate(0.077 799.848)"><g opacity="0.8"><g transform="translate(0 43.015)"><path d="M713.786,503.27q-20.208,1.637-40.41,3.153H813.427V492.241C780.514,497.083,747.251,500.55,713.786,503.27Z" transform="translate(557.368 6.087)" fill="none"/><path d="M1370.812,717.926V235.532c-18.331-.424-35.228-3.652-52.492,4.3-18.6,8.572-36.758,22.639-53.855,32.331-24.98,14.154-49.841,11.4-75.087,20.261-10.974,3.853-18.63,13.942-29.933,16.508-11.133,2.531-32.847-.5-43.9-2.495-40.121-7.232-71.433-37.46-112.3-38.5-11.833-.3-13.343,3.643-26.806-2.815-6.394-3.069-12.734-10.338-19.214-11.436-7.375-1.254-15.863,4.251-23.947,3-8.013-1.23-13.708-8.472-22.154-9.775-19.952-3.074-30.321,11.129-44.223,18.173-19.466,9.859-32.123,7.759-53.345,8.538-24.856.91-50.45,9.185-75.359,11.729-13.249,1.354-33.8.779-39.281,12.237-12.317.241-33.532-12.1-45.239-16.468-17.4-6.476-31.895-7.165-50.642-9.921-22.187-3.27-52.1-11.78-69.475-21.972-20.232-11.868-28.884-14.284-53.722-19.7-16.4-3.582-28.517-10.17-45.93-9.919-17.59.245-32.946,8.835-49.47,13.865-17.548,5.35-33.978,5.078-51.453,8.894-16.942,3.7-30.385,12.111-45.981,17.347-16.183,5.43-33.666,8.391-49.79,14.308-19.524,7.161-22.036,9.5-41.448,1.022-13.494-5.895-28.6-11.378-43.76-11.341-17.19.038-22.613,3.822-39.107-2.53-16.338-6.295-18.142-8.329-36.018-.312-16.209,7.273-20.471,5.319-39.112,4.193-14.659-.89-25.179,4-37.749,4.685V732.108H1230.761q20.2-1.552,40.41-3.153C1304.636,726.235,1337.9,722.768,1370.812,717.926Z" transform="translate(-0.017 -219.598)" fill="#53a2f1" opacity="0.7"/><path d="M264.1,295.64c10.047,16.393,26.79,14.342,40.187,24.587,13.392,8.194,20.091,24.587,31.809,34.832a72.278,72.278,0,0,0,9.6,8.07c.671-.124,1.334-.249,2.031-.367,14.79-2.594,46.341,3.31,59.147-4.213,5.012-2.941,2.385-7.719-.371-10.095,16.073-4.887,39.747-1.329,56.672.07,19,1.577,21-3.094,31.684-7.136-1.294-1.5-20.442-15.463-21.134-17.155-5.9-14.432,11.25-15.47,7.128-30.732C468.346,291.473,450.42,281.29,440,277.406c-17.4-6.476-31.895-7.165-50.642-9.921-22.187-3.27-52.1-11.78-69.475-21.972-20.232-11.868-28.884-14.284-53.722-19.7-2.374-.521-4.644-1.113-6.876-1.725-.1,10.46,3.985,24.536,4.813,32.62C264.1,275.151,250.708,273.1,264.1,295.64Z" transform="translate(213.656 -215.884)" fill="#6dc6c6" opacity="0.7"/></g><g opacity="0.7"><g opacity="0.8"><path d="M1033.9,496.242c-224.519,7.8-446.568-13.811-670.848-18.141C241.984,475.774,121.057,469.03.017,466.228v61.727h1370.8V489.81C1259.07,497.042,1144.436,492.4,1033.9,496.242Z" transform="translate(-0.017 27.569)" fill="none"/><path d="M1033.9,719.875c110.54-3.846,225.174.8,336.916-6.432V237.081c-10.111,3.361-18.479,6.342-32.225,4.845-19.113-2.073-25.428-2.148-44.3,4.025-13.341,4.368-32.518,11.215-47.453,12.835-14.141,1.539-35.439-5.906-48.328.5-4.615,2.3-5.756,9.492-10.925,12.549-4.648,2.754-23.8,6.935-29.555,7.1-18.2.528-38.9-11.679-53.945-18.945-30.63-14.787-53.939-26.163-91.242-24.856-15.743.55-26.152,6.037-40.918,6.788-18.375.939-43.254-6.156-61.124-8.219-32.713-3.778-61.576,1.614-91.9-1.731-33.415-3.688-65.95.8-97.495-10.268-14.176-4.972-26.722-12.814-42.443-13.911-16.141-1.12-36.087,4.246-51.627,7.07-18.614,3.383-24.516,10.426-40.9,3.2-5.672-2.5-10.033-7.375-16-8.879-10.384-2.616-22.346,1.632-32.982-1.713-14.538-4.571-15.534-14.059-32.653-10.705-6.092,1.194-12.451,6.5-19.294,8.179-7.894,1.934-14.449.015-22.11,3.95-7.45,3.827-8.89,8.5-17,11.729-3.774,1.508-22.959,4.48-27.228,4.3-16.263-.671-25.909-15.061-44.312-12.939-14.165,1.634-29.613,10.047-42.742,13.946-6.313,1.873-8.874,4.675-16.126,6.043-9.4,1.766-16.053-6.077-20.674,4.129a22.475,22.475,0,0,0-19.866,8.106c-9.042-5.423-12.416-17.472-25.834-16.5-13.436.98-10.1,9.61-27.632,7.066-12.4-1.8-20.425-5.662-35.475-5.65-12.029.007-24.668.89-36.023-1.667-7.183-17.19-34.923,1.437-44.442,4.58-7.519,2.482-17.711,1.627-25.746,4.487-10.188,3.626-12.478,6.463-24.1,8.247-13.865,2.122-25.951.051-37.3,5.374-7.037,3.3-11.016,11.52-18.872,12.93V689.861c121.04,2.8,241.967,9.546,363.031,11.873C587.328,706.064,809.377,727.679,1033.9,719.875Z" transform="translate(-0.017 -196.064)" fill="#2355f8" opacity="0.7"/></g><g transform="translate(1038.631 42.098)" opacity="0.7"><path d="M568.268,250.593c12.524,7.668,51.406,17.13,35.835,41.792,13.107,6.189,26.5,11.848,41.057,14.469,11.058,1.994,32.772,5.026,43.9,2.495,11.3-2.566,18.96-12.656,29.933-16.508,14.321-5.023,28.521-6.317,42.68-9.075a33.983,33.983,0,0,1,7.5-12.683c-11.725-12.294-28.464-10.248-43.538-10.248,8.377-4.094,13.4-12.288,20.093-16.39-5.489-2.877-10.974-3.942-16.461-4.7-.38.161-.775.292-1.146.475-4.615,2.3-5.756,9.492-10.925,12.549-4.648,2.754-23.8,6.935-29.555,7.1-18.2.528-38.9-11.679-53.945-18.945-19.731-9.524-36.437-17.611-55.793-21.827C586.41,233.491,587.584,245.527,568.268,250.593Z" transform="translate(-568.268 -219.097)" fill="#2f6061"/></g></g><g transform="translate(0 117.738)" opacity="0.8"><path d="M746.6,500.559h6.218v-1.234C750.747,499.754,748.671,500.158,746.6,500.559Z" transform="translate(617.979 -62.773)" fill="none"/><path d="M620.552,319.606c-12.805,7.521-44.356,1.614-59.147,4.206-18.17,3.182-27.543,6.925-47.493.674-15.072-4.721-28.811-14.374-44.587-18.13-16.218-3.853-33.459,2.2-50.161-1.393-14.71-3.173-16.669-11.387-29.433-17.106-17.574-7.878-28.612,6.779-47.54,3.553-18.02-3.071-32.686-16.477-51.086-18.131-13.222-1.19-29.663,9.828-37.533,19.771-21.791-5.725-25.128,11.625-40.357,16.249-14.871,4.515-24.894-5.821-37.255-10.817-14.606-5.9-22.922-8.845-36.078-16.346-10.89-6.209-30.317-11.855-44.63-10.992-7.079.43-13.831,4.959-20.723,4.012-5.575-.768-6.039-6.569-11.1-8.24-10.791-3.544-33.8-7.465-45.7-6.191A48.059,48.059,0,0,0,.017,266.179V689.453H1364.594c2.073-.411,4.149-.815,6.218-1.247V386c-12.365-4.1-25.507-7.251-37.756-10.267-43.662-10.755-80.4-33.753-121.512-49.787-39.515-15.408-70.066-36.078-112.932-47.655-21.922-5.915-32.81-4.544-53.031,3.915-8.13,3.4-15.9,6.807-23.909,9.852-10.872,4.123-16.585,4.3-29.528,6.829-19.069,3.725-26.433,15.607-47.451,12.867-16.658-2.168-34.481-9.949-52-8.243-16.344,1.587-26.318,9.291-44.221,8.567-17.5-.713-29.69-8.848-45.246-14.619-19.389-7.189-26.934-8.406-45.047-2.14-14.648,5.07-29.573,1.475-44.214,5.381-15.9,4.248-15.293,10.692-37.117,8.881" transform="translate(-0.017 -260.481)" fill="#0e6cd8" opacity="0.7"/></g><g transform="translate(0 201.867)" opacity="0.8"><path d="M.017,489.793H59.856C39.873,486.316,19.943,482.078.017,477.9Z" transform="translate(-0.017 -164.633)" fill="none"/><path d="M774.232,481.428c-67.379,1.292-134.763,4.99-202.148,7.953H897.273V478.4C856.49,481.329,814.737,480.653,774.232,481.428Z" transform="translate(473.522 -164.221)" fill="none"/><path d="M1370.812,620.691V343.214c-12.659-.662-28.674,1.091-39.864.7-20.146-.711-36.649,4.31-55.118,2.778-20.462-1.7-26.528-5.84-42.945-.305-13.979,4.712-24.147,11.367-38.328,14.544-16.176,3.645-29.994,8.969-45.751,12.88-19.157,4.774-25.187-.241-39.195,14.012-11.882-9.148-12.674-.813-21.566.243-12.215,1.448-18.87-2.732-29.513-4.368-13.492-2.071-52-6.649-60.773,1.636-21.24-8.66-42.923-10.643-64.615-15.856-17.868-4.3-26.735-2.129-44.141.035-21.754,2.7-34.645-2.806-53.625-8.214-29.749-8.486-62.212-1.842-93.774-3.138-28.787-1.168-47.778,5.489-73.688,8.5-24.874,2.9-43.285-9.969-63.109-17.806-15.832-6.262-27.51-4.551-46.266-4.953-19.32-.42-39.334-7.514-57.973-7.176-20.9.373-41.56,12.736-63.01,11.478-21.177-1.232-40.129-13.809-62.522-14.328-12.922-.3-22.326,4.648-33.072,5.789-5.99.634-12.789-1.049-18.7-.027a78.36,78.36,0,0,0-10.917,4.021c-17.9.623-33.106-15.457-52.7-19.621-15.4-3.275-42.437-3.782-58.92,1.453-20.473,6.494-20.135,19.2-41.41,1.426-20.467-17.117-23.785-24.361-54.725-18.29-21.548,4.226-40.251,2.683-59.448,12.52C29.411,329.2,16.264,332.222.017,334.947V619.781c19.926,4.173,39.856,8.411,59.839,11.888h985.767c67.384-2.963,134.769-6.66,202.148-7.953C1288.276,622.941,1330.029,623.618,1370.812,620.691Z" transform="translate(-0.017 -306.509)" fill="#2b4e4f" opacity="0.7"/></g></g><path d="M435.662,316.009a78.068,78.068,0,0,1-8.806-3.769c-11.727-.175-23.887-1.106-31.555.239-18.17,3.182-27.543,6.925-47.493.674-15.072-4.721-28.811-14.374-44.587-18.13-16.218-3.853-33.459,2.2-50.161-1.393-14.71-3.173-16.669-11.387-29.433-17.106-8.578-3.846-15.607-2.314-22.75-.126a17.362,17.362,0,0,0,2.071,11.25c8.744,15.516,37.014,13.529,43.559,32.947,5.125,15.22-16.194,20.608-12.328,33.322,3.592,11.795,21.389,4.865,27.8,2.674a148.835,148.835,0,0,1,51.355-8.618c10.32.024,21.091-.965,31.328.208,10.6,1.225,10.093-.2,19.639-2.968,7.695-2.232,19.477,4.741,25.956,1.309,7.178-3.805,5.154-13.421,10.9-18.071" transform="translate(166.086 -131.411)" fill="#2f6061" opacity="0.1"/></g><g transform="translate(0.073 1063.406)"><rect width="1370.8" height="271.27" transform="translate(0 20.696)" fill="#002c33"/><path d="M791.466,351.584H579.361S.015,393.656.015,403.745V596.459h1370.8V403.745C1370.814,393.656,791.466,351.584,791.466,351.584Z" transform="translate(-0.014 -330.888)" fill="url(#a)"/><path d="M791.466,352.429H579.361S.015,409.32.015,419.413v192.7h1370.8v-192.7C1370.814,409.32,791.466,352.429,791.466,352.429Z" transform="translate(-0.014 -330.189)" fill="#d1d1d1"/><path d="M791.466,352.279H579.361S.015,419.486.015,429.577v192.7h1370.8v-192.7C1370.814,419.486,791.466,352.279,791.466,352.279Z" transform="translate(-0.014 -330.313)" fill="url(#b)"/><g transform="translate(5.228)"><path d="M4.095,372.963s-.122-1.384-.305-3.458c-.042-.521-.1-1.082-.144-1.676a18.429,18.429,0,0,1-.053-1.976c.007-1.369.016-2.831.026-4.292.146-1.437.349-2.857.521-4.171a21.465,21.465,0,0,1,.706-3.573c.525-2.054.874-3.423.874-3.423s.508,1.342,1.268,3.354A22.413,22.413,0,0,0,8.454,357.1c.621,1.21,1.256,2.489,1.934,3.741.786,1.2,1.574,2.405,2.307,3.533.386.561.665,1.064,1.109,1.608.406.53.791,1.029,1.148,1.493l2.371,3.085Z" transform="translate(-2.281 -331.873)" fill="#002c33"/><path d="M2.875,382.013l2.5-5.774c.74-1.734,1.6-3.762,2.528-5.929s2.023-4.527,3.1-6.85c1.221-2.323,2.314-4.643,3.679-6.763.669-1.06,1.212-2.1,1.906-3.045s1.329-1.839,1.923-2.663a45.389,45.389,0,0,1,3.188-3.846l1.25-1.426s-.261.576-.711,1.588a33.772,33.772,0,0,0-1.714,4.171c-.278.872-.583,1.813-.9,2.811s-.488,2.073-.751,3.164c-.557,2.175-.793,4.559-1.144,6.9-.216,2.378-.462,4.727-.574,6.975-.135,2.254-.258,4.357-.364,6.163-.232,3.61-.387,6.019-.387,6.019Z" transform="translate(-2.875 -335.745)" fill="#002c33"/><path d="M12.847,376.941s.7-2.318,1.74-5.794c1.013-3.434,2.33-8.148,3.93-12.831.439-1.17.879-2.338,1.312-3.489a36.064,36.064,0,0,1,1.429-3.348c.519-1.075.938-2.122,1.479-3.091s1.077-1.875,1.557-2.718a37.148,37.148,0,0,1,2.652-3.943c.669-.934,1.055-1.466,1.055-1.466s-.183.579-.5,1.6a28.881,28.881,0,0,0-1.141,4.184c-.161.868-.334,1.808-.519,2.8s-.2,2.058-.314,3.144a30.854,30.854,0,0,0-.177,3.358c-.005,1.142-.015,2.3-.022,3.465.128,4.668.53,9.334.791,12.93.236,3.553.391,5.922.391,5.922Z" transform="translate(5.38 -340.261)" fill="#002c33"/><path d="M21.079,374.091l2.234-4.513c.331-.676.7-1.409,1.078-2.186a17.221,17.221,0,0,0,.9-2.352c.578-1.645,1.2-3.4,1.813-5.16.4-1.842.8-3.685,1.168-5.414a24.957,24.957,0,0,0,.479-2.52c.086-.808.166-1.57.245-2.276.3-2.839.5-4.732.5-4.732s.654,1.852,1.638,4.632c.247.7.51,1.46.8,2.263.309.8.439,1.665.68,2.553.428,1.8.888,3.712,1.347,5.628.21,1.99.424,3.983.623,5.853a19.225,19.225,0,0,1,.186,2.7c-.02.817-.038,1.588-.058,2.3-.069,2.853-.117,4.754-.117,4.754Z" transform="translate(12.194 -336.39)" fill="#002c33"/><path d="M32.079,365.888,34.45,362.8c.355-.464.74-.963,1.148-1.5.444-.543.722-1.046,1.106-1.607.737-1.128,1.523-2.329,2.31-3.531.674-1.254,1.312-2.533,1.934-3.743a22.226,22.226,0,0,0,1.466-3.356c.76-2.012,1.27-3.354,1.27-3.354s.347,1.369.872,3.423a21.308,21.308,0,0,1,.707,3.573c.17,1.316.375,2.734.519,4.171.011,1.46.02,2.923.027,4.292-.013.684.022,1.4-.053,1.976-.055.594-.1,1.157-.148,1.676-.181,2.076-.3,3.458-.3,3.458Z" transform="translate(21.299 -335.745)" fill="#002c33"/><path d="M38.316,376.3s.424-1.961,1.06-4.906c.663-2.959,1.4-6.827,2.175-10.74.342-1.95.616-3.9.908-5.739.324-1.842.5-3.559.607-5.032l.439-4.94s.68,1.93,1.7,4.827c.53,1.455,1.108,3.162,1.588,5,.51,1.831,1.1,3.8,1.612,5.77.945,3.93,1.917,7.907,2.539,10.831.649,2.941,1.082,4.9,1.082,4.9Z" transform="translate(26.462 -336.39)" fill="#002c33"/><path d="M52.642,374.078s.144-.433.4-1.188c.126-.377.28-.835.455-1.362a10.922,10.922,0,0,0,.488-1.658c.122-.556.252-1.157.391-1.795a10.314,10.314,0,0,0,.247-2.148,17.366,17.366,0,0,0,.082-2.387c-.051-.826-.1-1.667-.148-2.508a45.891,45.891,0,0,0-.886-5.012c-.349-1.614-.79-3.124-1.17-4.419-.8-2.6-1.332-4.326-1.332-4.326s1.332,1.532,3.338,3.827c.989,1.159,2.146,2.513,3.286,4.017,1.212,1.48,2.294,3.149,3.423,4.829.5.868.994,1.735,1.482,2.588a23.551,23.551,0,0,1,1.221,2.6,15.131,15.131,0,0,1,.969,2.542c.236.861.455,1.674.658,2.429a14.321,14.321,0,0,1,.375,1.908c.086.536.155,1,.216,1.387l.192,1.21Z" transform="translate(37.101 -334.454)" fill="#002c33"/><path d="M55.608,371.63l6.854-22.8,6.854,22.8Z" transform="translate(40.776 -333.164)" fill="#002c33"/><path d="M57.447,379.33s2.954-8.821,6.129-17.676c.857-2.2,1.711-4.409,2.515-6.472.757-2.063,1.634-3.973,2.38-5.606,1.471-3.25,2.451-5.418,2.451-5.418s-.135,2.261-.336,5.648c-.108,1.687-.241,3.646-.2,5.765,0,2.109,0,4.356,0,6.6.252,8.991.707,18.047.707,18.046Z" transform="translate(42.298 -337.035)" fill="#002c33"/><path d="M66.532,379.615l4.434-17.757c.285-1.111.7-2.228,1.04-3.321.358-1.093.707-2.168,1.049-3.21.676-2.074,1.307-4.01,1.848-5.668,1.086-3.3,1.806-5.5,1.806-5.5s.133,2.245.331,5.613c.1,1.674.218,3.628.344,5.719.062,1.044.128,2.122.2,3.215s.093,2.2.238,3.315c1.208,8.958,2.413,17.914,2.413,17.914Z" transform="translate(49.818 -337.035)" fill="#002c33"/><path d="M72.022,372.316s.746-1.577,1.861-3.941c1.082-2.347,2.707-5.566,4.27-8.715.863-1.57,1.724-3.14,2.533-4.611.417-.729.755-1.442,1.2-2.1.419-.662.81-1.287,1.173-1.864,1.448-2.285,2.411-3.809,2.411-3.809s-.128,1.65-.322,4.122c-.044.614-.1,1.278-.15,1.979-.077.7-.031,1.451-.049,2.219-.009,1.532-.02,3.166-.027,4.8.139,3.29.243,6.505.43,9,.155,2.477.258,4.129.258,4.129Z" transform="translate(54.363 -334.454)" fill="#002c33"/><path d="M49,373.036s.128-1.868.322-4.668c.048-.7.1-1.46.155-2.263.075-.812.037-1.612.062-2.473.018-1.72.038-3.553.058-5.386.035-1.888.069-3.774.1-5.542.037-.885-.015-1.724.1-2.542.086-.813.166-1.579.241-2.288.3-2.8.506-4.67.506-4.67s.649,1.817,1.627,4.546c.241.673.506,1.4.784,2.173.252.769.689,1.577,1.047,2.413.755,1.665,1.565,3.44,2.372,5.216.841,1.822,1.682,3.646,2.471,5.354.378.855.813,1.7,1.1,2.475.314.779.6,1.512.877,2.19,1.088,2.714,1.809,4.522,1.809,4.522Z" transform="translate(35.304 -337.826)" fill="#002c33"/><path d="M83.68,376.055s-.444-1.828-1.115-4.569c-.32-1.406-.716-3.032-1.011-4.814-.373-1.753-.541-3.692-.746-5.58-.02-.956-.04-1.916-.062-2.857a20.928,20.928,0,0,1,.166-2.753,16.394,16.394,0,0,1,.344-2.544c.179-.8.347-1.554.506-2.252a28.6,28.6,0,0,1,1.113-3.29l.457-1.226s.048.461.13,1.265a25.471,25.471,0,0,0,.442,3.285c.163.667.342,1.391.53,2.157a15.814,15.814,0,0,0,.8,2.358,21.377,21.377,0,0,0,1.035,2.471l1.263,2.5c1.013,1.656,1.948,3.285,3.052,4.8,1.018,1.513,2.095,2.917,2.994,4.118L96.7,373.2Z" transform="translate(61.573 -335.37)" fill="#002c33"/><path d="M87.93,376.552s1.289-8.278,2.579-16.556c1.082-8.271,2.162-16.545,2.162-16.545s2.343,8.209,4.688,16.417l4.273,16.428Z" transform="translate(67.531 -337.62)" fill="#002c33"/><path d="M92.57,369.648s.61-1.091,1.53-2.731l.742-1.323a14.116,14.116,0,0,0,.62-1.365c.411-.963.846-1.992,1.285-3.021.676-2.237,1.4-4.5,1.842-6.238.475-1.72.791-2.868.791-2.868s.541,1.111,1.349,2.778c.83,1.652,1.828,3.91,2.868,6.2.411,1.234.821,2.469,1.21,3.626.17.578.406,1.206.5,1.693s.2.967.289,1.4l.6,2.9Z" transform="translate(71.372 -330.46)" fill="#002c33"/><path d="M97,368.014l.9-.742,1.035-.848a7.1,7.1,0,0,0,.927-.874c.305-.291.632-.607.98-.941.336-.439.665-.967,1.029-1.491a10.217,10.217,0,0,0,1.018-1.709q.469-.918.943-1.855c.53-1.29,1.115-2.586,1.543-3.847.448-1.259.866-2.436,1.225-3.445.74-2.023,1.237-3.372,1.237-3.372s.36,1.362.9,3.405c.283,1.027.616,2.223.969,3.5.375,1.285.643,2.7.954,4.114.1.726.2,1.453.3,2.168a10.894,10.894,0,0,1,.126,2.166c-.011.722.007,1.407-.042,2.1-.155.762-.331,1.5-.519,2.191a11.886,11.886,0,0,1-.55,1.711c-.168.408-.313.762-.435,1.056-.238.587-.375.919-.375.919Z" transform="translate(75.043 -333.12)" fill="#002c33"/><path d="M101.855,374.886s.256-.472.7-1.3c.221-.411.49-.914.8-1.488a12.744,12.744,0,0,0,.839-1.8c.269-.638.561-1.329.868-2.058.291-.76.5-1.636.78-2.508.59-1.753.9-3.7,1.336-5.641.3-1.959.653-3.926.844-5.792.208-1.87.4-3.613.563-5.109.305-3,.508-5,.508-5s.652,1.959,1.629,4.895c.477,1.475,1.033,3.195,1.632,5.039s1.119,3.846,1.676,5.854c.419,2.029.974,4.054,1.173,6.017.119.985.289,1.912.349,2.849.018.963.035,1.875.051,2.716a15.736,15.736,0,0,1-.064,2.217c-.053.61-.1,1.142-.139,1.579-.079.877-.122,1.376-.122,1.376Z" transform="translate(79.058 -337.007)" fill="#002c33"/><path d="M109.7,368.423l.536-.069.124-.016c-.175.038-.347.084-.517.139a5.065,5.065,0,0,0-.961.415,3.732,3.732,0,0,0-.727.532,1.6,1.6,0,0,0-.192.194,1.235,1.235,0,0,0-.21.38c-.031.068.013.256.082.159a.367.367,0,0,0,.225-.212,3.008,3.008,0,0,0,.411-.927,10.262,10.262,0,0,0,.272-1.2c.283-1.736.311-3.619.461-5.7l-.02-.26a10.826,10.826,0,0,0,.338-1.8l.219-1.978.3-4c.071-1.338.119-2.678.122-4.016,0-.669-.015-1.338-.062-2-.022-.334-.06-.665-.113-.992a2.929,2.929,0,0,0-.133-.481c-.049-.159-.2-.305-.364-.09a.238.238,0,0,1,.272-.179.689.689,0,0,1,.314.2,4.218,4.218,0,0,1,.387.457c.219.311.428.629.61.945.378.636.722,1.279,1.056,1.923.662,1.29,1.278,2.588,1.868,3.891l1.7,3.933.786,2a15.172,15.172,0,0,1,.685,2.188l-.016-.256c.744,1.714,1.687,3.6,2.405,5.67a16.1,16.1,0,0,1,.47,1.654,8.057,8.057,0,0,1,.232,1.93,4.826,4.826,0,0,1-.119,1.2,5.266,5.266,0,0,1-.557,1.521,5.875,5.875,0,0,1-.749,1l-.475.5a8.01,8.01,0,0,1-1.128.77,10.426,10.426,0,0,1-1.365.651l-.846.3-.47.181Z" transform="translate(83.934 -335.248)" fill="#002c33"/><path d="M108.426,376.265s.616-1.753,1.539-4.385c.23-.656.481-1.371.748-2.124.289-.762.43-1.506.669-2.316.439-1.614.9-3.336,1.373-5.057.855-3.561,1.638-7.116,2.387-9.8.7-2.663,1.173-4.438,1.173-4.438s.386,1.782.969,4.458c.536,2.656,1.466,6.22,2.325,9.779.386,1.837.769,3.674,1.13,5.4.161.859.395,1.731.475,2.493.1.771.2,1.5.285,2.175.358,2.694.6,4.491.6,4.491Z" transform="translate(84.497 -333.733)" fill="#002c33"/><path d="M114.207,374.683s.738-1.855,1.846-4.635c.278-.7.578-1.449.894-2.246.333-.8.565-1.61.87-2.469.583-1.724,1.2-3.557,1.826-5.392,1.225-3.763,2.351-7.519,3.405-10.336,1-2.8,1.663-4.67,1.663-4.67s.19,1.914.473,4.787c.23,2.849.812,6.68,1.3,10.5.225,1.95.446,3.9.658,5.732.091.912.232,1.824.269,2.643s.091,1.6.135,2.323l.283,4.8Z" transform="translate(89.282 -336.393)" fill="#002c33"/><path d="M117.15,373.519s1-1.815,2.5-4.538c.377-.682.78-1.418,1.212-2.2.461-.788.755-1.572,1.164-2.413.779-1.683,1.612-3.482,2.442-5.279l6.247-14.9s.276,7.746.546,15.488c-.007,1.99-.018,3.981-.026,5.845-.027.928.024,1.879-.071,2.694-.068.832-.135,1.616-.194,2.341-.245,2.9-.406,4.833-.406,4.833Z" transform="translate(91.718 -337.007)" fill="#002c33"/><path d="M123.569,372.913s1.011-1.3,2.531-3.257c.382-.488.793-1.016,1.23-1.576.455-.565.746-1.1,1.153-1.7.782-1.2,1.616-2.471,2.447-3.745,1.435-2.7,3-5.428,3.908-7.53.982-2.1,1.634-3.5,1.634-3.5s.2,1.464.5,3.657c.373,2.2.493,5.152.715,8.156-.042,1.544-.086,3.089-.128,4.535-.04.718-.024,1.481-.121,2.1-.08.629-.159,1.223-.23,1.771-.287,2.193-.479,3.656-.479,3.656Z" transform="translate(97.032 -330.871)" fill="#002c33"/><path d="M128.785,374.109l.868-1.184c.274-.377.61-.834,1-1.358.188-.263.4-.543.61-.837.163-.265.333-.545.51-.835.358-.589.748-1.223,1.157-1.9.439-.66.77-1.513,1.186-2.314.843-1.625,1.561-3.462,2.338-5.28,1.48-3.685,2.921-7.446,4.3-10.206.594-1.385,1.365-2.506,1.775-3.292.448-.784.7-1.23.7-1.23s-.048.479-.132,1.318a30.913,30.913,0,0,0-.236,3.442c-.1,2.846.181,6.633.4,10.484.064,1.943.194,3.88.106,5.756a26.025,26.025,0,0,1-.128,2.734c-.119.918-.236,1.786-.342,2.586-.058.4-.115.788-.172,1.153q-.112.485-.214.919c-.135.576-.254,1.08-.349,1.5-.2.828-.305,1.3-.305,1.3Z" transform="translate(101.349 -335.779)" fill="#002c33"/><path d="M137.007,366.961l5.182-9.642c2.389-4.833,4.783-9.667,4.783-9.667s1.007,5.118,2.018,10.234c.81,5.1,1.618,10.206,1.618,10.206Z" transform="translate(108.155 -334.143)" fill="#002c33"/><path d="M142.564,377.012l2.336-4.237,1.873-4.017c1.162-2.837,2.292-5.734,3.374-8.667l1.711-4.412,1.9-4.4L156,346.931c.885-1.417,1.822-2.815,2.722-4.2l1.55-2.385-.462,2.511c-.1.53-.166,1.055-.212,1.583a4.671,4.671,0,0,0,.175,1.579,5.543,5.543,0,0,1-.735-1.55c-.143-.536-.26-1.077-.347-1.612l1.086.124-1.17,4.4-.656,4.425-.318,4.451-.137,4.48c-.04,3.008-.137,6.039-.294,9.122l-.512,4.82-.8,4.493Z" transform="translate(112.755 -340.19)" fill="#002c33"/><path d="M149.146,363.348s.678-1.022,1.691-2.555c.512-.768,1.1-1.662,1.736-2.621s1.338-1.987,1.963-3c2.27-4.131,4.537-8.262,4.537-8.262s1.119,4.487,2.234,8.976c.214,1.13.347,2.232.517,3.279s.307,2.02.433,2.855l.42,2.784Z" transform="translate(118.204 -334.756)" fill="#002c33"/><path d="M152.611,364.3s2.555-3.4,5.109-6.8c2.146-3.442,4.288-6.882,4.288-6.882s1.263,3.7,2.473,7.64c.823,3.791,1.647,7.58,1.647,7.58Z" transform="translate(121.072 -331.688)" fill="#002c33"/><path d="M157.518,363.662l10.976-17.74,2.529,19.3Z" transform="translate(125.134 -335.575)" fill="#002c33"/><path d="M163.453,361.829s1.031-1.086,2.575-2.716c.386-.406.806-.848,1.248-1.316.413-.457.744-.908,1.152-1.4.779-.978,1.649-2.021,2.495-3.131,1.6-2.3,3.221-4.617,4.4-6.39s1.972-2.934,1.972-2.934.053,1.287.128,3.217c.091,1.921.135,4.505.186,7.119-.037,1.327-.155,2.707-.245,4.006-.059.645-.09,1.305-.17,1.874-.1.55-.188,1.069-.271,1.55-.334,1.917-.556,3.2-.556,3.2Z" transform="translate(130.046 -337.212)" fill="#002c33"/><path d="M172.064,362.92l2.073-2.065c.311-.311.649-.645,1.005-1,.338-.345.583-.663.907-1.025.631-.738,1.3-1.528,1.97-2.318,1.323-1.786,2.643-3.571,3.634-4.911,1.02-1.331,1.7-2.217,1.7-2.217l.411,2.473c.278,1.482.643,3.458,1.014,5.434.133,1.042.23,2.138.314,3.177.037.51.1,1.053.1,1.493s-.009.833-.015,1.208c-.015,1.5-.027,2.491-.027,2.491Z" transform="translate(137.174 -332.711)" fill="#002c33"/><path d="M178.87,363.558l9.392-10.963,4.112,12.527Z" transform="translate(142.808 -330.052)" fill="#002c33"/><path d="M188.671,361.525s.616-.775,1.543-1.937c.23-.292.481-.607.748-.941a8.118,8.118,0,0,0,.634-.9c.406-.636.843-1.314,1.279-1.99.324-.749.565-1.548.833-2.312a7.154,7.154,0,0,0,.461-2.131c.13-1.307.219-2.177.219-2.177s.74.731,1.855,1.828a11.714,11.714,0,0,1,1.749,2.025c.547.78,1.183,1.627,1.725,2.53.422.936.835,1.923,1.194,2.886a11.7,11.7,0,0,1,.45,1.334c.1.371.192.722.28,1.047.342,1.3.572,2.16.572,2.16Z" transform="translate(150.921 -332.915)" fill="#002c33"/><path d="M197.28,366.121l.982-3.582c.309-1.086.649-2.332.883-3.593.263-1.3.548-2.694.832-4.083.117-1.407.236-2.818.347-4.138a10.432,10.432,0,0,0,.08-1.93c-.053-.609-.1-1.184-.146-1.716-.2-2.175-.336-3.626-.336-3.626s.965,1.311,2.411,3.277c.367.5.762,1.049,1.183,1.629a13.707,13.707,0,0,1,1.082,1.868c.7,1.329,1.448,2.743,2.2,4.162.607,1.442,1.164,2.9,1.714,4.288.578,1.409.985,2.661,1.32,3.72.695,2.133,1.161,3.557,1.161,3.557Z" transform="translate(158.047 -337.62)" fill="#002c33"/><path d="M202.81,362.208s.053-.227.15-.621c.1-.376.2-1.151.428-1.855a26.072,26.072,0,0,1,2.117-5.31,13.712,13.712,0,0,1,4.038-4.851,9.744,9.744,0,0,1,1.2-.676c.426-.154.76-.28,1.055-.355l.95-.146s-.217.166-.6.462a2.7,2.7,0,0,0-.718,1.393,7.917,7.917,0,0,0,.921,4.431,24.8,24.8,0,0,0,2.544,4.259c.413.6.753.9,1.024,1.278.276.356.431.561.431.561Z" transform="translate(162.625 -333.529)" fill="#002c33"/><path d="M207.094,363.486s.09-.314.241-.866c.155-.517.38-1.5.722-2.48a32.361,32.361,0,0,1,3.367-7.242,20.457,20.457,0,0,1,2.9-3.626,14.59,14.59,0,0,1,1.815-1.5,13.5,13.5,0,0,1,1.941-1.135,13.11,13.11,0,0,1,1.923-.656,10.619,10.619,0,0,1,1.559-.26l1.34-.044-1.141.413a7.136,7.136,0,0,0-1.088.6,7.358,7.358,0,0,0-1.055.936,6.191,6.191,0,0,0-.788,1.272,6.879,6.879,0,0,0-.51,1.493,11.8,11.8,0,0,0-.179,3.4,24.913,24.913,0,0,0,1.477,6.412c.305.894.6,1.471.819,2.043.221.541.349.85.349.85Z" transform="translate(166.171 -335.779)" fill="#002c33"/><path d="M212.076,364.193l.6-.949c.194-.3.428-.669.695-1.088.133-.212.276-.435.426-.671s.437-.585.669-.888c.5-.616,1.038-1.285,1.612-1.99a19.069,19.069,0,0,1,1.9-1.87c1.305-1.27,2.795-2.4,4.24-3.6,1.417-1.131,2.89-2.265,4.094-3.337a22.7,22.7,0,0,0,1.753-1.576c.508-.526.989-1.02,1.431-1.477a18.084,18.084,0,0,0,1.815-2.363c.42-.6.658-.938.658-.938s-.029.371-.082,1.024a14.032,14.032,0,0,1-.373,2.756c-.163.568-.342,1.184-.53,1.835a15.232,15.232,0,0,1-.782,2.018c-.567,1.42-1.3,2.837-2,4.284a39.367,39.367,0,0,0-1.767,4.056,8.494,8.494,0,0,0-.556,1.751c-.075.479-.146.934-.214,1.354a5.087,5.087,0,0,0-.1.607c-.007.256-.013.5-.018.727-.015.455-.024.854-.031,1.181-.016.654-.027,1.029-.027,1.029Z" transform="translate(170.295 -337.62)" fill="#002c33"/><path d="M220.087,361.464s.534-.914,1.331-2.285c.2-.342.415-.715.645-1.106a10.938,10.938,0,0,0,.534-1.1c.349-.784.724-1.618,1.1-2.451a42.589,42.589,0,0,0,1.241-5.182c.239-1.46.4-2.433.4-2.433l1.711,2.177a56.928,56.928,0,0,1,3.478,5.03c.5,1,.987,2.051,1.437,3.058.208.488.477,1.04.6,1.438s.269.8.389,1.157c.483,1.437.8,2.4.8,2.4Z" transform="translate(176.926 -334.756)" fill="#002c33"/><path d="M224.4,358.127l6.854-9.487,6.854,9.487Z" transform="translate(180.498 -333.325)" fill="#002c33"/><path d="M228.769,357.686l4.482-4.674c2.471-2.405,4.94-4.619,4.94-4.619s.879,2.721,1.844,5.262c1.151,2.659,2.3,5.319,2.3,5.319Z" transform="translate(184.113 -333.529)" fill="#002c33"/><path d="M234.51,361.078s2.042-3.568,4.085-7.136l1.654-2.65a24.694,24.694,0,0,1,1.583-2.254c.974-1.276,1.621-2.128,1.621-2.128s.2.941.493,2.352a18.193,18.193,0,0,0,.611,2.356c.278.85.576,1.755.872,2.661,1.38,3.687,2.762,7.373,2.762,7.373Z" transform="translate(188.865 -334.756)" fill="#002c33"/><path d="M245.178,360.913l3.56-7.878c2.173-3.928,4.348-7.854,4.348-7.854s1.252,3.966,2.506,7.932c1.645,3.975,3.294,7.953,3.294,7.953Z" transform="translate(197.696 -336.188)" fill="#002c33"/><path d="M253.548,360.874s.38-.865.949-2.162c.144-.325.3-.678.461-1.049.135-.344.278-.7.424-1.078.282-.762.581-1.577.881-2.389.435-1.705.932-3.471,1.115-4.8.227-1.342.38-2.237.38-2.237s.685.78,1.714,1.948c1.086,1.17,2.29,2.8,3.582,4.467.572.888,1.144,1.778,1.68,2.612.26.422.508.833.746,1.221q.307.546.578,1.023l1.188,2.111Z" transform="translate(204.624 -334.552)" fill="#002c33"/><path d="M264.814,360.75l8.935-15.816,4.709,16.705Z" transform="translate(213.949 -336.393)" fill="#002c33"/><g transform="translate(867.933)"><path d="M738.91,370.565s.949-1.234,2.369-3.085l1.15-1.493c.444-.545.722-1.047,1.1-1.608l2.312-3.533c.676-1.252,1.312-2.531,1.934-3.741a23.174,23.174,0,0,0,1.466-3.356l1.27-3.354s.347,1.369.872,3.423a21.655,21.655,0,0,1,.707,3.573c.168,1.314.371,2.734.519,4.171.011,1.46.018,2.923.027,4.292-.015.684.024,1.4-.053,1.976-.053.594-.1,1.155-.144,1.674-.183,2.076-.305,3.46-.305,3.46Z" transform="translate(-261.541 -331.873)" fill="#002c33"/><path d="M742.7,383.508s-.155-2.409-.386-6.021c-.106-1.806-.23-3.91-.364-6.163-.112-2.248-.358-4.6-.576-6.975-.351-2.34-.587-4.723-1.142-6.9-.267-1.091-.428-2.175-.753-3.164s-.623-1.939-.9-2.811a34.129,34.129,0,0,0-1.712-4.171c-.453-1.013-.713-1.588-.713-1.588l1.25,1.426a45.769,45.769,0,0,1,3.189,3.846c.594.824,1.239,1.716,1.919,2.663.7.947,1.241,1.985,1.91,3.045,1.365,2.12,2.457,4.44,3.677,6.763,1.077,2.323,2.188,4.668,3.1,6.849.927,2.17,1.791,4.2,2.531,5.931,1.5,3.464,2.5,5.772,2.5,5.772Z" transform="translate(-263.821 -335.745)" fill="#002c33"/><path d="M730.364,377.663l.393-5.922c.261-3.6.664-8.262.791-12.93-.009-1.162-.017-2.323-.026-3.465a29.072,29.072,0,0,0-.175-3.358c-.113-1.086-.143-2.153-.312-3.144-.187-1-.36-1.936-.521-2.8a29.351,29.351,0,0,0-1.14-4.184c-.314-1.016-.5-1.6-.5-1.6l1.055,1.466a37.765,37.765,0,0,1,2.65,3.943l1.555,2.716c.545.971.961,2.018,1.48,3.093a36.377,36.377,0,0,1,1.431,3.348c.433,1.151.872,2.319,1.311,3.489,1.6,4.683,2.919,9.4,3.931,12.831,1.044,3.476,1.74,5.794,1.74,5.794Z" transform="translate(-269.847 -340.261)" fill="#002c33"/><path d="M721.627,375.621s-.047-1.9-.117-4.752c-.018-.713-.038-1.484-.06-2.3a20.139,20.139,0,0,1,.188-2.7c.2-1.868.413-3.86.625-5.851.461-1.916.918-3.831,1.349-5.628a26.14,26.14,0,0,1,.676-2.553c.283-.8.548-1.563.8-2.263l1.638-4.632s.2,1.894.5,4.732c.077.705.157,1.468.241,2.276.062.8.322,1.65.483,2.52.371,1.729.771,3.571,1.168,5.414.618,1.758,1.234,3.515,1.811,5.16a17.483,17.483,0,0,0,.9,2.352c.386.777.748,1.51,1.082,2.186l2.232,4.515Z" transform="translate(-276.007 -336.39)" fill="#002c33"/><path d="M710.925,368.286s-.123-1.384-.305-3.458c-.044-.519-.092-1.082-.145-1.676-.077-.572-.038-1.292-.053-1.976.009-1.369.016-2.831.027-4.292.148-1.437.351-2.855.519-4.171a21.892,21.892,0,0,1,.705-3.573c.526-2.054.874-3.423.874-3.423s.506,1.342,1.268,3.354a23.026,23.026,0,0,0,1.468,3.356c.621,1.21,1.258,2.489,1.934,3.743.786,1.2,1.574,2.4,2.31,3.531.382.561.662,1.064,1.106,1.608.406.53.792,1.033,1.15,1.493,1.42,1.852,2.369,3.085,2.369,3.085Z" transform="translate(-285.123 -335.745)" fill="#002c33"/><path d="M704.2,376.266l1.088-4.9c.62-2.924,1.594-6.9,2.539-10.831.512-1.97,1.1-3.939,1.612-5.77.479-1.837,1.058-3.544,1.588-5,1.016-2.9,1.693-4.827,1.693-4.827s.177,1.976.444,4.94c.108,1.473.283,3.189.605,5.032.294,1.839.563,3.789.91,5.739.768,3.913,1.51,7.781,2.175,10.74.632,2.945,1.055,4.906,1.055,4.906Z" transform="translate(-290.277 -336.39)" fill="#002c33"/><path d="M690.551,374.612s.069-.439.188-1.21c.06-.384.135-.852.218-1.387a14.078,14.078,0,0,1,.377-1.908c.2-.755.422-1.568.654-2.429a15.48,15.48,0,0,1,.972-2.542,23.563,23.563,0,0,1,1.221-2.6c.49-.854.985-1.72,1.481-2.588,1.13-1.68,2.212-3.348,3.425-4.829,1.14-1.5,2.294-2.859,3.285-4.017,2-2.3,3.339-3.827,3.339-3.827s-.534,1.731-1.336,4.326c-.378,1.3-.817,2.806-1.168,4.419a45.907,45.907,0,0,0-.886,5.012c-.047.841-.1,1.682-.148,2.508a16.508,16.508,0,0,0,.084,2.387,10.323,10.323,0,0,0,.243,2.148c.143.638.272,1.239.395,1.795a11.1,11.1,0,0,0,.483,1.658c.177.526.333.985.459,1.362l.4,1.188Z" transform="translate(-301.572 -334.454)" fill="#002c33"/><path d="M686.9,371.63l6.854-22.8,6.854,22.8Z" transform="translate(-304.59 -333.164)" fill="#002c33"/><path d="M685.1,380.22s.455-9.055.706-18.046c0-2.248,0-4.495,0-6.6.044-2.118-.09-4.078-.2-5.765-.2-3.387-.338-5.648-.338-5.648l2.453,5.418c.744,1.632,1.623,3.542,2.382,5.606.8,2.064,1.656,4.268,2.513,6.472,3.175,8.856,6.128,17.676,6.128,17.676Z" transform="translate(-306.082 -337.035)" fill="#002c33"/><path d="M675.987,379.935l2.413-17.914c.144-1.12.155-2.219.239-3.315.066-1.093.133-2.172.194-3.215.126-2.091.245-4.045.342-5.719.2-3.369.333-5.613.333-5.613l1.8,5.5c.541,1.658,1.173,3.593,1.852,5.668.34,1.042.691,2.117,1.045,3.21.338,1.093.755,2.21,1.044,3.321l4.432,17.757Z" transform="translate(-313.627 -337.035)" fill="#002c33"/><path d="M670.559,373.526s.1-1.652.26-4.129c.185-2.5.289-5.714.429-9-.009-1.632-.02-3.266-.027-4.8-.02-.768.027-1.521-.051-2.219-.055-.7-.1-1.365-.15-1.979-.194-2.471-.322-4.122-.322-4.122s.963,1.524,2.413,3.809c.36.578.755,1.2,1.173,1.864.44.658.777,1.371,1.2,2.1l2.533,4.611c1.563,3.149,3.188,6.368,4.27,8.715,1.117,2.363,1.861,3.941,1.861,3.941Z" transform="translate(-318.12 -334.454)" fill="#002c33"/><path d="M693.557,372.093l1.806-4.524c.272-.678.567-1.411.877-2.19.291-.771.724-1.619,1.1-2.475.788-1.707,1.632-3.531,2.471-5.354.81-1.777,1.614-3.551,2.371-5.216.362-.835.8-1.643,1.049-2.413.278-.771.539-1.5.782-2.173l1.629-4.546s.2,1.868.506,4.67c.075.709.155,1.475.241,2.288.11.819.058,1.658.1,2.542.031,1.767.066,3.654.1,5.542.02,1.833.042,3.666.062,5.386.022.861-.015,1.661.06,2.473.057.8.108,1.561.155,2.263.192,2.8.322,4.666.322,4.666Z" transform="translate(-299.083 -337.826)" fill="#002c33"/><path d="M660.544,373.2l3.124-4.076c.9-1.2,1.976-2.6,2.994-4.118,1.1-1.517,2.04-3.146,3.052-4.8.422-.837.845-1.676,1.263-2.5a20.755,20.755,0,0,0,1.033-2.471,15.635,15.635,0,0,0,.8-2.358c.186-.766.366-1.49.53-2.157a25.735,25.735,0,0,0,.44-3.285c.084-.8.128-1.265.128-1.265s.166.446.459,1.226a28.525,28.525,0,0,1,1.115,3.29c.157.7.327,1.453.5,2.252a16.191,16.191,0,0,1,.344,2.544,20.324,20.324,0,0,1,.164,2.753c-.02.941-.038,1.9-.06,2.857-.2,1.888-.373,3.827-.744,5.58-.294,1.782-.691,3.409-1.012,4.814-.669,2.742-1.113,4.569-1.113,4.569Z" transform="translate(-326.41 -335.37)" fill="#002c33"/><path d="M654.586,376.3l4.273-16.428c2.345-8.209,4.688-16.417,4.688-16.417s1.082,8.274,2.166,16.545c1.289,8.278,2.575,16.556,2.575,16.556Z" transform="translate(-331.342 -337.62)" fill="#002c33"/><path d="M649.993,370.691s.238-1.159.6-2.9c.091-.435.188-.9.291-1.4s.323-1.115.493-1.693c.389-1.157.8-2.393,1.21-3.626,1.04-2.286,2.038-4.544,2.87-6.2L656.8,352.1s.316,1.148.788,2.868c.45,1.734,1.168,4,1.846,6.238.435,1.029.874,2.058,1.281,3.021a14.6,14.6,0,0,0,.622,1.365l.742,1.323,1.528,2.731Z" transform="translate(-335.144 -330.46)" fill="#002c33"/><path d="M647.226,372.225s-.137-.333-.377-.919c-.119-.294-.263-.649-.433-1.056a12.342,12.342,0,0,1-.552-1.711c-.183-.689-.36-1.429-.515-2.191-.051-.695-.031-1.38-.042-2.1a10.637,10.637,0,0,1,.128-2.166c.1-.715.194-1.442.291-2.168.314-1.418.583-2.829.958-4.114.353-1.281.685-2.477.969-3.5l.9-3.405s.5,1.349,1.236,3.372c.36,1.009.779,2.186,1.225,3.445.428,1.261,1.011,2.557,1.543,3.847q.471.935.945,1.855a9.853,9.853,0,0,0,1.018,1.709c.364.525.693,1.053,1.025,1.491.349.334.674.651.98.941a7.165,7.165,0,0,0,.93.874c.4.327.746.614,1.035.848l.9.742Z" transform="translate(-339.03 -333.12)" fill="#002c33"/><path d="M640.964,376.735s-.044-.5-.121-1.376c-.04-.437-.086-.969-.139-1.579a15.2,15.2,0,0,1-.064-2.217c.016-.841.031-1.753.049-2.716.058-.938.23-1.864.349-2.849.2-1.963.755-3.988,1.175-6.017.557-2.009,1.066-4.008,1.676-5.854s1.153-3.564,1.63-5.039c.978-2.935,1.627-4.895,1.627-4.895s.2,2,.51,5c.163,1.5.356,3.239.561,5.109s.545,3.833.846,5.792a57.674,57.674,0,0,0,1.338,5.641c.274.872.488,1.747.777,2.508.309.729.6,1.42.872,2.058a12.521,12.521,0,0,0,.837,1.8c.311.574.578,1.077.8,1.488.448.826.7,1.3.7,1.3Z" transform="translate(-342.894 -337.007)" fill="#002c33"/><path d="M641.13,376.97l-.472-.181-.846-.3a10.428,10.428,0,0,1-1.365-.651,8.111,8.111,0,0,1-1.128-.77l-.477-.5a5.836,5.836,0,0,1-.746-1,5.4,5.4,0,0,1-.561-1.521,4.817,4.817,0,0,1-.117-1.2,8.047,8.047,0,0,1,.234-1.93,15.645,15.645,0,0,1,.468-1.654c.717-2.069,1.663-3.955,2.407-5.67l-.02.256a16.168,16.168,0,0,1,.685-2.188l.788-2,1.7-3.933c.592-1.3,1.208-2.6,1.868-3.891.336-.643.678-1.287,1.055-1.923.187-.316.391-.634.61-.945a4.71,4.71,0,0,1,.389-.457c.1-.069.135-.154.316-.2a.235.235,0,0,1,.271.179c-.163-.216-.313-.069-.365.09a3.1,3.1,0,0,0-.13.481,9.914,9.914,0,0,0-.115.992c-.046.664-.06,1.332-.062,2,0,1.338.051,2.678.124,4.016l.3,4,.219,1.978a11.028,11.028,0,0,0,.338,1.8l-.018.26c.15,2.078.176,3.961.461,5.7a9.894,9.894,0,0,0,.272,1.2,3.01,3.01,0,0,0,.409.927.376.376,0,0,0,.225.212c.07.1.112-.091.084-.159a1.212,1.212,0,0,0-.212-.38,1.583,1.583,0,0,0-.19-.194,3.906,3.906,0,0,0-.727-.532,5.085,5.085,0,0,0-.963-.415c-.172-.055-.342-.1-.515-.139l.122.016.536.069Z" transform="translate(-347.213 -335.248)" fill="#002c33"/><path d="M634.108,376.94s.238-1.8.6-4.491c.088-.674.185-1.4.287-2.175.08-.762.313-1.634.473-2.493.362-1.724.744-3.561,1.13-5.4.859-3.559,1.788-7.123,2.327-9.779.581-2.676.967-4.458.967-4.458s.468,1.775,1.175,4.438c.746,2.683,1.532,6.238,2.385,9.8.47,1.722.934,3.444,1.374,5.057.236.81.38,1.554.669,2.316.263.753.515,1.468.746,2.124l1.541,4.385Z" transform="translate(-348.293 -333.733)" fill="#002c33"/><path d="M628.353,375.712s.115-1.919.283-4.8c.042-.718.09-1.5.137-2.323s.177-1.731.269-2.643c.21-1.83.433-3.782.658-5.732.486-3.815,1.067-7.646,1.3-10.5.283-2.873.475-4.787.475-4.787s.663,1.868,1.661,4.67c1.055,2.817,2.182,6.573,3.405,10.336.621,1.835,1.247,3.668,1.826,5.392.305.859.539,1.669.872,2.469.314.8.616,1.55.894,2.246,1.1,2.78,1.844,4.635,1.844,4.635Z" transform="translate(-353.057 -336.393)" fill="#002c33"/><path d="M625.837,375.394s-.161-1.934-.406-4.833c-.057-.726-.126-1.51-.2-2.341-.093-.815-.042-1.766-.069-2.694-.007-1.864-.016-3.855-.026-5.845.272-7.742.545-15.488.545-15.488s3.124,7.45,6.249,14.9c.832,1.8,1.663,3.6,2.442,5.279.413.841.7,1.625,1.164,2.413.431.78.835,1.517,1.214,2.2,1.5,2.723,2.5,4.538,2.5,4.538Z" transform="translate(-355.716 -337.007)" fill="#002c33"/><path d="M619.68,375.476s-.192-1.462-.479-3.656c-.073-.548-.15-1.142-.23-1.771s-.08-1.378-.121-2.1c-.042-1.446-.086-2.99-.128-4.535.223-3,.342-5.953.715-8.156.3-2.193.5-3.657.5-3.657l1.632,3.5c.9,2.1,2.475,4.834,3.91,7.53.833,1.274,1.665,2.55,2.447,3.745.408.6.7,1.133,1.153,1.7.437.559.85,1.088,1.23,1.576,1.521,1.954,2.531,3.257,2.531,3.257Z" transform="translate(-361.029 -330.871)" fill="#002c33"/><path d="M614.775,376.865s-.11-.473-.305-1.3c-.1-.415-.214-.919-.351-1.5-.066-.289-.139-.6-.214-.919-.057-.366-.113-.751-.172-1.153-.108-.8-.221-1.669-.344-2.586a25.559,25.559,0,0,1-.124-2.734c-.089-1.875.038-3.813.1-5.756.218-3.851.5-7.638.395-10.484a30.117,30.117,0,0,0-.234-3.442c-.082-.839-.132-1.318-.132-1.318s.258.446.7,1.23c.411.786,1.181,1.906,1.777,3.292,1.382,2.76,2.822,6.521,4.3,10.206.777,1.819,1.5,3.656,2.34,5.28.417.8.746,1.654,1.184,2.314.411.673.8,1.307,1.157,1.9.175.291.347.57.512.835.214.294.42.574.61.837.386.525.72.982,1,1.358l.868,1.184Z" transform="translate(-365.572 -335.779)" fill="#002c33"/><path d="M605.564,368.092s.81-5.1,1.621-10.206c1.009-5.116,2.016-10.234,2.016-10.234s2.392,4.834,4.785,9.667c2.592,4.822,5.18,9.642,5.18,9.642Z" transform="translate(-371.921 -334.143)" fill="#002c33"/><path d="M602.146,379.169l-.8-4.493-.512-4.82c-.157-3.083-.254-6.114-.294-9.122l-.137-4.48-.32-4.451-.654-4.425-1.17-4.4,1.086-.124c-.088.536-.2,1.077-.346,1.612a5.505,5.505,0,0,1-.738,1.55,4.584,4.584,0,0,0,.177-1.579c-.046-.528-.115-1.053-.21-1.583l-.464-2.511,1.548,2.385c.9,1.384,1.839,2.782,2.725,4.2l2.239,4.343,1.9,4.4,1.711,4.412c1.082,2.934,2.212,5.831,3.374,8.667l1.873,4.017,2.334,4.237Z" transform="translate(-378.382 -340.19)" fill="#002c33"/><path d="M593.464,364.8s.17-1.113.42-2.784c.126-.835.276-1.81.435-2.855s.3-2.149.515-3.279l2.234-8.976s2.268,4.131,4.538,8.262c.623,1.013,1.338,2.043,1.961,3s1.226,1.853,1.734,2.621l1.693,2.555Z" transform="translate(-381.937 -334.756)" fill="#002c33"/><path d="M590.007,365.838s.824-3.789,1.647-7.58c1.21-3.941,2.475-7.64,2.475-7.64l4.284,6.882c2.555,3.4,5.109,6.8,5.109,6.8Z" transform="translate(-384.799 -331.688)" fill="#002c33"/><path d="M585.105,365.222l2.531-19.3,10.974,17.74Z" transform="translate(-388.856 -335.575)" fill="#002c33"/><path d="M580.06,364.907l-.558-3.2c-.082-.481-.174-1-.271-1.55-.08-.568-.113-1.228-.168-1.874-.091-1.3-.208-2.679-.247-4.006.051-2.614.1-5.2.188-7.119.075-1.93.124-3.217.124-3.217s.791,1.173,1.974,2.934,2.8,4.092,4.4,6.39c.846,1.109,1.714,2.153,2.495,3.131.408.49.738.941,1.151,1.4.441.468.861.91,1.247,1.316,1.544,1.63,2.577,2.716,2.577,2.716Z" transform="translate(-394.061 -337.212)" fill="#002c33"/><path d="M570.814,365.658s-.015-1-.031-2.491c-.005-.375-.011-.78-.011-1.208s.058-.983.091-1.493c.086-1.038.183-2.135.316-3.177.369-1.976.737-3.952,1.016-5.434.247-1.484.408-2.473.408-2.473s.68.887,1.7,2.217c.991,1.34,2.312,3.125,3.632,4.911.674.79,1.343,1.579,1.972,2.318.323.362.57.68.908,1.025.355.356.693.691,1,1,1.246,1.239,2.073,2.065,2.073,2.065Z" transform="translate(-400.721 -332.711)" fill="#002c33"/><path d="M563.755,365.121l4.112-12.527,9.392,10.963Z" transform="translate(-406.529 -330.052)" fill="#002c33"/><path d="M553.933,362.946s.23-.865.572-2.16c.09-.325.181-.676.278-1.047a12.148,12.148,0,0,1,.452-1.334c.358-.963.769-1.95,1.193-2.886.545-.9,1.177-1.749,1.727-2.53a11.633,11.633,0,0,1,1.747-2.025l1.857-1.828.219,2.177a7.133,7.133,0,0,0,.457,2.131c.271.764.512,1.563.835,2.312.437.676.874,1.354,1.279,1.99a7.917,7.917,0,0,0,.636.9c.263.335.515.649.746.941.927,1.162,1.543,1.937,1.543,1.937Z" transform="translate(-414.66 -332.915)" fill="#002c33"/><path d="M545.233,365.951s.466-1.424,1.163-3.557c.336-1.058.742-2.31,1.321-3.72.548-1.384,1.1-2.846,1.713-4.288.748-1.418,1.5-2.833,2.2-4.162a13.707,13.707,0,0,1,1.08-1.868l1.186-1.629c1.446-1.967,2.411-3.277,2.411-3.277s-.133,1.451-.336,3.626c-.048.532-.1,1.108-.15,1.716a10.929,10.929,0,0,0,.08,1.93c.113,1.32.23,2.731.349,4.138.283,1.389.567,2.78.834,4.083.232,1.261.572,2.508.879,3.593.59,2.149.983,3.582.983,3.582Z" transform="translate(-421.861 -337.62)" fill="#002c33"/><path d="M539.8,360.777s.155-.2.43-.561c.272-.378.61-.682,1.023-1.278a24.567,24.567,0,0,0,2.542-4.259,7.871,7.871,0,0,0,.921-4.431,2.654,2.654,0,0,0-.716-1.393c-.38-.3-.6-.462-.6-.462l.949.146c.294.075.631.2,1.055.355a9.61,9.61,0,0,1,1.2.676,13.673,13.673,0,0,1,4.037,4.851,26.3,26.3,0,0,1,2.118,5.31c.221.7.322,1.479.428,1.855.1.395.15.621.15.621Z" transform="translate(-426.36 -333.529)" fill="#002c33"/><path d="M536.383,363.1l.351-.85c.219-.572.512-1.15.817-2.043a24.765,24.765,0,0,0,1.477-6.412,11.666,11.666,0,0,0-.179-3.4,6.879,6.879,0,0,0-.508-1.493,6.282,6.282,0,0,0-.79-1.272,7.286,7.286,0,0,0-1.056-.936,6.877,6.877,0,0,0-1.086-.6l-1.141-.413,1.342.044a10.654,10.654,0,0,1,1.559.26,13.157,13.157,0,0,1,1.921.656,13.6,13.6,0,0,1,1.941,1.135,14.332,14.332,0,0,1,1.815,1.5,20.388,20.388,0,0,1,2.906,3.626,32.26,32.26,0,0,1,3.365,7.242c.342.978.567,1.963.722,2.48l.241.866Z" transform="translate(-430.938 -335.779)" fill="#002c33"/><path d="M533.533,366.073s-.011-.375-.027-1.029l-.033-1.181c0-.228-.009-.472-.018-.727a4.43,4.43,0,0,0-.1-.607c-.066-.42-.135-.876-.214-1.354a8.585,8.585,0,0,0-.554-1.751,39.413,39.413,0,0,0-1.771-4.056c-.7-1.448-1.429-2.864-2-4.284a15.759,15.759,0,0,1-.782-2.018l-.53-1.835a13.86,13.86,0,0,1-.371-2.756c-.055-.652-.084-1.024-.084-1.024l.656.938a18.293,18.293,0,0,0,1.817,2.363c.442.457.925.95,1.429,1.477a22.685,22.685,0,0,0,1.755,1.576c1.206,1.073,2.678,2.206,4.094,3.337,1.446,1.192,2.937,2.325,4.24,3.6a19.07,19.07,0,0,1,1.9,1.87c.574.706,1.113,1.374,1.612,1.99.234.3.514.647.669.888l.428.671c.267.419.5.786.691,1.088.384.6.605.949.605.949Z" transform="translate(-436.908 -337.62)" fill="#002c33"/><path d="M522.45,362.167s.322-.96.8-2.4c.119-.358.249-.748.387-1.157.122-.4.389-.95.6-1.438.45-1.007.93-2.058,1.437-3.058a56.947,56.947,0,0,1,3.478-5.03l1.711-2.177s.159.972.4,2.433a42.584,42.584,0,0,0,1.241,5.182l1.1,2.451a11.328,11.328,0,0,0,.532,1.1c.23.391.444.764.645,1.106l1.331,2.285Z" transform="translate(-440.72 -334.756)" fill="#002c33"/><path d="M518.111,358.127l6.854-9.487,6.852,9.487Z" transform="translate(-444.312 -333.325)" fill="#002c33"/><path d="M513.82,358.975l2.3-5.319c.963-2.541,1.846-5.262,1.846-5.262s2.467,2.213,4.939,4.619c2.243,2.336,4.482,4.674,4.482,4.674Z" transform="translate(-447.864 -333.529)" fill="#002c33"/><path d="M508.019,361.654s1.38-3.687,2.758-7.373c.3-.907.6-1.811.874-2.661a18.2,18.2,0,0,0,.61-2.356c.294-1.411.492-2.352.492-2.352s.649.852,1.623,2.128a24.731,24.731,0,0,1,1.583,2.254c.526.846,1.093,1.747,1.656,2.65,2.042,3.568,4.085,7.136,4.085,7.136Z" transform="translate(-452.666 -334.756)" fill="#002c33"/><path d="M497.336,361.066s1.645-3.977,3.294-7.953c1.252-3.966,2.506-7.932,2.506-7.932s2.171,3.926,4.346,7.854l3.561,7.878Z" transform="translate(-461.509 -336.188)" fill="#002c33"/><path d="M488.972,360.541l1.188-2.111.576-1.023c.238-.388.486-.8.748-1.221l1.678-2.612c1.294-1.671,2.5-3.3,3.582-4.467,1.031-1.168,1.716-1.948,1.716-1.948s.152.9.38,2.237c.183,1.329.68,3.094,1.113,4.8.3.811.6,1.627.881,2.389q.222.562.422,1.078c.165.371.32.724.461,1.049.572,1.3.952,2.162.952,2.162Z" transform="translate(-468.432 -334.552)" fill="#002c33"/><path d="M477.734,361.639l4.71-16.705,8.934,15.816Z" transform="translate(-477.734 -336.393)" fill="#002c33"/></g></g><g transform="translate(626.455 25.246)"><path d="M398.605,367.3H368.588l-3.957,21.851h37.932Z" transform="translate(-324.652 -343.121)" fill="#bfbfbf"/><path d="M407.679,382.764H367.423l-7.57,41.792h55.4Z" transform="translate(-328.607 -330.324)" fill="#bfbfbf"/><path d="M393.786,359.087H369.21l-2.044,11.29H395.83Z" transform="translate(-322.554 -349.923)" fill="#bfbfbf"/><path d="M449.6,466.638H353.8l-11.047,60.979H460.647Z" transform="translate(-342.758 -260.896)" fill="#bfbfbf"/><path d="M424.679,411.765H365.221l-14.306,78.972h88.069Z" transform="translate(-336.005 -306.318)" fill="#bfbfbf"/><path d="M391.034,354.073H369.781l-1.3,7.161h23.848Z" transform="translate(-321.463 -354.073)" fill="#bfbfbf"/></g><rect width="1370.796" height="10.997" transform="translate(0.004 15.646)" fill="#002c33" opacity="0.7"/></g></g></svg>